<?xml version="1.0" encoding="UTF-8"?>
<svg height="16px" viewBox="0 0 16 16" width="16px" xmlns="http://www.w3.org/2000/svg" xmlns:xlink="http://www.w3.org/1999/xlink">
    <filter id="a" height="100%" width="100%" x="0%" y="0%">
        <feColorMatrix in="SourceGraphic" type="matrix" values="0 0 0 0 1 0 0 0 0 1 0 0 0 0 1 0 0 0 1 0"/>
    </filter>
    <mask id="b">
        <g filter="url(#a)">
            <rect fill-opacity="0.05" height="16" width="16"/>
        </g>
    </mask>
    <radialGradient id="c" cx="63.999996" cy="194.190475" gradientTransform="matrix(-4.136364 -0.00000125 -0.00000027 1.390909 327.227291 -154.634552)" gradientUnits="userSpaceOnUse" r="44">
        <stop offset="0" stop-color="#ffffff"/>
        <stop offset="1" stop-color="#ffffff" stop-opacity="0.094118"/>
    </radialGradient>
    <clipPath id="d">
        <rect height="152" width="192"/>
    </clipPath>
    <mask id="e">
        <g filter="url(#a)">
            <rect fill-opacity="0.3" height="16" width="16"/>
        </g>
    </mask>
    <clipPath id="f">
        <rect height="152" width="192"/>
    </clipPath>
    <mask id="g">
        <g filter="url(#a)">
            <rect fill-opacity="0.7" height="16" width="16"/>
        </g>
    </mask>
    <clipPath id="h">
        <rect height="152" width="192"/>
    </clipPath>
    <mask id="i">
        <g filter="url(#a)">
            <rect fill-opacity="0.5" height="16" width="16"/>
        </g>
    </mask>
    <clipPath id="j">
        <rect height="152" width="192"/>
    </clipPath>
    <g clip-path="url(#d)" mask="url(#b)" transform="matrix(1 0 0 1 -168 -16)">
        <path d="m 24 120 h 84 v -68 h -84 z m 0 0" fill="url(#c)"/>
    </g>
    <g clip-path="url(#f)" mask="url(#e)" transform="matrix(1 0 0 1 -168 -16)">
        <path d="m 118 82 h 4 v 7 h -4 z m 0 0"/>
    </g>
    <g clip-path="url(#h)" mask="url(#g)" transform="matrix(1 0 0 1 -168 -16)">
        <path d="m 120 48 c -1.109375 0 -2 0.890625 -2 2 v 2 c 0 -1.109375 0.890625 -2 2 -2 s 2 0.890625 2 2 v -2 c 0 -1.109375 -0.890625 -2 -2 -2 z m 0 0" fill="#1a1b1e"/>
    </g>
    <g clip-path="url(#j)" mask="url(#i)" transform="matrix(1 0 0 1 -168 -16)">
        <path d="m 20.394531 46 c -0.257812 1.292969 -0.394531 2.628906 -0.394531 4 h 14 c 1.109375 0 2 -0.890625 2 -2 s -0.890625 -2 -2 -2 z m 25.605469 0 c -1.109375 0 -2 0.890625 -2 2 s 0.890625 2 2 2 h 14 c 0 -1.371094 -0.136719 -2.707031 -0.394531 -4 z m -26 8 v 4 h 14 c 1.109375 0 2 -0.890625 2 -2 s -0.890625 -2 -2 -2 z m 26 0 c -1.109375 0 -2 0.890625 -2 2 s 0.890625 2 2 2 h 14 v -4 z m -26 8 v 4 h 14 c 1.109375 0 2 -0.890625 2 -2 s -0.890625 -2 -2 -2 z m 26 0 c -1.109375 0 -2 0.890625 -2 2 s 0.890625 2 2 2 h 14 v -4 z m 0 0" fill="#ffffff"/>
    </g>
    <path d="m 2 1.003906 c -1.097656 0 -1.9921875 0.898438 -1.9921875 1.996094 v 10 c 0 1.097656 0.8945315 1.996094 1.9921875 1.996094 h 12.003906 c 1.097656 0 1.996094 -0.898438 1.996094 -1.996094 v -10 c 0 -1.097656 -0.898438 -1.996094 -1.996094 -1.996094 z m 0 1 h 12.003906 c 0.558594 0 0.996094 0.433594 0.996094 0.996094 v 10 c 0 0.5625 -0.4375 0.996094 -0.996094 0.996094 h -12.003906 c -0.5625 0 -0.992188 -0.433594 -0.992188 -0.996094 v -10 c 0 -0.5625 0.429688 -0.996094 0.992188 -0.996094 z m 11.5 0.996094 c -0.277344 0 -0.5 0.222656 -0.5 0.5 v 8.800781 c 0 0.277344 0.222656 0.5 0.5 0.5 s 0.5 -0.222656 0.5 -0.5 v -8.800781 c 0 -0.277344 -0.222656 -0.5 -0.5 -0.5 z m -9.898438 0 c -0.878906 0 -1.601562 0.722656 -1.601562 1.601562 v 6.796876 c 0 0.878906 0.722656 1.601562 1.601562 1.601562 h 6.796876 c 0.878906 0 1.601562 -0.722656 1.601562 -1.601562 v -6.796876 c 0 -0.878906 -0.722656 -1.601562 -1.601562 -1.601562 z m 0 1 h 6.796876 c 0.34375 0 0.601562 0.257812 0.601562 0.601562 v 6.796876 c 0 0.34375 -0.257812 0.601562 -0.601562 0.601562 h -6.796876 c -0.34375 0 -0.601562 -0.257812 -0.601562 -0.601562 v -6.796876 c 0 -0.34375 0.257812 -0.601562 0.601562 -0.601562 z m 3.398438 1 c -0.554688 0 -1 0.488281 -1 1.097656 v 1.796875 c 0 0.613281 0.445312 1.105469 1 1.105469 s 1 -0.492188 1 -1.105469 v -1.796875 c 0 -0.609375 -0.445312 -1.097656 -1 -1.097656 z m -2.492188 2.503906 c -0.277343 0 -0.5 0.226563 -0.5 0.5 c 0 1.65625 1.347657 3 3 3 c 1.652344 0 3 -1.34375 3 -3 c 0 -0.273437 -0.226562 -0.5 -0.5 -0.5 c -0.277343 0 -0.5 0.226563 -0.5 0.5 c 0 1.117188 -0.882812 2 -2 2 c -1.117187 0 -2 -0.882812 -2 -2 c 0 -0.273437 -0.222656 -0.5 -0.5 -0.5 z m 0 0" fill="#241f31"/>
</svg>
