<?xml version="1.0" encoding="UTF-8" standalone="no"?>
<svg
   xmlns:dc="http://purl.org/dc/elements/1.1/"
   xmlns:cc="http://creativecommons.org/ns#"
   xmlns:rdf="http://www.w3.org/1999/02/22-rdf-syntax-ns#"
   xmlns:svg="http://www.w3.org/2000/svg"
   xmlns="http://www.w3.org/2000/svg"
   xmlns:xlink="http://www.w3.org/1999/xlink"
   xmlns:sodipodi="http://sodipodi.sourceforge.net/DTD/sodipodi-0.dtd"
   xmlns:inkscape="http://www.inkscape.org/namespaces/inkscape"
   version="1.1"
   width="64"
   height="64"
   id="svg6333"
   inkscape:version="0.91 r13725"
   sodipodi:docname="vocal.svg">
  <sodipodi:namedview
     pagecolor="#ffffff"
     bordercolor="#666666"
     borderopacity="1"
     objecttolerance="10"
     gridtolerance="10"
     guidetolerance="10"
     inkscape:pageopacity="0"
     inkscape:pageshadow="2"
     inkscape:window-width="1366"
     inkscape:window-height="712"
     id="namedview64517"
     showgrid="false"
     inkscape:zoom="1"
     inkscape:cx="26.489992"
     inkscape:cy="16.219186"
     inkscape:window-x="0"
     inkscape:window-y="30"
     inkscape:window-maximized="1"
     inkscape:current-layer="svg6333"
     showborder="false">
    <inkscape:grid
       type="xygrid"
       id="grid8214" />
  </sodipodi:namedview>
  <defs
     id="defs6335">
    <linearGradient
       inkscape:collect="always"
       id="linearGradient8424">
      <stop
         style="stop-color:#ffffff;stop-opacity:1;"
         offset="0"
         id="stop8426" />
      <stop
         style="stop-color:#faecff;stop-opacity:1"
         offset="1"
         id="stop8428" />
    </linearGradient>
    <linearGradient
       x1="23.99999"
       y1="4.999989"
       x2="23.99999"
       y2="43"
       id="linearGradient3381-5-4"
       xlink:href="#linearGradient3924-2-2-5-8"
       gradientUnits="userSpaceOnUse"
       gradientTransform="matrix(1.4324324,0,0,1.4362832,-2.378381,-2.4707782)" />
    <linearGradient
       id="linearGradient3924-2-2-5-8">
      <stop
         id="stop3926-9-4-9-6"
         style="stop-color:#ffffff;stop-opacity:1"
         offset="0" />
      <stop
         id="stop3928-9-8-6-5"
         style="stop-color:#ffffff;stop-opacity:0.23529412"
         offset="0.06316455" />
      <stop
         id="stop3930-3-5-1-7"
         style="stop-color:#ffffff;stop-opacity:0.15686275"
         offset="0.95056331" />
      <stop
         id="stop3932-8-0-4-8"
         style="stop-color:#ffffff;stop-opacity:0.39215687"
         offset="1" />
    </linearGradient>
    <radialGradient
       cx="6.7304144"
       cy="9.9571075"
       r="12.671875"
       fx="6.2001843"
       fy="9.9571075"
       id="radialGradient3402-7-1-6"
       xlink:href="#linearGradient3671-580-6"
       gradientUnits="userSpaceOnUse"
       gradientTransform="matrix(0,13.393984,-16.443533,0,196.90205,-114.89368)" />
    <radialGradient
       cx="4.9929786"
       cy="43.5"
       r="2.5"
       fx="4.9929786"
       fy="43.5"
       id="radialGradient3337-2-2"
       xlink:href="#linearGradient3688-166-749-4-0-3-8"
       gradientUnits="userSpaceOnUse"
       gradientTransform="matrix(2.003784,0,0,1.4,27.98813,-17.4)" />
    <linearGradient
       id="linearGradient3688-166-749-4-0-3-8">
      <stop
         id="stop2883-4-0-1-8"
         style="stop-color:#181818;stop-opacity:1"
         offset="0" />
      <stop
         id="stop2885-9-2-9-6"
         style="stop-color:#181818;stop-opacity:0"
         offset="1" />
    </linearGradient>
    <radialGradient
       cx="4.9929786"
       cy="43.5"
       r="2.5"
       fx="4.9929786"
       fy="43.5"
       id="radialGradient3339-1-4"
       xlink:href="#linearGradient3688-464-309-9-2-4-2"
       gradientUnits="userSpaceOnUse"
       gradientTransform="matrix(2.003784,0,0,1.4,-20.01187,-104.4)" />
    <linearGradient
       id="linearGradient3688-464-309-9-2-4-2">
      <stop
         id="stop2889-7-9-6-9"
         style="stop-color:#181818;stop-opacity:1"
         offset="0" />
      <stop
         id="stop2891-6-6-1-7"
         style="stop-color:#181818;stop-opacity:0"
         offset="1" />
    </linearGradient>
    <linearGradient
       id="linearGradient3702-501-757-8-4-1-1">
      <stop
         id="stop2895-8-9-9-1"
         style="stop-color:#181818;stop-opacity:0"
         offset="0" />
      <stop
         id="stop2897-7-8-7-7"
         style="stop-color:#181818;stop-opacity:1"
         offset="0.5" />
      <stop
         id="stop2899-4-5-1-5"
         style="stop-color:#181818;stop-opacity:0"
         offset="1" />
    </linearGradient>
    <linearGradient
       x1="25.058096"
       y1="47.027729"
       x2="25.058096"
       y2="39.999443"
       id="linearGradient6394"
       xlink:href="#linearGradient3702-501-757-8-4-1-1"
       gradientUnits="userSpaceOnUse" />
    <linearGradient
       id="linearGradient7622">
      <stop
         style="stop-color:#000000;stop-opacity:1;"
         offset="0"
         id="stop7624" />
      <stop
         id="stop7630"
         offset="0.5"
         style="stop-color:#000000;stop-opacity:0.251" />
      <stop
         style="stop-color:#000000;stop-opacity:1;"
         offset="1"
         id="stop7626" />
    </linearGradient>
    <linearGradient
       id="linearGradient3671-580-6">
      <stop
         id="stop4088-6"
         style="stop-color:#b488da;stop-opacity:1"
         offset="0" />
      <stop
         id="stop4094-2"
         style="stop-color:#aa80ce;stop-opacity:1"
         offset="1" />
    </linearGradient>
    <linearGradient
       inkscape:collect="always"
       xlink:href="#linearGradient7622"
       id="linearGradient26143"
       x1="32"
       y1="56"
       x2="32"
       y2="8"
       gradientUnits="userSpaceOnUse" />
    <linearGradient
       inkscape:collect="always"
       xlink:href="#linearGradient8424"
       id="linearGradient8430"
       x1="32"
       y1="7"
       x2="32"
       y2="56"
       gradientUnits="userSpaceOnUse" />
  </defs>
  <metadata
     id="metadata6338">
    <rdf:RDF>
      <cc:Work
         rdf:about="">
        <dc:format>image/svg+xml</dc:format>
        <dc:type
           rdf:resource="http://purl.org/dc/dcmitype/StillImage" />
        <dc:title></dc:title>
      </cc:Work>
    </rdf:RDF>
  </metadata>
  <g
     style="opacity:0.6"
     id="g3712-8-2-4-4"
     transform="matrix(1.5789502,0,0,0.7142857,-5.894751,27.928572)">
    <rect
       style="fill:url(#radialGradient3337-2-2);fill-opacity:1;stroke:none"
       id="rect2801-5-5-7-9"
       y="40"
       x="38"
       height="7"
       width="5" />
    <rect
       style="fill:url(#radialGradient3339-1-4);fill-opacity:1;stroke:none"
       id="rect3696-3-0-3-7"
       transform="scale(-1,-1)"
       y="-47"
       x="-10"
       height="7"
       width="5" />
    <rect
       style="fill:url(#linearGradient6394);fill-opacity:1;stroke:none"
       id="rect3700-5-6-8-4"
       y="40"
       x="10"
       height="7.0000005"
       width="28" />
  </g>
  <rect
     style="color:#000000;display:inline;overflow:visible;visibility:visible;fill:url(#radialGradient3402-7-1-6);fill-opacity:1.0;fill-rule:nonzero;stroke:none;stroke-width:0.99999994;marker:none;enable-background:accumulate"
     id="rect5505-21-3-8-5-2"
     y="4.5000019"
     x="4.4999986"
     ry="3"
     rx="3"
     height="55"
     width="55" />
  <rect
     style="opacity:0.5;fill:none;stroke:url(#linearGradient3381-5-4);stroke-width:1;stroke-linecap:round;stroke-linejoin:round;stroke-miterlimit:4;stroke-dasharray:none;stroke-dashoffset:0;stroke-opacity:1"
     id="rect6741-5-0-2-3"
     y="5.4287739"
     x="5.4999986"
     ry="2"
     rx="2"
     height="53.142479"
     width="53" />
  <rect
     style="color:#000000;display:inline;overflow:visible;visibility:visible;opacity:0.4;fill:none;stroke:#4d0e65;stroke-width:1;stroke-linecap:round;stroke-linejoin:round;stroke-miterlimit:4;stroke-dasharray:none;stroke-dashoffset:0;stroke-opacity:1;marker:none;enable-background:accumulate"
     id="rect5505-21-3-8-9-1-1"
     y="4.5000019"
     x="4.4999986"
     ry="3"
     rx="3"
     height="55"
     width="55" />
  <path
     inkscape:connector-curvature="0"
     style="opacity:0.07000002;fill:#ffffff;fill-opacity:1;fill-rule:nonzero;stroke:none"
     d="M 35.15625,9.5000004 C 35.066824,9.6498656 35,9.8120991 35,10 c 0,0.554 0.446,1 1,1 l 2,0 c 0.554,0 1,-0.446 1,-1 C 39,9.8120991 38.93318,9.6498656 38.84375,9.5000004 38.669517,9.7919913 38.366099,10 38,10 l -2,0 C 35.633901,10 35.330483,9.7919913 35.15625,9.5000004 Z m 0,2.9999996 C 35.066824,12.649865 35,12.812099 35,13 c 0,0.554 0.446,1 1,1 l 2,0 c 0.554,0 1,-0.446 1,-1 0,-0.187901 -0.06682,-0.350135 -0.15625,-0.5 C 38.669517,12.791991 38.366099,13 38,13 l -2,0 c -0.366099,0 -0.669517,-0.208009 -0.84375,-0.5 z m 0,3 C 35.066824,15.649865 35,15.812099 35,16 c 0,0.554 0.446,1 1,1 l 2,0 c 0.554,0 1,-0.446 1,-1 0,-0.187901 -0.06682,-0.350135 -0.15625,-0.5 C 38.669517,15.791991 38.366099,16 38,16 l -2,0 c -0.366099,0 -0.669517,-0.208009 -0.84375,-0.5 z m 12,0 C 47.066824,15.649865 47,15.812099 47,16 c 0,0.554 0.446,1 1,1 l 2,0 c 0.554,0 1,-0.446 1,-1 0,-0.187901 -0.06682,-0.350135 -0.15625,-0.5 C 50.669517,15.791991 50.366099,16 50,16 l -2,0 c -0.366099,0 -0.669517,-0.208009 -0.84375,-0.5 z m -17,3 C 30.066824,18.649865 30,18.812099 30,19 c 0,0.554 0.446,1 1,1 l 1,0 c 0.554,0 1,-0.446 1,-1 0,-0.187901 -0.06682,-0.350135 -0.15625,-0.5 C 32.669517,18.791991 32.366099,19 32,19 l -1,0 c -0.366099,0 -0.669517,-0.208009 -0.84375,-0.5 z m 5,0 C 35.066824,18.649865 35,18.812099 35,19 c 0,0.554 0.446,1 1,1 l 2,0 c 0.554,0 1,-0.446 1,-1 0,-0.187901 -0.06682,-0.350135 -0.15625,-0.5 C 38.669517,18.791991 38.366099,19 38,19 l -2,0 c -0.366099,0 -0.669517,-0.208009 -0.84375,-0.5 z m 12,0 C 47.066824,18.649865 47,18.812099 47,19 c 0,0.554 0.446,1 1,1 l 2,0 c 0.554,0 1,-0.446 1,-1 0,-0.187901 -0.06682,-0.350135 -0.15625,-0.5 C 50.669517,18.791991 50.366099,19 50,19 l -2,0 c -0.366099,0 -0.669517,-0.208009 -0.84375,-0.5 z m 6,0 C 53.066824,18.649865 53,18.812099 53,19 c 0,0.554 0.446,1 1,1 l 2,0 c 0.554,0 1,-0.446 1,-1 0,-0.187901 -0.06682,-0.350135 -0.15625,-0.5 C 56.669517,18.791991 56.366099,19 56,19 l -2,0 c -0.366099,0 -0.669517,-0.208009 -0.84375,-0.5 z m -34,3 C 19.066824,21.649865 19,21.812099 19,22 c 0,0.554 0.446,1 1,1 l 2,0 c 0.554,0 1,-0.446 1,-1 0,-0.187901 -0.06682,-0.350135 -0.15625,-0.5 C 22.669517,21.791991 22.366099,22 22,22 l -2,0 c -0.366099,0 -0.669517,-0.208009 -0.84375,-0.5 z m 11,0 C 30.066824,21.649865 30,21.812099 30,22 c 0,0.554 0.446,1 1,1 l 1,0 c 0.554,0 1,-0.446 1,-1 0,-0.187901 -0.06682,-0.350135 -0.15625,-0.5 C 32.669517,21.791991 32.366099,22 32,22 l -1,0 c -0.366099,0 -0.669517,-0.208009 -0.84375,-0.5 z m 5,0 C 35.066824,21.649865 35,21.812099 35,22 c 0,0.554 0.446,1 1,1 l 2,0 c 0.554,0 1,-0.446 1,-1 0,-0.187901 -0.06682,-0.350135 -0.15625,-0.5 C 38.669517,21.791991 38.366099,22 38,22 l -2,0 c -0.366099,0 -0.669517,-0.208009 -0.84375,-0.5 z m 12,0 C 47.066824,21.649865 47,21.812099 47,22 c 0,0.554 0.446,1 1,1 l 2,0 c 0.554,0 1,-0.446 1,-1 0,-0.187901 -0.06682,-0.350135 -0.15625,-0.5 C 50.669517,21.791991 50.366099,22 50,22 l -2,0 c -0.366099,0 -0.669517,-0.208009 -0.84375,-0.5 z m 6,0 C 53.066824,21.649865 53,21.812099 53,22 c 0,0.554 0.446,1 1,1 l 2,0 c 0.554,0 1,-0.446 1,-1 0,-0.187901 -0.06682,-0.350135 -0.15625,-0.5 C 56.669517,21.791991 56.366099,22 56,22 l -2,0 c -0.366099,0 -0.669517,-0.208009 -0.84375,-0.5 z m -46,3 C 7.066824,24.649865 7,24.812099 7,25 c 0,0.554 0.446,1 1,1 l 2,0 c 0.554,0 1,-0.446 1,-1 0,-0.187901 -0.06682,-0.350135 -0.15625,-0.5 C 10.669517,24.791991 10.366099,25 10,25 L 8,25 C 7.633901,25 7.330483,24.791991 7.15625,24.5 Z m 12,0 C 19.066824,24.649865 19,24.812099 19,25 c 0,0.554 0.446,1 1,1 l 2,0 c 0.554,0 1,-0.446 1,-1 0,-0.187901 -0.06682,-0.350135 -0.15625,-0.5 C 22.669517,24.791991 22.366099,25 22,25 l -2,0 c -0.366099,0 -0.669517,-0.208009 -0.84375,-0.5 z m 11,0 C 30.066824,24.649865 30,24.812099 30,25 c 0,0.554 0.446,1 1,1 l 1,0 c 0.554,0 1,-0.446 1,-1 0,-0.187901 -0.06682,-0.350135 -0.15625,-0.5 C 32.669517,24.791991 32.366099,25 32,25 l -1,0 c -0.366099,0 -0.669517,-0.208009 -0.84375,-0.5 z m 5,0 C 35.066824,24.649865 35,24.812099 35,25 c 0,0.554 0.446,1 1,1 l 2,0 c 0.554,0 1,-0.446 1,-1 0,-0.187901 -0.06682,-0.350135 -0.15625,-0.5 C 38.669517,24.791991 38.366099,25 38,25 l -2,0 c -0.366099,0 -0.669517,-0.208009 -0.84375,-0.5 z m 12,0 C 47.066824,24.649865 47,24.812099 47,25 c 0,0.554 0.446,1 1,1 l 2,0 c 0.554,0 1,-0.446 1,-1 0,-0.187901 -0.06682,-0.350135 -0.15625,-0.5 C 50.669517,24.791991 50.366099,25 50,25 l -2,0 c -0.366099,0 -0.669517,-0.208009 -0.84375,-0.5 z m 6,0 C 53.066824,24.649865 53,24.812099 53,25 c 0,0.554 0.446,1 1,1 l 2,0 c 0.554,0 1,-0.446 1,-1 0,-0.187901 -0.06682,-0.350135 -0.15625,-0.5 C 56.669517,24.791991 56.366099,25 56,25 l -2,0 c -0.366099,0 -0.669517,-0.208009 -0.84375,-0.5 z m -46,3 C 7.066824,27.649865 7,27.812099 7,28 c 0,0.554 0.446,1 1,1 l 2,0 c 0.554,0 1,-0.446 1,-1 0,-0.187901 -0.06682,-0.350135 -0.15625,-0.5 C 10.669517,27.791991 10.366099,28 10,28 L 8,28 C 7.633901,28 7.330483,27.791991 7.15625,27.5 Z m 12,0 C 19.066824,27.649865 19,27.812099 19,28 c 0,0.554 0.446,1 1,1 l 2,0 c 0.554,0 1,-0.446 1,-1 0,-0.187901 -0.06682,-0.350135 -0.15625,-0.5 C 22.669517,27.791991 22.366099,28 22,28 l -2,0 c -0.366099,0 -0.669517,-0.208009 -0.84375,-0.5 z m 11,0 C 30.066824,27.649865 30,27.812099 30,28 c 0,0.554 0.446,1 1,1 l 1,0 c 0.554,0 1,-0.446 1,-1 0,-0.187901 -0.06682,-0.350135 -0.15625,-0.5 C 32.669517,27.791991 32.366099,28 32,28 l -1,0 c -0.366099,0 -0.669517,-0.208009 -0.84375,-0.5 z m 5,0 C 35.066824,27.649865 35,27.812099 35,28 c 0,0.554 0.446,1 1,1 l 2,0 c 0.554,0 1,-0.446 1,-1 0,-0.187901 -0.06682,-0.350135 -0.15625,-0.5 C 38.669517,27.791991 38.366099,28 38,28 l -2,0 c -0.366099,0 -0.669517,-0.208009 -0.84375,-0.5 z m 6,0 C 41.066824,27.649865 41,27.812099 41,28 c 0,0.554 0.446,1 1,1 l 2,0 c 0.554,0 1,-0.446 1,-1 0,-0.187901 -0.06682,-0.350135 -0.15625,-0.5 C 44.669517,27.791991 44.366099,28 44,28 l -2,0 c -0.366099,0 -0.669517,-0.208009 -0.84375,-0.5 z m 6,0 C 47.066824,27.649865 47,27.812099 47,28 c 0,0.554 0.446,1 1,1 l 2,0 c 0.554,0 1,-0.446 1,-1 0,-0.187901 -0.06682,-0.350135 -0.15625,-0.5 C 50.669517,27.791991 50.366099,28 50,28 l -2,0 c -0.366099,0 -0.669517,-0.208009 -0.84375,-0.5 z m 6,0 C 53.066824,27.649865 53,27.812099 53,28 c 0,0.554 0.446,1 1,1 l 2,0 c 0.554,0 1,-0.446 1,-1 0,-0.187901 -0.06682,-0.350135 -0.15625,-0.5 C 56.669517,27.791991 56.366099,28 56,28 l -2,0 c -0.366099,0 -0.669517,-0.208009 -0.84375,-0.5 z m -46,3 C 7.066824,30.649865 7,30.812099 7,31 c 0,0.554 0.446,1 1,1 l 2,0 c 0.554,0 1,-0.446 1,-1 0,-0.187901 -0.06682,-0.350135 -0.15625,-0.5 C 10.669517,30.791991 10.366099,31 10,31 L 8,31 C 7.633901,31 7.330483,30.791991 7.15625,30.5 Z m 6,0 C 13.066824,30.649865 13,30.812099 13,31 c 0,0.554 0.446,1 1,1 l 2,0 c 0.554,0 1,-0.446 1,-1 0,-0.187901 -0.06682,-0.350135 -0.15625,-0.5 C 16.669517,30.791991 16.366099,31 16,31 l -2,0 c -0.366099,0 -0.669517,-0.208009 -0.84375,-0.5 z m 6,0 C 19.066824,30.649865 19,30.812099 19,31 c 0,0.554 0.446,1 1,1 l 2,0 c 0.554,0 1,-0.446 1,-1 0,-0.187901 -0.06682,-0.350135 -0.15625,-0.5 C 22.669517,30.791991 22.366099,31 22,31 l -2,0 c -0.366099,0 -0.669517,-0.208009 -0.84375,-0.5 z m 6,0 C 25.066824,30.649865 25,30.812099 25,31 c 0,0.554 0.446,1 1,1 l 2,0 c 0.554,0 1,-0.446 1,-1 0,-0.187901 -0.06682,-0.350135 -0.15625,-0.5 C 28.669517,30.791991 28.366099,31 28,31 l -2,0 c -0.366099,0 -0.669517,-0.208009 -0.84375,-0.5 z m 5,0 C 30.066824,30.649865 30,30.812099 30,31 c 0,0.554 0.446,1 1,1 l 1,0 c 0.554,0 1,-0.446 1,-1 0,-0.187901 -0.06682,-0.350135 -0.15625,-0.5 C 32.669517,30.791991 32.366099,31 32,31 l -1,0 c -0.366099,0 -0.669517,-0.208009 -0.84375,-0.5 z m 5,0 C 35.066824,30.649865 35,30.812099 35,31 c 0,0.554 0.446,1 1,1 l 2,0 c 0.554,0 1,-0.446 1,-1 0,-0.187901 -0.06682,-0.350135 -0.15625,-0.5 C 38.669517,30.791991 38.366099,31 38,31 l -2,0 c -0.366099,0 -0.669517,-0.208009 -0.84375,-0.5 z m 6,0 C 41.066824,30.649865 41,30.812099 41,31 c 0,0.554 0.446,1 1,1 l 2,0 c 0.554,0 1,-0.446 1,-1 0,-0.187901 -0.06682,-0.350135 -0.15625,-0.5 C 44.669517,30.791991 44.366099,31 44,31 l -2,0 c -0.366099,0 -0.669517,-0.208009 -0.84375,-0.5 z m 6,0 C 47.066824,30.649865 47,30.812099 47,31 c 0,0.554 0.446,1 1,1 l 2,0 c 0.554,0 1,-0.446 1,-1 0,-0.187901 -0.06682,-0.350135 -0.15625,-0.5 C 50.669517,30.791991 50.366099,31 50,31 l -2,0 c -0.366099,0 -0.669517,-0.208009 -0.84375,-0.5 z m 6,0 C 53.066824,30.649865 53,30.812099 53,31 c 0,0.554 0.446,1 1,1 l 2,0 c 0.554,0 1,-0.446 1,-1 0,-0.187901 -0.06682,-0.350135 -0.15625,-0.5 C 56.669517,30.791991 56.366099,31 56,31 l -2,0 c -0.366099,0 -0.669517,-0.208009 -0.84375,-0.5 z m -46,4 C 7.066824,34.649865 7,34.812099 7,35 c 0,0.554 0.446,1 1,1 l 2,0 c 0.554,0 1,-0.446 1,-1 0,-0.187901 -0.06682,-0.350135 -0.15625,-0.5 C 10.669517,34.791991 10.366099,35 10,35 L 8,35 C 7.633901,35 7.330483,34.791991 7.15625,34.5 Z m 6,0 C 13.066824,34.649865 13,34.812099 13,35 c 0,0.554 0.446,1 1,1 l 2,0 c 0.554,0 1,-0.446 1,-1 0,-0.187901 -0.06682,-0.350135 -0.15625,-0.5 C 16.669517,34.791991 16.366099,35 16,35 l -2,0 c -0.366099,0 -0.669517,-0.208009 -0.84375,-0.5 z m 6,0 C 19.066824,34.649865 19,34.812099 19,35 c 0,0.554 0.446,1 1,1 l 2,0 c 0.554,0 1,-0.446 1,-1 0,-0.187901 -0.06682,-0.350135 -0.15625,-0.5 C 22.669517,34.791991 22.366099,35 22,35 l -2,0 c -0.366099,0 -0.669517,-0.208009 -0.84375,-0.5 z m 6,0 C 25.066824,34.649865 25,34.812099 25,35 c 0,0.554 0.446,1 1,1 l 2,0 c 0.554,0 1,-0.446 1,-1 0,-0.187901 -0.06682,-0.350135 -0.15625,-0.5 C 28.669517,34.791991 28.366099,35 28,35 l -2,0 c -0.366099,0 -0.669517,-0.208009 -0.84375,-0.5 z m 10,0 C 35.066824,34.649865 35,34.812099 35,35 c 0,0.554 0.446,1 1,1 l 2,0 c 0.554,0 1,-0.446 1,-1 0,-0.187901 -0.06682,-0.350135 -0.15625,-0.5 C 38.669517,34.791991 38.366099,35 38,35 l -2,0 c -0.366099,0 -0.669517,-0.208009 -0.84375,-0.5 z m 6,0 C 41.066824,34.649865 41,34.812099 41,35 c 0,0.554 0.446,1 1,1 l 2,0 c 0.554,0 1,-0.446 1,-1 0,-0.187901 -0.06682,-0.350135 -0.15625,-0.5 C 44.669517,34.791991 44.366099,35 44,35 l -2,0 c -0.366099,0 -0.669517,-0.208009 -0.84375,-0.5 z m 6,0 C 47.066824,34.649865 47,34.812099 47,35 c 0,0.554 0.446,1 1,1 l 2,0 c 0.554,0 1,-0.446 1,-1 0,-0.187901 -0.06682,-0.350135 -0.15625,-0.5 C 50.669517,34.791991 50.366099,35 50,35 l -2,0 c -0.366099,0 -0.669517,-0.208009 -0.84375,-0.5 z m 6,0 C 53.066824,34.649865 53,34.812099 53,35 c 0,0.554 0.446,1 1,1 l 2,0 c 0.554,0 1,-0.446 1,-1 0,-0.187901 -0.06682,-0.350135 -0.15625,-0.5 C 56.669517,34.791991 56.366099,35 56,35 l -2,0 c -0.366099,0 -0.669517,-0.208009 -0.84375,-0.5 z m -46,3 C 7.066824,37.649865 7,37.812099 7,38 c 0,0.554 0.446,1 1,1 l 2,0 c 0.554,0 1,-0.446 1,-1 0,-0.187901 -0.06682,-0.350135 -0.15625,-0.5 C 10.669517,37.791991 10.366099,38 10,38 L 8,38 C 7.633901,38 7.330483,37.791991 7.15625,37.5 Z m 6,0 C 13.066824,37.649865 13,37.812099 13,38 c 0,0.554 0.446,1 1,1 l 2,0 c 0.554,0 1,-0.446 1,-1 0,-0.187901 -0.06682,-0.350135 -0.15625,-0.5 C 16.669517,37.791991 16.366099,38 16,38 l -2,0 c -0.366099,0 -0.669517,-0.208009 -0.84375,-0.5 z m 6,0 C 19.066824,37.649865 19,37.812099 19,38 c 0,0.554 0.446,1 1,1 l 2,0 c 0.554,0 1,-0.446 1,-1 0,-0.187901 -0.06682,-0.350135 -0.15625,-0.5 C 22.669517,37.791991 22.366099,38 22,38 l -2,0 c -0.366099,0 -0.669517,-0.208009 -0.84375,-0.5 z m 6,0 C 25.066824,37.649865 25,37.812099 25,38 c 0,0.554 0.446,1 1,1 l 2,0 c 0.554,0 1,-0.446 1,-1 0,-0.187901 -0.06682,-0.350135 -0.15625,-0.5 C 28.669517,37.791991 28.366099,38 28,38 l -2,0 c -0.366099,0 -0.669517,-0.208009 -0.84375,-0.5 z m 10,0 C 35.066824,37.649865 35,37.812099 35,38 c 0,0.554 0.446,1 1,1 l 2,0 c 0.554,0 1,-0.446 1,-1 0,-0.187901 -0.06682,-0.350135 -0.15625,-0.5 C 38.669517,37.791991 38.366099,38 38,38 l -2,0 c -0.366099,0 -0.669517,-0.208009 -0.84375,-0.5 z m 12,0 C 47.066824,37.649865 47,37.812099 47,38 c 0,0.554 0.446,1 1,1 l 2,0 c 0.554,0 1,-0.446 1,-1 0,-0.187901 -0.06682,-0.350135 -0.15625,-0.5 C 50.669517,37.791991 50.366099,38 50,38 l -2,0 c -0.366099,0 -0.669517,-0.208009 -0.84375,-0.5 z m -40,3 C 7.066824,40.649865 7,40.812099 7,41 c 0,0.554 0.446,1 1,1 l 2,0 c 0.554,0 1,-0.446 1,-1 0,-0.187901 -0.06682,-0.350135 -0.15625,-0.5 C 10.669517,40.791991 10.366099,41 10,41 L 8,41 C 7.633901,41 7.330483,40.791991 7.15625,40.5 Z m 6,0 C 13.066824,40.649865 13,40.812099 13,41 c 0,0.554 0.446,1 1,1 l 2,0 c 0.554,0 1,-0.446 1,-1 0,-0.187901 -0.06682,-0.350135 -0.15625,-0.5 C 16.669517,40.791991 16.366099,41 16,41 l -2,0 c -0.366099,0 -0.669517,-0.208009 -0.84375,-0.5 z m 6,0 C 19.066824,40.649865 19,40.812099 19,41 c 0,0.554 0.446,1 1,1 l 2,0 c 0.554,0 1,-0.446 1,-1 0,-0.187901 -0.06682,-0.350135 -0.15625,-0.5 C 22.669517,40.791991 22.366099,41 22,41 l -2,0 c -0.366099,0 -0.669517,-0.208009 -0.84375,-0.5 z m 6,0 C 25.066824,40.649865 25,40.812099 25,41 c 0,0.554 0.446,1 1,1 l 2,0 c 0.554,0 1,-0.446 1,-1 0,-0.187901 -0.06682,-0.350135 -0.15625,-0.5 C 28.669517,40.791991 28.366099,41 28,41 l -2,0 c -0.366099,0 -0.669517,-0.208009 -0.84375,-0.5 z m 10,0 C 35.066824,40.649865 35,40.812099 35,41 c 0,0.554 0.446,1 1,1 l 2,0 c 0.554,0 1,-0.446 1,-1 0,-0.187901 -0.06682,-0.350135 -0.15625,-0.5 C 38.669517,40.791991 38.366099,41 38,41 l -2,0 c -0.366099,0 -0.669517,-0.208009 -0.84375,-0.5 z m 12,0 C 47.066824,40.649865 47,40.812099 47,41 c 0,0.554 0.446,1 1,1 l 2,0 c 0.554,0 1,-0.446 1,-1 0,-0.187901 -0.06682,-0.350135 -0.15625,-0.5 C 50.669517,40.791991 50.366099,41 50,41 l -2,0 c -0.366099,0 -0.669517,-0.208009 -0.84375,-0.5 z m -40,3 C 7.066824,43.649865 7,43.812099 7,44 c 0,0.554 0.446,1 1,1 l 2,0 c 0.554,0 1,-0.446 1,-1 0,-0.187901 -0.06682,-0.350135 -0.15625,-0.5 C 10.669517,43.791991 10.366099,44 10,44 L 8,44 C 7.633901,44 7.330483,43.791991 7.15625,43.5 Z m 6,0 C 13.066824,43.649865 13,43.812099 13,44 c 0,0.554 0.446,1 1,1 l 2,0 c 0.554,0 1,-0.446 1,-1 0,-0.187901 -0.06682,-0.350135 -0.15625,-0.5 C 16.669517,43.791991 16.366099,44 16,44 l -2,0 c -0.366099,0 -0.669517,-0.208009 -0.84375,-0.5 z m 22,0 C 35.066824,43.649865 35,43.812099 35,44 c 0,0.554 0.446,1 1,1 l 2,0 c 0.554,0 1,-0.446 1,-1 0,-0.187901 -0.06682,-0.350135 -0.15625,-0.5 C 38.669517,43.791991 38.366099,44 38,44 l -2,0 c -0.366099,0 -0.669517,-0.208009 -0.84375,-0.5 z m 12,0 C 47.066824,43.649865 47,43.812099 47,44 c 0,0.554 0.446,1 1,1 l 2,0 c 0.554,0 1,-0.446 1,-1 0,-0.187901 -0.06682,-0.350135 -0.15625,-0.5 C 50.669517,43.791991 50.366099,44 50,44 l -2,0 c -0.366099,0 -0.669517,-0.208009 -0.84375,-0.5 z m -40,3 C 7.066824,46.649865 7,46.812099 7,47 c 0,0.554 0.446,1 1,1 l 2,0 c 0.554,0 1,-0.446 1,-1 0,-0.187901 -0.06682,-0.350135 -0.15625,-0.5 C 10.669517,46.791991 10.366099,47 10,47 L 8,47 C 7.633901,47 7.330483,46.791991 7.15625,46.5 Z m 6,0 C 13.066824,46.649865 13,46.812099 13,47 c 0,0.554 0.446,1 1,1 l 2,0 c 0.554,0 1,-0.446 1,-1 0,-0.187901 -0.06682,-0.350135 -0.15625,-0.5 C 16.669517,46.791991 16.366099,47 16,47 l -2,0 c -0.366099,0 -0.669517,-0.208009 -0.84375,-0.5 z m 22,0 C 35.066824,46.649865 35,46.812099 35,47 c 0,0.554 0.446,1 1,1 l 2,0 c 0.554,0 1,-0.446 1,-1 0,-0.187901 -0.06682,-0.350135 -0.15625,-0.5 C 38.669517,46.791991 38.366099,47 38,47 l -2,0 c -0.366099,0 -0.669517,-0.208009 -0.84375,-0.5 z m 12,0 C 47.066824,46.649865 47,46.812099 47,47 c 0,0.554 0.446,1 1,1 l 2,0 c 0.554,0 1,-0.446 1,-1 0,-0.187901 -0.06682,-0.350135 -0.15625,-0.5 C 50.669517,46.791991 50.366099,47 50,47 l -2,0 c -0.366099,0 -0.669517,-0.208009 -0.84375,-0.5 z m -40,3 C 7.066824,49.649865 7,49.812099 7,50 c 0,0.554 0.446,1 1,1 l 2,0 c 0.554,0 1,-0.446 1,-1 0,-0.187901 -0.06682,-0.350135 -0.15625,-0.5 C 10.669517,49.791991 10.366099,50 10,50 L 8,50 C 7.633901,50 7.330483,49.791991 7.15625,49.5 Z m 6,0 C 13.066824,49.649865 13,49.812099 13,50 c 0,0.554 0.446,1 1,1 l 2,0 c 0.554,0 1,-0.446 1,-1 0,-0.187901 -0.06682,-0.350135 -0.15625,-0.5 C 16.669517,49.791991 16.366099,50 16,50 l -2,0 c -0.366099,0 -0.669517,-0.208009 -0.84375,-0.5 z m 22,0 C 35.066824,49.649865 35,49.812099 35,50 c 0,0.554 0.446,1 1,1 l 2,0 c 0.554,0 1,-0.446 1,-1 0,-0.187901 -0.06682,-0.350135 -0.15625,-0.5 C 38.669517,49.791991 38.366099,50 38,50 l -2,0 c -0.366099,0 -0.669517,-0.208009 -0.84375,-0.5 z m 12,0 C 47.066824,49.649865 47,49.812099 47,50 c 0,0.554 0.446,1 1,1 l 2,0 c 0.554,0 1,-0.446 1,-1 0,-0.187901 -0.06682,-0.350135 -0.15625,-0.5 C 50.669517,49.791991 50.366099,50 50,50 l -2,0 c -0.366099,0 -0.669517,-0.208009 -0.84375,-0.5 z m -40,3 C 7.066824,52.649865 7,52.812099 7,53 c 0,0.554 0.446,1 1,1 l 2,0 c 0.554,0 1,-0.446 1,-1 0,-0.187901 -0.06682,-0.350135 -0.15625,-0.5 C 10.669517,52.791991 10.366099,53 10,53 L 8,53 C 7.633901,53 7.330483,52.791991 7.15625,52.5 Z m 6,0 C 13.066824,52.649865 13,52.812099 13,53 c 0,0.554 0.446,1 1,1 l 2,0 c 0.554,0 1,-0.446 1,-1 0,-0.187901 -0.06682,-0.350135 -0.15625,-0.5 C 16.669517,52.791991 16.366099,53 16,53 l -2,0 c -0.366099,0 -0.669517,-0.208009 -0.84375,-0.5 z m 22,0 C 35.066824,52.649865 35,52.812099 35,53 c 0,0.554 0.446,1 1,1 l 2,0 c 0.554,0 1,-0.446 1,-1 0,-0.187901 -0.06682,-0.350135 -0.15625,-0.5 C 38.669517,52.791991 38.366099,53 38,53 l -2,0 c -0.366099,0 -0.669517,-0.208009 -0.84375,-0.5 z m -22,3 C 13.066824,55.649865 13,55.812099 13,56 c 0,0.554 0.446,1 1,1 l 2,0 c 0.554,0 1,-0.446 1,-1 0,-0.187901 -0.06682,-0.350135 -0.15625,-0.5 C 16.669517,55.791991 16.366099,56 16,56 l -2,0 c -0.366099,0 -0.669517,-0.208009 -0.84375,-0.5 z m 22,0 C 35.066824,55.649865 35,55.812099 35,56 c 0,0.554 0.446,1 1,1 l 2,0 c 0.554,0 1,-0.446 1,-1 0,-0.187901 -0.06682,-0.350135 -0.15625,-0.5 C 38.669517,55.791991 38.366099,56 38,56 l -2,0 c -0.366099,0 -0.669517,-0.208009 -0.84375,-0.5 z"
     id="rect25083" />
  <path
     inkscape:connector-curvature="0"
     style="opacity:0.13999999;fill:url(#linearGradient26143);fill-opacity:1;fill-rule:nonzero;stroke:none"
     d="m 36,8.0000004 c -0.554,0 -1,0.446 -1,1 C 35,9.5540004 35.446,10 36,10 l 2,0 c 0.554,0 1,-0.4459996 1,-0.9999996 0,-0.554 -0.446,-1 -1,-1 l -2,0 z M 36,11 c -0.554,0 -1,0.446 -1,1 0,0.554 0.446,1 1,1 l 2,0 c 0.554,0 1,-0.446 1,-1 0,-0.554 -0.446,-1 -1,-1 l -2,0 z m 0,3 c -0.554,0 -1,0.446 -1,1 0,0.554 0.446,1 1,1 l 2,0 c 0.554,0 1,-0.446 1,-1 0,-0.554 -0.446,-1 -1,-1 l -2,0 z m 12,0 c -0.554,0 -1,0.446 -1,1 0,0.554 0.446,1 1,1 l 2,0 c 0.554,0 1,-0.446 1,-1 0,-0.554 -0.446,-1 -1,-1 l -2,0 z m -17,3 c -0.554,0 -1,0.446 -1,1 0,0.554 0.446,1 1,1 l 1,0 c 0.554,0 1,-0.446 1,-1 0,-0.554 -0.446,-1 -1,-1 l -1,0 z m 5,0 c -0.554,0 -1,0.446 -1,1 0,0.554 0.446,1 1,1 l 2,0 c 0.554,0 1,-0.446 1,-1 0,-0.554 -0.446,-1 -1,-1 l -2,0 z m 12,0 c -0.554,0 -1,0.446 -1,1 0,0.554 0.446,1 1,1 l 2,0 c 0.554,0 1,-0.446 1,-1 0,-0.554 -0.446,-1 -1,-1 l -2,0 z m 6,0 c -0.554,0 -1,0.446 -1,1 0,0.554 0.446,1 1,1 l 2,0 c 0.554,0 1,-0.446 1,-1 0,-0.554 -0.446,-1 -1,-1 l -2,0 z m -34,3 c -0.554,0 -1,0.446 -1,1 0,0.554 0.446,1 1,1 l 2,0 c 0.554,0 1,-0.446 1,-1 0,-0.554 -0.446,-1 -1,-1 l -2,0 z m 11,0 c -0.554,0 -1,0.446 -1,1 0,0.554 0.446,1 1,1 l 1,0 c 0.554,0 1,-0.446 1,-1 0,-0.554 -0.446,-1 -1,-1 l -1,0 z m 5,0 c -0.554,0 -1,0.446 -1,1 0,0.554 0.446,1 1,1 l 2,0 c 0.554,0 1,-0.446 1,-1 0,-0.554 -0.446,-1 -1,-1 l -2,0 z m 12,0 c -0.554,0 -1,0.446 -1,1 0,0.554 0.446,1 1,1 l 2,0 c 0.554,0 1,-0.446 1,-1 0,-0.554 -0.446,-1 -1,-1 l -2,0 z m 6,0 c -0.554,0 -1,0.446 -1,1 0,0.554 0.446,1 1,1 l 2,0 c 0.554,0 1,-0.446 1,-1 0,-0.554 -0.446,-1 -1,-1 l -2,0 z M 8,23 c -0.554,0 -1,0.446 -1,1 0,0.554 0.446,1 1,1 l 2,0 c 0.554,0 1,-0.446 1,-1 0,-0.554 -0.446,-1 -1,-1 l -2,0 z m 12,0 c -0.554,0 -1,0.446 -1,1 0,0.554 0.446,1 1,1 l 2,0 c 0.554,0 1,-0.446 1,-1 0,-0.554 -0.446,-1 -1,-1 l -2,0 z m 11,0 c -0.554,0 -1,0.446 -1,1 0,0.554 0.446,1 1,1 l 1,0 c 0.554,0 1,-0.446 1,-1 0,-0.554 -0.446,-1 -1,-1 l -1,0 z m 5,0 c -0.554,0 -1,0.446 -1,1 0,0.554 0.446,1 1,1 l 2,0 c 0.554,0 1,-0.446 1,-1 0,-0.554 -0.446,-1 -1,-1 l -2,0 z m 12,0 c -0.554,0 -1,0.446 -1,1 0,0.554 0.446,1 1,1 l 2,0 c 0.554,0 1,-0.446 1,-1 0,-0.554 -0.446,-1 -1,-1 l -2,0 z m 6,0 c -0.554,0 -1,0.446 -1,1 0,0.554 0.446,1 1,1 l 2,0 c 0.554,0 1,-0.446 1,-1 0,-0.554 -0.446,-1 -1,-1 l -2,0 z M 8,26 c -0.554,0 -1,0.446 -1,1 0,0.554 0.446,1 1,1 l 2,0 c 0.554,0 1,-0.446 1,-1 0,-0.554 -0.446,-1 -1,-1 l -2,0 z m 12,0 c -0.554,0 -1,0.446 -1,1 0,0.554 0.446,1 1,1 l 2,0 c 0.554,0 1,-0.446 1,-1 0,-0.554 -0.446,-1 -1,-1 l -2,0 z m 11,0 c -0.554,0 -1,0.446 -1,1 0,0.554 0.446,1 1,1 l 1,0 c 0.554,0 1,-0.446 1,-1 0,-0.554 -0.446,-1 -1,-1 l -1,0 z m 5,0 c -0.554,0 -1,0.446 -1,1 0,0.554 0.446,1 1,1 l 2,0 c 0.554,0 1,-0.446 1,-1 0,-0.554 -0.446,-1 -1,-1 l -2,0 z m 6,0 c -0.554,0 -1,0.446 -1,1 0,0.554 0.446,1 1,1 l 2,0 c 0.554,0 1,-0.446 1,-1 0,-0.554 -0.446,-1 -1,-1 l -2,0 z m 6,0 c -0.554,0 -1,0.446 -1,1 0,0.554 0.446,1 1,1 l 2,0 c 0.554,0 1,-0.446 1,-1 0,-0.554 -0.446,-1 -1,-1 l -2,0 z m 6,0 c -0.554,0 -1,0.446 -1,1 0,0.554 0.446,1 1,1 l 2,0 c 0.554,0 1,-0.446 1,-1 0,-0.554 -0.446,-1 -1,-1 l -2,0 z M 8,29 c -0.554,0 -1,0.446 -1,1 0,0.554 0.446,1 1,1 l 2,0 c 0.554,0 1,-0.446 1,-1 0,-0.554 -0.446,-1 -1,-1 l -2,0 z m 6,0 c -0.554,0 -1,0.446 -1,1 0,0.554 0.446,1 1,1 l 2,0 c 0.554,0 1,-0.446 1,-1 0,-0.554 -0.446,-1 -1,-1 l -2,0 z m 6,0 c -0.554,0 -1,0.446 -1,1 0,0.554 0.446,1 1,1 l 2,0 c 0.554,0 1,-0.446 1,-1 0,-0.554 -0.446,-1 -1,-1 l -2,0 z m 6,0 c -0.554,0 -1,0.446 -1,1 0,0.554 0.446,1 1,1 l 2,0 c 0.554,0 1,-0.446 1,-1 0,-0.554 -0.446,-1 -1,-1 l -2,0 z m 5,0 c -0.554,0 -1,0.446 -1,1 0,0.554 0.446,1 1,1 l 1,0 c 0.554,0 1,-0.446 1,-1 0,-0.554 -0.446,-1 -1,-1 l -1,0 z m 5,0 c -0.554,0 -1,0.446 -1,1 0,0.554 0.446,1 1,1 l 2,0 c 0.554,0 1,-0.446 1,-1 0,-0.554 -0.446,-1 -1,-1 l -2,0 z m 6,0 c -0.554,0 -1,0.446 -1,1 0,0.554 0.446,1 1,1 l 2,0 c 0.554,0 1,-0.446 1,-1 0,-0.554 -0.446,-1 -1,-1 l -2,0 z m 6,0 c -0.554,0 -1,0.446 -1,1 0,0.554 0.446,1 1,1 l 2,0 c 0.554,0 1,-0.446 1,-1 0,-0.554 -0.446,-1 -1,-1 l -2,0 z m 6,0 c -0.554,0 -1,0.446 -1,1 0,0.554 0.446,1 1,1 l 2,0 c 0.554,0 1,-0.446 1,-1 0,-0.554 -0.446,-1 -1,-1 l -2,0 z M 8,33 c -0.554,0 -1,0.446 -1,1 0,0.554 0.446,1 1,1 l 2,0 c 0.554,0 1,-0.446 1,-1 0,-0.554 -0.446,-1 -1,-1 l -2,0 z m 6,0 c -0.554,0 -1,0.446 -1,1 0,0.554 0.446,1 1,1 l 2,0 c 0.554,0 1,-0.446 1,-1 0,-0.554 -0.446,-1 -1,-1 l -2,0 z m 6,0 c -0.554,0 -1,0.446 -1,1 0,0.554 0.446,1 1,1 l 2,0 c 0.554,0 1,-0.446 1,-1 0,-0.554 -0.446,-1 -1,-1 l -2,0 z m 6,0 c -0.554,0 -1,0.446 -1,1 0,0.554 0.446,1 1,1 l 2,0 c 0.554,0 1,-0.446 1,-1 0,-0.554 -0.446,-1 -1,-1 l -2,0 z m 10,0 c -0.554,0 -1,0.446 -1,1 0,0.554 0.446,1 1,1 l 2,0 c 0.554,0 1,-0.446 1,-1 0,-0.554 -0.446,-1 -1,-1 l -2,0 z m 6,0 c -0.554,0 -1,0.446 -1,1 0,0.554 0.446,1 1,1 l 2,0 c 0.554,0 1,-0.446 1,-1 0,-0.554 -0.446,-1 -1,-1 l -2,0 z m 6,0 c -0.554,0 -1,0.446 -1,1 0,0.554 0.446,1 1,1 l 2,0 c 0.554,0 1,-0.446 1,-1 0,-0.554 -0.446,-1 -1,-1 l -2,0 z m 6,0 c -0.554,0 -1,0.446 -1,1 0,0.554 0.446,1 1,1 l 2,0 c 0.554,0 1,-0.446 1,-1 0,-0.554 -0.446,-1 -1,-1 l -2,0 z M 8,36 c -0.554,0 -1,0.446 -1,1 0,0.554 0.446,1 1,1 l 2,0 c 0.554,0 1,-0.446 1,-1 0,-0.554 -0.446,-1 -1,-1 l -2,0 z m 6,0 c -0.554,0 -1,0.446 -1,1 0,0.554 0.446,1 1,1 l 2,0 c 0.554,0 1,-0.446 1,-1 0,-0.554 -0.446,-1 -1,-1 l -2,0 z m 6,0 c -0.554,0 -1,0.446 -1,1 0,0.554 0.446,1 1,1 l 2,0 c 0.554,0 1,-0.446 1,-1 0,-0.554 -0.446,-1 -1,-1 l -2,0 z m 6,0 c -0.554,0 -1,0.446 -1,1 0,0.554 0.446,1 1,1 l 2,0 c 0.554,0 1,-0.446 1,-1 0,-0.554 -0.446,-1 -1,-1 l -2,0 z m 10,0 c -0.554,0 -1,0.446 -1,1 0,0.554 0.446,1 1,1 l 2,0 c 0.554,0 1,-0.446 1,-1 0,-0.554 -0.446,-1 -1,-1 l -2,0 z m 12,0 c -0.554,0 -1,0.446 -1,1 0,0.554 0.446,1 1,1 l 2,0 c 0.554,0 1,-0.446 1,-1 0,-0.554 -0.446,-1 -1,-1 l -2,0 z M 8,39 c -0.554,0 -1,0.446 -1,1 0,0.554 0.446,1 1,1 l 2,0 c 0.554,0 1,-0.446 1,-1 0,-0.554 -0.446,-1 -1,-1 l -2,0 z m 6,0 c -0.554,0 -1,0.446 -1,1 0,0.554 0.446,1 1,1 l 2,0 c 0.554,0 1,-0.446 1,-1 0,-0.554 -0.446,-1 -1,-1 l -2,0 z m 6,0 c -0.554,0 -1,0.446 -1,1 0,0.554 0.446,1 1,1 l 2,0 c 0.554,0 1,-0.446 1,-1 0,-0.554 -0.446,-1 -1,-1 l -2,0 z m 6,0 c -0.554,0 -1,0.446 -1,1 0,0.554 0.446,1 1,1 l 2,0 c 0.554,0 1,-0.446 1,-1 0,-0.554 -0.446,-1 -1,-1 l -2,0 z m 10,0 c -0.554,0 -1,0.446 -1,1 0,0.554 0.446,1 1,1 l 2,0 c 0.554,0 1,-0.446 1,-1 0,-0.554 -0.446,-1 -1,-1 l -2,0 z m 12,0 c -0.554,0 -1,0.446 -1,1 0,0.554 0.446,1 1,1 l 2,0 c 0.554,0 1,-0.446 1,-1 0,-0.554 -0.446,-1 -1,-1 l -2,0 z M 8,42 c -0.554,0 -1,0.446 -1,1 0,0.554 0.446,1 1,1 l 2,0 c 0.554,0 1,-0.446 1,-1 0,-0.554 -0.446,-1 -1,-1 l -2,0 z m 6,0 c -0.554,0 -1,0.446 -1,1 0,0.554 0.446,1 1,1 l 2,0 c 0.554,0 1,-0.446 1,-1 0,-0.554 -0.446,-1 -1,-1 l -2,0 z m 22,0 c -0.554,0 -1,0.446 -1,1 0,0.554 0.446,1 1,1 l 2,0 c 0.554,0 1,-0.446 1,-1 0,-0.554 -0.446,-1 -1,-1 l -2,0 z m 12,0 c -0.554,0 -1,0.446 -1,1 0,0.554 0.446,1 1,1 l 2,0 c 0.554,0 1,-0.446 1,-1 0,-0.554 -0.446,-1 -1,-1 l -2,0 z M 8,45 c -0.554,0 -1,0.446 -1,1 0,0.554 0.446,1 1,1 l 2,0 c 0.554,0 1,-0.446 1,-1 0,-0.554 -0.446,-1 -1,-1 l -2,0 z m 6,0 c -0.554,0 -1,0.446 -1,1 0,0.554 0.446,1 1,1 l 2,0 c 0.554,0 1,-0.446 1,-1 0,-0.554 -0.446,-1 -1,-1 l -2,0 z m 22,0 c -0.554,0 -1,0.446 -1,1 0,0.554 0.446,1 1,1 l 2,0 c 0.554,0 1,-0.446 1,-1 0,-0.554 -0.446,-1 -1,-1 l -2,0 z m 12,0 c -0.554,0 -1,0.446 -1,1 0,0.554 0.446,1 1,1 l 2,0 c 0.554,0 1,-0.446 1,-1 0,-0.554 -0.446,-1 -1,-1 l -2,0 z M 8,48 c -0.554,0 -1,0.446 -1,1 0,0.554 0.446,1 1,1 l 2,0 c 0.554,0 1,-0.446 1,-1 0,-0.554 -0.446,-1 -1,-1 l -2,0 z m 6,0 c -0.554,0 -1,0.446 -1,1 0,0.554 0.446,1 1,1 l 2,0 c 0.554,0 1,-0.446 1,-1 0,-0.554 -0.446,-1 -1,-1 l -2,0 z m 22,0 c -0.554,0 -1,0.446 -1,1 0,0.554 0.446,1 1,1 l 2,0 c 0.554,0 1,-0.446 1,-1 0,-0.554 -0.446,-1 -1,-1 l -2,0 z m 12,0 c -0.554,0 -1,0.446 -1,1 0,0.554 0.446,1 1,1 l 2,0 c 0.554,0 1,-0.446 1,-1 0,-0.554 -0.446,-1 -1,-1 l -2,0 z M 8,51 c -0.554,0 -1,0.446 -1,1 0,0.554 0.446,1 1,1 l 2,0 c 0.554,0 1,-0.446 1,-1 0,-0.554 -0.446,-1 -1,-1 l -2,0 z m 6,0 c -0.554,0 -1,0.446 -1,1 0,0.554 0.446,1 1,1 l 2,0 c 0.554,0 1,-0.446 1,-1 0,-0.554 -0.446,-1 -1,-1 l -2,0 z m 22,0 c -0.554,0 -1,0.446 -1,1 0,0.554 0.446,1 1,1 l 2,0 c 0.554,0 1,-0.446 1,-1 0,-0.554 -0.446,-1 -1,-1 l -2,0 z m -22,3 c -0.554,0 -1,0.446 -1,1 0,0.554 0.446,1 1,1 l 2,0 c 0.554,0 1,-0.446 1,-1 0,-0.554 -0.446,-1 -1,-1 l -2,0 z m 22,0 c -0.554,0 -1,0.446 -1,1 0,0.554 0.446,1 1,1 l 2,0 c 0.554,0 1,-0.446 1,-1 0,-0.554 -0.446,-1 -1,-1 l -2,0 z"
     id="rect24502" />
  <path
     id="path8222"
     d="M 32,9 C 18.751088,9 8,19.751088 8,33 8,46.248912 18.751088,57 32,57 45.248912,57 56,46.248912 56,33 56,19.751088 45.248912,9 32,9 Z m 0,1 C 44.708472,10 55,20.291528 55,33 55,45.708472 44.708472,56 32,56 19.291528,56 9,45.708472 9,33 9,20.291528 19.291528,10 32,10 Z m 0,7 c -7.761378,0 -14.410063,5.577238 -15.757812,13.220703 -1.34775,7.643465 2.991846,15.159905 10.285156,17.814453 a 0.50005,0.50005 0 1 0 0.341797,-0.939453 C 20.025618,44.604864 15.963884,37.566615 17.228516,30.394531 18.493148,23.222447 24.717275,18 32,18 c 7.282725,0 13.506853,5.222447 14.771484,12.394531 1.264632,7.172084 -2.797102,14.210334 -9.640625,16.701172 a 0.50005,0.50005 0 1 0 0.341797,0.939453 C 44.765966,45.380609 49.105562,37.864168 47.757812,30.220703 46.410064,22.577238 39.761378,17 32,17 Z m 0,8 c -2.209139,0 -4,1.790861 -4,4 l 2.5,0 c 0.277,0 0.5,0.223 0.5,0.5 0,0.277 -0.223,0.5 -0.5,0.5 l -2.5,0 0,1 2.5,0 c 0.277,0 0.5,0.223 0.5,0.5 0,0.277 -0.223,0.5 -0.5,0.5 l -2.5,0 0,1 2.5,0 c 0.277,0 0.5,0.223 0.5,0.5 0,0.277 -0.223,0.5 -0.5,0.5 l -2.5,0 0,1 2.5,0 c 0.277,0 0.5,0.223 0.5,0.5 0,0.277 -0.223,0.5 -0.5,0.5 l -2.5,0 0,1 c 0,2.209139 1.790861,4 4,4 2.209139,0 4,-1.790861 4,-4 l 0,-1 -2.5,0 C 33.223,36 33,35.777 33,35.5 33,35.223 33.223,35 33.5,35 l 2.5,0 0,-1 -2.5,0 C 33.223,34 33,33.777 33,33.5 33,33.223 33.223,33 33.5,33 l 2.5,0 0,-1 -2.5,0 C 33.223,32 33,31.777 33,31.5 33,31.223 33.223,31 33.5,31 l 2.5,0 0,-1 -2.5,0 C 33.223,30 33,29.777 33,29.5 33,29.223 33.223,29 33.5,29 l 2.5,0 c 0,-2.209139 -1.790861,-4 -4,-4 z m -6,11 c -0.552285,0 -1,0.447715 -1,1 0,3.524819 2.610031,6.41897 6,6.90625 L 31,48 c 0,0.552285 0.447715,1 1,1 0.552285,0 1,-0.447715 1,-1 l 0,-4.09375 C 36.389969,43.41897 39,40.524819 39,37 c 0,-0.552285 -0.447715,-1 -1,-1 -0.552285,0 -1,0.447715 -1,1 0,2.761424 -2.238576,5 -5,5 -2.761424,0 -5,-2.238576 -5,-5 0,-0.552285 -0.447715,-1 -1,-1 z"
     style="color:#000000;font-style:normal;font-variant:normal;font-weight:normal;font-stretch:normal;font-size:medium;line-height:normal;font-family:sans-serif;text-indent:0;text-align:start;text-decoration:none;text-decoration-line:none;text-decoration-style:solid;text-decoration-color:#000000;letter-spacing:normal;word-spacing:normal;text-transform:none;direction:ltr;block-progression:tb;writing-mode:lr-tb;baseline-shift:baseline;text-anchor:start;white-space:normal;clip-rule:nonzero;display:inline;overflow:visible;visibility:visible;opacity:0.15;isolation:auto;mix-blend-mode:normal;color-interpolation:sRGB;color-interpolation-filters:linearRGB;solid-color:#000000;solid-opacity:1;fill:#4d0e65;fill-opacity:1;fill-rule:nonzero;stroke:none;stroke-width:1;stroke-linecap:round;stroke-linejoin:miter;stroke-miterlimit:4;stroke-dasharray:none;stroke-dashoffset:0;stroke-opacity:1;color-rendering:auto;image-rendering:auto;shape-rendering:auto;text-rendering:auto;enable-background:accumulate"
     inkscape:connector-curvature="0" />
  <path
     inkscape:connector-curvature="0"
     style="color:#000000;font-style:normal;font-variant:normal;font-weight:normal;font-stretch:normal;font-size:medium;line-height:normal;font-family:sans-serif;text-indent:0;text-align:start;text-decoration:none;text-decoration-line:none;text-decoration-style:solid;text-decoration-color:#000000;letter-spacing:normal;word-spacing:normal;text-transform:none;direction:ltr;block-progression:tb;writing-mode:lr-tb;baseline-shift:baseline;text-anchor:start;white-space:normal;clip-rule:nonzero;display:inline;overflow:visible;visibility:visible;opacity:0.05;isolation:auto;mix-blend-mode:normal;color-interpolation:sRGB;color-interpolation-filters:linearRGB;solid-color:#000000;solid-opacity:1;fill:#4d0e65;fill-opacity:1;fill-rule:nonzero;stroke:#4d0e65;stroke-width:2;stroke-linecap:round;stroke-linejoin:miter;stroke-miterlimit:4;stroke-dasharray:none;stroke-dashoffset:0;stroke-opacity:1;color-rendering:auto;image-rendering:auto;shape-rendering:auto;text-rendering:auto;enable-background:accumulate"
     d="M 32,9 C 18.751088,9 8,19.751088 8,33 8,46.248912 18.751088,57 32,57 45.248912,57 56,46.248912 56,33 56,19.751088 45.248912,9 32,9 Z m 0,1 C 44.708472,10 55,20.291528 55,33 55,45.708472 44.708472,56 32,56 19.291528,56 9,45.708472 9,33 9,20.291528 19.291528,10 32,10 Z m 0,7 c -7.761378,0 -14.410063,5.577238 -15.757812,13.220703 -1.34775,7.643465 2.991846,15.159905 10.285156,17.814453 a 0.50005,0.50005 0 1 0 0.341797,-0.939453 C 20.025618,44.604864 15.963884,37.566615 17.228516,30.394531 18.493148,23.222447 24.717275,18 32,18 c 7.282725,0 13.506853,5.222447 14.771484,12.394531 1.264632,7.172084 -2.797102,14.210334 -9.640625,16.701172 a 0.50005,0.50005 0 1 0 0.341797,0.939453 C 44.765966,45.380609 49.105562,37.864168 47.757812,30.220703 46.410064,22.577238 39.761378,17 32,17 Z m 0,8 c -2.209139,0 -4,1.790861 -4,4 l 2.5,0 c 0.277,0 0.5,0.223 0.5,0.5 0,0.277 -0.223,0.5 -0.5,0.5 l -2.5,0 0,1 2.5,0 c 0.277,0 0.5,0.223 0.5,0.5 0,0.277 -0.223,0.5 -0.5,0.5 l -2.5,0 0,1 2.5,0 c 0.277,0 0.5,0.223 0.5,0.5 0,0.277 -0.223,0.5 -0.5,0.5 l -2.5,0 0,1 2.5,0 c 0.277,0 0.5,0.223 0.5,0.5 0,0.277 -0.223,0.5 -0.5,0.5 l -2.5,0 0,1 c 0,2.209139 1.790861,4 4,4 2.209139,0 4,-1.790861 4,-4 l 0,-1 -2.5,0 C 33.223,36 33,35.777 33,35.5 33,35.223 33.223,35 33.5,35 l 2.5,0 0,-1 -2.5,0 C 33.223,34 33,33.777 33,33.5 33,33.223 33.223,33 33.5,33 l 2.5,0 0,-1 -2.5,0 C 33.223,32 33,31.777 33,31.5 33,31.223 33.223,31 33.5,31 l 2.5,0 0,-1 -2.5,0 C 33.223,30 33,29.777 33,29.5 33,29.223 33.223,29 33.5,29 l 2.5,0 c 0,-2.209139 -1.790861,-4 -4,-4 z m -6,11 c -0.552285,0 -1,0.447715 -1,1 0,3.524819 2.610031,6.41897 6,6.90625 L 31,48 c 0,0.552285 0.447715,1 1,1 0.552285,0 1,-0.447715 1,-1 l 0,-4.09375 C 36.389969,43.41897 39,40.524819 39,37 c 0,-0.552285 -0.447715,-1 -1,-1 -0.552285,0 -1,0.447715 -1,1 0,2.761424 -2.238576,5 -5,5 -2.761424,0 -5,-2.238576 -5,-5 0,-0.552285 -0.447715,-1 -1,-1 z"
     id="path8224" />
  <path
     style="color:#000000;font-style:normal;font-variant:normal;font-weight:normal;font-stretch:normal;font-size:medium;line-height:normal;font-family:sans-serif;text-indent:0;text-align:start;text-decoration:none;text-decoration-line:none;text-decoration-style:solid;text-decoration-color:#000000;letter-spacing:normal;word-spacing:normal;text-transform:none;direction:ltr;block-progression:tb;writing-mode:lr-tb;baseline-shift:baseline;text-anchor:start;white-space:normal;clip-rule:nonzero;display:inline;overflow:visible;visibility:visible;opacity:1;isolation:auto;mix-blend-mode:normal;color-interpolation:sRGB;color-interpolation-filters:linearRGB;solid-color:#000000;solid-opacity:1;fill:url(#linearGradient8430);fill-opacity:1;fill-rule:nonzero;stroke:none;stroke-width:1;stroke-linecap:round;stroke-linejoin:miter;stroke-miterlimit:4;stroke-dasharray:none;stroke-dashoffset:0;stroke-opacity:1;color-rendering:auto;image-rendering:auto;shape-rendering:auto;text-rendering:auto;enable-background:accumulate"
     d="M 32 8 C 18.751088 8 8 18.751088 8 32 C 8 45.248912 18.751088 56 32 56 C 45.248912 56 56 45.248912 56 32 C 56 18.751088 45.248912 8 32 8 z M 32 9 C 44.708472 9 55 19.291528 55 32 C 55 44.708472 44.708472 55 32 55 C 19.291528 55 9 44.708472 9 32 C 9 19.291528 19.291528 9 32 9 z M 32 16 C 24.238622 16 17.589937 21.577238 16.242188 29.220703 C 14.894438 36.864168 19.234034 44.380608 26.527344 47.035156 A 0.50005 0.50005 0 1 0 26.869141 46.095703 C 20.025618 43.604864 15.963884 36.566615 17.228516 29.394531 C 18.493148 22.222447 24.717275 17 32 17 C 39.282725 17 45.506853 22.222447 46.771484 29.394531 C 48.036116 36.566615 43.974382 43.604865 37.130859 46.095703 A 0.50005 0.50005 0 1 0 37.472656 47.035156 C 44.765966 44.380609 49.105562 36.864168 47.757812 29.220703 C 46.410064 21.577238 39.761378 16 32 16 z M 32 24 C 29.790861 24 28 25.790861 28 28 L 30.5 28 C 30.777 28 31 28.223 31 28.5 C 31 28.777 30.777 29 30.5 29 L 28 29 L 28 30 L 30.5 30 C 30.777 30 31 30.223 31 30.5 C 31 30.777 30.777 31 30.5 31 L 28 31 L 28 32 L 30.5 32 C 30.777 32 31 32.223 31 32.5 C 31 32.777 30.777 33 30.5 33 L 28 33 L 28 34 L 30.5 34 C 30.777 34 31 34.223 31 34.5 C 31 34.777 30.777 35 30.5 35 L 28 35 L 28 36 C 28 38.209139 29.790861 40 32 40 C 34.209139 40 36 38.209139 36 36 L 36 35 L 33.5 35 C 33.223 35 33 34.777 33 34.5 C 33 34.223 33.223 34 33.5 34 L 36 34 L 36 33 L 33.5 33 C 33.223 33 33 32.777 33 32.5 C 33 32.223 33.223 32 33.5 32 L 36 32 L 36 31 L 33.5 31 C 33.223 31 33 30.777 33 30.5 C 33 30.223 33.223 30 33.5 30 L 36 30 L 36 29 L 33.5 29 C 33.223 29 33 28.777 33 28.5 C 33 28.223 33.223 28 33.5 28 L 36 28 C 36 25.790861 34.209139 24 32 24 z M 26 35 C 25.447715 35 25 35.447715 25 36 C 25 39.524819 27.610031 42.41897 31 42.90625 L 31 47 C 31 47.552285 31.447715 48 32 48 C 32.552285 48 33 47.552285 33 47 L 33 42.90625 C 36.389969 42.41897 39 39.524819 39 36 C 39 35.447715 38.552285 35 38 35 C 37.447715 35 37 35.447715 37 36 C 37 38.761424 34.761424 41 32 41 C 29.238576 41 27 38.761424 27 36 C 27 35.447715 26.552285 35 26 35 z "
     id="path24148" />
  <g
     transform="translate(0,-988.36218)"
     id="g24378" />
</svg>
