<?xml version="1.0" encoding="UTF-8" standalone="no"?>
<!-- Created with Inkscape (http://www.inkscape.org/) -->

<svg
     xmlns:dc="http://purl.org/dc/elements/1.1/"
     xmlns:cc="http://creativecommons.org/ns#"
     xmlns:rdf="http://www.w3.org/1999/02/22-rdf-syntax-ns#"
     xmlns:svg="http://www.w3.org/2000/svg"
     xmlns="http://www.w3.org/2000/svg"
     xmlns:xlink="http://www.w3.org/1999/xlink"
     xmlns:sodipodi="http://sodipodi.sourceforge.net/DTD/sodipodi-0.dtd"
     xmlns:inkscape="http://www.inkscape.org/namespaces/inkscape"
     width="64"
     height="64"
     id="svg2"
     version="1.1"
     inkscape:version="0.48.1 "
     sodipodi:docname="vocal.svg"
     inkscape:export-filename="C:\Users\Harvey\Dropbox\Designs\elementary Stuff\Icons\Vocal\64\vocal.png"
     inkscape:export-xdpi="90"
     inkscape:export-ydpi="90">
    <defs
         id="defs4">
        <linearGradient
             id="linearGradient25914">
            <stop
                 style="stop-color:#000000;stop-opacity:1;"
                 offset="0"
                 id="stop25916" />
            <stop
                 id="stop25922"
                 offset="0.5"
                 style="stop-color:#000000;stop-opacity:0.25098041;" />
            <stop
                 style="stop-color:#000000;stop-opacity:1;"
                 offset="1"
                 id="stop25918" />
        </linearGradient>
        <linearGradient
             id="linearGradient3671-580-6">
            <stop
                 id="stop4088-6"
                 style="stop-color:#fc93dc;stop-opacity:1"
                 offset="0" />
            <stop
                 id="stop4090-4"
                 style="stop-color:#da72d3;stop-opacity:1"
                 offset="0.26238" />
            <stop
                 id="stop4092-6"
                 style="stop-color:#a33fab;stop-opacity:1"
                 offset="0.704952" />
            <stop
                 id="stop4094-2"
                 style="stop-color:#502b58;stop-opacity:1"
                 offset="1" />
        </linearGradient>
        <linearGradient
             id="linearGradient3707-662-8">
            <stop
                 id="stop4098-9"
                 style="stop-color:#542f57;stop-opacity:1"
                 offset="0" />
            <stop
                 id="stop4100-6"
                 style="stop-color:#bb5ca4;stop-opacity:1"
                 offset="1" />
        </linearGradient>
        <radialGradient
             inkscape:collect="always"
             xlink:href="#linearGradient3671-580-6"
             id="radialGradient20986"
             gradientUnits="userSpaceOnUse"
             gradientTransform="matrix(0,12.890089,-15.824912,0,190.74237,875.2643)"
             cx="7.1448598"
             cy="10.031169"
             fx="7.1448598"
             fy="10.031169"
             r="12.671875" />
        <linearGradient
             inkscape:collect="always"
             xlink:href="#linearGradient3924-2-2-5-8"
             id="linearGradient20983"
             gradientUnits="userSpaceOnUse"
             gradientTransform="matrix(1.4324324,0,0,1.4362832,-2.378381,985.89132)"
             x1="23.99999"
             y1="4.999989"
             x2="23.99999"
             y2="43" />
        <linearGradient
             id="linearGradient3924-2-2-5-8">
            <stop
                 id="stop3926-9-4-9-6"
                 style="stop-color:#ffffff;stop-opacity:1"
                 offset="0" />
            <stop
                 id="stop3928-9-8-6-5"
                 style="stop-color:#ffffff;stop-opacity:0.23529412"
                 offset="0.06316455" />
            <stop
                 id="stop3930-3-5-1-7"
                 style="stop-color:#ffffff;stop-opacity:0.15686275"
                 offset="0.95056331" />
            <stop
                 id="stop3932-8-0-4-8"
                 style="stop-color:#ffffff;stop-opacity:0.39215687"
                 offset="1" />
        </linearGradient>
        <radialGradient
             cx="4.9929786"
             cy="43.5"
             r="2.5"
             fx="4.9929786"
             fy="43.5"
             id="radialGradient3337-2-2"
             xlink:href="#linearGradient3688-166-749-4-0-3-8"
             gradientUnits="userSpaceOnUse"
             gradientTransform="matrix(2.003784,0,0,1.4,27.98813,-17.4)" />
        <linearGradient
             id="linearGradient3688-166-749-4-0-3-8">
            <stop
                 id="stop2883-4-0-1-8"
                 style="stop-color:#181818;stop-opacity:1"
                 offset="0" />
            <stop
                 id="stop2885-9-2-9-6"
                 style="stop-color:#181818;stop-opacity:0"
                 offset="1" />
        </linearGradient>
        <radialGradient
             cx="4.9929786"
             cy="43.5"
             r="2.5"
             fx="4.9929786"
             fy="43.5"
             id="radialGradient3339-1-4"
             xlink:href="#linearGradient3688-464-309-9-2-4-2"
             gradientUnits="userSpaceOnUse"
             gradientTransform="matrix(2.003784,0,0,1.4,-20.01187,-104.4)" />
        <linearGradient
             id="linearGradient3688-464-309-9-2-4-2">
            <stop
                 id="stop2889-7-9-6-9"
                 style="stop-color:#181818;stop-opacity:1"
                 offset="0" />
            <stop
                 id="stop2891-6-6-1-7"
                 style="stop-color:#181818;stop-opacity:0"
                 offset="1" />
        </linearGradient>
        <linearGradient
             id="linearGradient3702-501-757-8-4-1-1">
            <stop
                 id="stop2895-8-9-9-1"
                 style="stop-color:#181818;stop-opacity:0"
                 offset="0" />
            <stop
                 id="stop2897-7-8-7-7"
                 style="stop-color:#181818;stop-opacity:1"
                 offset="0.5" />
            <stop
                 id="stop2899-4-5-1-5"
                 style="stop-color:#181818;stop-opacity:0"
                 offset="1" />
        </linearGradient>
        <linearGradient
             y2="39.999443"
             x2="25.058096"
             y1="47.027729"
             x1="25.058096"
             gradientUnits="userSpaceOnUse"
             id="linearGradient21034"
             xlink:href="#linearGradient3702-501-757-8-4-1-1"
             inkscape:collect="always" />
        <radialGradient
             inkscape:collect="always"
             xlink:href="#linearGradient3671-580-6"
             id="radialGradient24427"
             cx="32"
             cy="1024.3622"
             fx="32"
             fy="1024.3622"
             r="7"
             gradientTransform="matrix(1,0,0,1.7142857,0,-731.68727)"
             gradientUnits="userSpaceOnUse" />
        <linearGradient
             inkscape:collect="always"
             xlink:href="#linearGradient3671-580-6"
             id="linearGradient24444"
             x1="32"
             y1="24"
             x2="32"
             y2="48"
             gradientUnits="userSpaceOnUse" />
        <linearGradient
             inkscape:collect="always"
             xlink:href="#linearGradient3671-580-6"
             id="linearGradient24496"
             x1="19.763831"
             y1="30.5"
             x2="52.036172"
             y2="30.5"
             gradientUnits="userSpaceOnUse" />
        <linearGradient
             inkscape:collect="always"
             xlink:href="#linearGradient3671-580-6"
             id="linearGradient24500"
             gradientUnits="userSpaceOnUse"
             x1="35.900002"
             y1="14.190327"
             x2="35.900002"
             y2="46.809681" />
        <linearGradient
             inkscape:collect="always"
             xlink:href="#linearGradient25914"
             id="linearGradient26143"
             x1="32"
             y1="56"
             x2="32"
             y2="8"
             gradientUnits="userSpaceOnUse" />
        <linearGradient
             inkscape:collect="always"
             xlink:href="#linearGradient3671-580-6"
             id="linearGradient26148"
             gradientUnits="userSpaceOnUse"
             x1="32"
             y1="24"
             x2="32"
             y2="48"
             gradientTransform="translate(0,988.36218)" />
    </defs>
    <sodipodi:namedview
         id="base"
         pagecolor="#ffffff"
         bordercolor="#666666"
         borderopacity="1.0"
         inkscape:pageopacity="0.0"
         inkscape:pageshadow="2"
         inkscape:zoom="1"
         inkscape:cx="28.678148"
         inkscape:cy="51.614565"
         inkscape:document-units="px"
         inkscape:current-layer="layer1"
         showgrid="false"
         inkscape:window-width="1360"
         inkscape:window-height="706"
         inkscape:window-x="-8"
         inkscape:window-y="-8"
         inkscape:window-maximized="1"
         showborder="false">
        <inkscape:grid
             type="xygrid"
             id="grid21877"
             empspacing="12"
             visible="true"
             enabled="true"
             snapvisiblegridlinesonly="true" />
    </sodipodi:namedview>
    <metadata
         id="metadata7">
        <rdf:RDF>
            <cc:Work
                 rdf:about="">
                <dc:format>image/svg+xml</dc:format>
                <dc:type
                     rdf:resource="http://purl.org/dc/dcmitype/StillImage" />
                <dc:title />
            </cc:Work>
        </rdf:RDF>
    </metadata>
    <g
         inkscape:label="Layer 1"
         inkscape:groupmode="layer"
         id="layer1"
         transform="translate(0,-988.36218)">
        <g
             style="opacity:0.6"
             id="g3712-8-2-4-4"
             transform="matrix(1.5789502,0,0,0.7142857,-5.894751,1016.2908)">
            <rect
                 style="fill:url(#radialGradient3337-2-2);fill-opacity:1;stroke:none"
                 id="rect2801-5-5-7-9"
                 y="40"
                 x="38"
                 height="7"
                 width="5" />
            <rect
                 style="fill:url(#radialGradient3339-1-4);fill-opacity:1;stroke:none"
                 id="rect3696-3-0-3-7"
                 transform="scale(-1,-1)"
                 y="-47"
                 x="-10"
                 height="7"
                 width="5" />
            <rect
                 style="fill:url(#linearGradient21034);fill-opacity:1;stroke:none"
                 id="rect3700-5-6-8-4"
                 y="40"
                 x="10"
                 height="7.0000005"
                 width="28" />
        </g>
        <rect
             style="opacity:1;color:#000000;fill:url(#radialGradient20986);fill-opacity:1;fill-rule:nonzero;stroke:none;stroke-width:0.99999994000000003;marker:none;visibility:visible;display:inline;overflow:visible;enable-background:accumulate"
             id="rect5505-21-3-8-5-2"
             y="992.86212"
             x="4.5"
             ry="3"
             rx="3"
             height="55"
             width="55" />
        <path
             style="opacity:0.07000002;fill:#ffffff;fill-opacity:1;fill-rule:nonzero;stroke:none"
             d="M 35.15625 9.5 C 35.066824 9.6498652 35 9.8120987 35 10 C 35 10.554 35.446 11 36 11 L 38 11 C 38.554 11 39 10.554 39 10 C 39 9.8120987 38.933176 9.6498652 38.84375 9.5 C 38.669517 9.7919909 38.366099 10 38 10 L 36 10 C 35.633901 10 35.330483 9.7919909 35.15625 9.5 z M 35.15625 12.5 C 35.066824 12.649865 35 12.812099 35 13 C 35 13.554 35.446 14 36 14 L 38 14 C 38.554 14 39 13.554 39 13 C 39 12.812099 38.933176 12.649865 38.84375 12.5 C 38.669517 12.791991 38.366099 13 38 13 L 36 13 C 35.633901 13 35.330483 12.791991 35.15625 12.5 z M 35.15625 15.5 C 35.066824 15.649865 35 15.812099 35 16 C 35 16.554 35.446 17 36 17 L 38 17 C 38.554 17 39 16.554 39 16 C 39 15.812099 38.933176 15.649865 38.84375 15.5 C 38.669517 15.791991 38.366099 16 38 16 L 36 16 C 35.633901 16 35.330483 15.791991 35.15625 15.5 z M 47.15625 15.5 C 47.066824 15.649865 47 15.812099 47 16 C 47 16.554 47.446 17 48 17 L 50 17 C 50.554 17 51 16.554 51 16 C 51 15.812099 50.933176 15.649865 50.84375 15.5 C 50.669517 15.791991 50.366099 16 50 16 L 48 16 C 47.633901 16 47.330483 15.791991 47.15625 15.5 z M 30.15625 18.5 C 30.066824 18.649865 30 18.812099 30 19 C 30 19.554 30.446 20 31 20 L 32 20 C 32.554 20 33 19.554 33 19 C 33 18.812099 32.933176 18.649865 32.84375 18.5 C 32.669517 18.791991 32.366099 19 32 19 L 31 19 C 30.633901 19 30.330483 18.791991 30.15625 18.5 z M 35.15625 18.5 C 35.066824 18.649865 35 18.812099 35 19 C 35 19.554 35.446 20 36 20 L 38 20 C 38.554 20 39 19.554 39 19 C 39 18.812099 38.933176 18.649865 38.84375 18.5 C 38.669517 18.791991 38.366099 19 38 19 L 36 19 C 35.633901 19 35.330483 18.791991 35.15625 18.5 z M 47.15625 18.5 C 47.066824 18.649865 47 18.812099 47 19 C 47 19.554 47.446 20 48 20 L 50 20 C 50.554 20 51 19.554 51 19 C 51 18.812099 50.933176 18.649865 50.84375 18.5 C 50.669517 18.791991 50.366099 19 50 19 L 48 19 C 47.633901 19 47.330483 18.791991 47.15625 18.5 z M 53.15625 18.5 C 53.066824 18.649865 53 18.812099 53 19 C 53 19.554 53.446 20 54 20 L 56 20 C 56.554 20 57 19.554 57 19 C 57 18.812099 56.933176 18.649865 56.84375 18.5 C 56.669517 18.791991 56.366099 19 56 19 L 54 19 C 53.633901 19 53.330483 18.791991 53.15625 18.5 z M 19.15625 21.5 C 19.066824 21.649865 19 21.812099 19 22 C 19 22.554 19.446 23 20 23 L 22 23 C 22.554 23 23 22.554 23 22 C 23 21.812099 22.933176 21.649865 22.84375 21.5 C 22.669517 21.791991 22.366099 22 22 22 L 20 22 C 19.633901 22 19.330483 21.791991 19.15625 21.5 z M 30.15625 21.5 C 30.066824 21.649865 30 21.812099 30 22 C 30 22.554 30.446 23 31 23 L 32 23 C 32.554 23 33 22.554 33 22 C 33 21.812099 32.933176 21.649865 32.84375 21.5 C 32.669517 21.791991 32.366099 22 32 22 L 31 22 C 30.633901 22 30.330483 21.791991 30.15625 21.5 z M 35.15625 21.5 C 35.066824 21.649865 35 21.812099 35 22 C 35 22.554 35.446 23 36 23 L 38 23 C 38.554 23 39 22.554 39 22 C 39 21.812099 38.933176 21.649865 38.84375 21.5 C 38.669517 21.791991 38.366099 22 38 22 L 36 22 C 35.633901 22 35.330483 21.791991 35.15625 21.5 z M 47.15625 21.5 C 47.066824 21.649865 47 21.812099 47 22 C 47 22.554 47.446 23 48 23 L 50 23 C 50.554 23 51 22.554 51 22 C 51 21.812099 50.933176 21.649865 50.84375 21.5 C 50.669517 21.791991 50.366099 22 50 22 L 48 22 C 47.633901 22 47.330483 21.791991 47.15625 21.5 z M 53.15625 21.5 C 53.066824 21.649865 53 21.812099 53 22 C 53 22.554 53.446 23 54 23 L 56 23 C 56.554 23 57 22.554 57 22 C 57 21.812099 56.933176 21.649865 56.84375 21.5 C 56.669517 21.791991 56.366099 22 56 22 L 54 22 C 53.633901 22 53.330483 21.791991 53.15625 21.5 z M 7.15625 24.5 C 7.0668244 24.649865 7 24.812099 7 25 C 7 25.554 7.446 26 8 26 L 10 26 C 10.554 26 11 25.554 11 25 C 11 24.812099 10.933176 24.649865 10.84375 24.5 C 10.669517 24.791991 10.366099 25 10 25 L 8 25 C 7.6339013 25 7.330483 24.791991 7.15625 24.5 z M 19.15625 24.5 C 19.066824 24.649865 19 24.812099 19 25 C 19 25.554 19.446 26 20 26 L 22 26 C 22.554 26 23 25.554 23 25 C 23 24.812099 22.933176 24.649865 22.84375 24.5 C 22.669517 24.791991 22.366099 25 22 25 L 20 25 C 19.633901 25 19.330483 24.791991 19.15625 24.5 z M 30.15625 24.5 C 30.066824 24.649865 30 24.812099 30 25 C 30 25.554 30.446 26 31 26 L 32 26 C 32.554 26 33 25.554 33 25 C 33 24.812099 32.933176 24.649865 32.84375 24.5 C 32.669517 24.791991 32.366099 25 32 25 L 31 25 C 30.633901 25 30.330483 24.791991 30.15625 24.5 z M 35.15625 24.5 C 35.066824 24.649865 35 24.812099 35 25 C 35 25.554 35.446 26 36 26 L 38 26 C 38.554 26 39 25.554 39 25 C 39 24.812099 38.933176 24.649865 38.84375 24.5 C 38.669517 24.791991 38.366099 25 38 25 L 36 25 C 35.633901 25 35.330483 24.791991 35.15625 24.5 z M 47.15625 24.5 C 47.066824 24.649865 47 24.812099 47 25 C 47 25.554 47.446 26 48 26 L 50 26 C 50.554 26 51 25.554 51 25 C 51 24.812099 50.933176 24.649865 50.84375 24.5 C 50.669517 24.791991 50.366099 25 50 25 L 48 25 C 47.633901 25 47.330483 24.791991 47.15625 24.5 z M 53.15625 24.5 C 53.066824 24.649865 53 24.812099 53 25 C 53 25.554 53.446 26 54 26 L 56 26 C 56.554 26 57 25.554 57 25 C 57 24.812099 56.933176 24.649865 56.84375 24.5 C 56.669517 24.791991 56.366099 25 56 25 L 54 25 C 53.633901 25 53.330483 24.791991 53.15625 24.5 z M 7.15625 27.5 C 7.0668244 27.649865 7 27.812099 7 28 C 7 28.554 7.446 29 8 29 L 10 29 C 10.554 29 11 28.554 11 28 C 11 27.812099 10.933176 27.649865 10.84375 27.5 C 10.669517 27.791991 10.366099 28 10 28 L 8 28 C 7.6339013 28 7.330483 27.791991 7.15625 27.5 z M 19.15625 27.5 C 19.066824 27.649865 19 27.812099 19 28 C 19 28.554 19.446 29 20 29 L 22 29 C 22.554 29 23 28.554 23 28 C 23 27.812099 22.933176 27.649865 22.84375 27.5 C 22.669517 27.791991 22.366099 28 22 28 L 20 28 C 19.633901 28 19.330483 27.791991 19.15625 27.5 z M 30.15625 27.5 C 30.066824 27.649865 30 27.812099 30 28 C 30 28.554 30.446 29 31 29 L 32 29 C 32.554 29 33 28.554 33 28 C 33 27.812099 32.933176 27.649865 32.84375 27.5 C 32.669517 27.791991 32.366099 28 32 28 L 31 28 C 30.633901 28 30.330483 27.791991 30.15625 27.5 z M 35.15625 27.5 C 35.066824 27.649865 35 27.812099 35 28 C 35 28.554 35.446 29 36 29 L 38 29 C 38.554 29 39 28.554 39 28 C 39 27.812099 38.933176 27.649865 38.84375 27.5 C 38.669517 27.791991 38.366099 28 38 28 L 36 28 C 35.633901 28 35.330483 27.791991 35.15625 27.5 z M 41.15625 27.5 C 41.066824 27.649865 41 27.812099 41 28 C 41 28.554 41.446 29 42 29 L 44 29 C 44.554 29 45 28.554 45 28 C 45 27.812099 44.933176 27.649865 44.84375 27.5 C 44.669517 27.791991 44.366099 28 44 28 L 42 28 C 41.633901 28 41.330483 27.791991 41.15625 27.5 z M 47.15625 27.5 C 47.066824 27.649865 47 27.812099 47 28 C 47 28.554 47.446 29 48 29 L 50 29 C 50.554 29 51 28.554 51 28 C 51 27.812099 50.933176 27.649865 50.84375 27.5 C 50.669517 27.791991 50.366099 28 50 28 L 48 28 C 47.633901 28 47.330483 27.791991 47.15625 27.5 z M 53.15625 27.5 C 53.066824 27.649865 53 27.812099 53 28 C 53 28.554 53.446 29 54 29 L 56 29 C 56.554 29 57 28.554 57 28 C 57 27.812099 56.933176 27.649865 56.84375 27.5 C 56.669517 27.791991 56.366099 28 56 28 L 54 28 C 53.633901 28 53.330483 27.791991 53.15625 27.5 z M 7.15625 30.5 C 7.0668244 30.649865 7 30.812099 7 31 C 7 31.554 7.446 32 8 32 L 10 32 C 10.554 32 11 31.554 11 31 C 11 30.812099 10.933176 30.649865 10.84375 30.5 C 10.669517 30.791991 10.366099 31 10 31 L 8 31 C 7.6339013 31 7.330483 30.791991 7.15625 30.5 z M 13.15625 30.5 C 13.066824 30.649865 13 30.812099 13 31 C 13 31.554 13.446 32 14 32 L 16 32 C 16.554 32 17 31.554 17 31 C 17 30.812099 16.933176 30.649865 16.84375 30.5 C 16.669517 30.791991 16.366099 31 16 31 L 14 31 C 13.633901 31 13.330483 30.791991 13.15625 30.5 z M 19.15625 30.5 C 19.066824 30.649865 19 30.812099 19 31 C 19 31.554 19.446 32 20 32 L 22 32 C 22.554 32 23 31.554 23 31 C 23 30.812099 22.933176 30.649865 22.84375 30.5 C 22.669517 30.791991 22.366099 31 22 31 L 20 31 C 19.633901 31 19.330483 30.791991 19.15625 30.5 z M 25.15625 30.5 C 25.066824 30.649865 25 30.812099 25 31 C 25 31.554 25.446 32 26 32 L 28 32 C 28.554 32 29 31.554 29 31 C 29 30.812099 28.933176 30.649865 28.84375 30.5 C 28.669517 30.791991 28.366099 31 28 31 L 26 31 C 25.633901 31 25.330483 30.791991 25.15625 30.5 z M 30.15625 30.5 C 30.066824 30.649865 30 30.812099 30 31 C 30 31.554 30.446 32 31 32 L 32 32 C 32.554 32 33 31.554 33 31 C 33 30.812099 32.933176 30.649865 32.84375 30.5 C 32.669517 30.791991 32.366099 31 32 31 L 31 31 C 30.633901 31 30.330483 30.791991 30.15625 30.5 z M 35.15625 30.5 C 35.066824 30.649865 35 30.812099 35 31 C 35 31.554 35.446 32 36 32 L 38 32 C 38.554 32 39 31.554 39 31 C 39 30.812099 38.933176 30.649865 38.84375 30.5 C 38.669517 30.791991 38.366099 31 38 31 L 36 31 C 35.633901 31 35.330483 30.791991 35.15625 30.5 z M 41.15625 30.5 C 41.066824 30.649865 41 30.812099 41 31 C 41 31.554 41.446 32 42 32 L 44 32 C 44.554 32 45 31.554 45 31 C 45 30.812099 44.933176 30.649865 44.84375 30.5 C 44.669517 30.791991 44.366099 31 44 31 L 42 31 C 41.633901 31 41.330483 30.791991 41.15625 30.5 z M 47.15625 30.5 C 47.066824 30.649865 47 30.812099 47 31 C 47 31.554 47.446 32 48 32 L 50 32 C 50.554 32 51 31.554 51 31 C 51 30.812099 50.933176 30.649865 50.84375 30.5 C 50.669517 30.791991 50.366099 31 50 31 L 48 31 C 47.633901 31 47.330483 30.791991 47.15625 30.5 z M 53.15625 30.5 C 53.066824 30.649865 53 30.812099 53 31 C 53 31.554 53.446 32 54 32 L 56 32 C 56.554 32 57 31.554 57 31 C 57 30.812099 56.933176 30.649865 56.84375 30.5 C 56.669517 30.791991 56.366099 31 56 31 L 54 31 C 53.633901 31 53.330483 30.791991 53.15625 30.5 z M 7.15625 34.5 C 7.0668244 34.649865 7 34.812099 7 35 C 7 35.554 7.446 36 8 36 L 10 36 C 10.554 36 11 35.554 11 35 C 11 34.812099 10.933176 34.649865 10.84375 34.5 C 10.669517 34.791991 10.366099 35 10 35 L 8 35 C 7.6339013 35 7.330483 34.791991 7.15625 34.5 z M 13.15625 34.5 C 13.066824 34.649865 13 34.812099 13 35 C 13 35.554 13.446 36 14 36 L 16 36 C 16.554 36 17 35.554 17 35 C 17 34.812099 16.933176 34.649865 16.84375 34.5 C 16.669517 34.791991 16.366099 35 16 35 L 14 35 C 13.633901 35 13.330483 34.791991 13.15625 34.5 z M 19.15625 34.5 C 19.066824 34.649865 19 34.812099 19 35 C 19 35.554 19.446 36 20 36 L 22 36 C 22.554 36 23 35.554 23 35 C 23 34.812099 22.933176 34.649865 22.84375 34.5 C 22.669517 34.791991 22.366099 35 22 35 L 20 35 C 19.633901 35 19.330483 34.791991 19.15625 34.5 z M 25.15625 34.5 C 25.066824 34.649865 25 34.812099 25 35 C 25 35.554 25.446 36 26 36 L 28 36 C 28.554 36 29 35.554 29 35 C 29 34.812099 28.933176 34.649865 28.84375 34.5 C 28.669517 34.791991 28.366099 35 28 35 L 26 35 C 25.633901 35 25.330483 34.791991 25.15625 34.5 z M 35.15625 34.5 C 35.066824 34.649865 35 34.812099 35 35 C 35 35.554 35.446 36 36 36 L 38 36 C 38.554 36 39 35.554 39 35 C 39 34.812099 38.933176 34.649865 38.84375 34.5 C 38.669517 34.791991 38.366099 35 38 35 L 36 35 C 35.633901 35 35.330483 34.791991 35.15625 34.5 z M 41.15625 34.5 C 41.066824 34.649865 41 34.812099 41 35 C 41 35.554 41.446 36 42 36 L 44 36 C 44.554 36 45 35.554 45 35 C 45 34.812099 44.933176 34.649865 44.84375 34.5 C 44.669517 34.791991 44.366099 35 44 35 L 42 35 C 41.633901 35 41.330483 34.791991 41.15625 34.5 z M 47.15625 34.5 C 47.066824 34.649865 47 34.812099 47 35 C 47 35.554 47.446 36 48 36 L 50 36 C 50.554 36 51 35.554 51 35 C 51 34.812099 50.933176 34.649865 50.84375 34.5 C 50.669517 34.791991 50.366099 35 50 35 L 48 35 C 47.633901 35 47.330483 34.791991 47.15625 34.5 z M 53.15625 34.5 C 53.066824 34.649865 53 34.812099 53 35 C 53 35.554 53.446 36 54 36 L 56 36 C 56.554 36 57 35.554 57 35 C 57 34.812099 56.933176 34.649865 56.84375 34.5 C 56.669517 34.791991 56.366099 35 56 35 L 54 35 C 53.633901 35 53.330483 34.791991 53.15625 34.5 z M 7.15625 37.5 C 7.0668244 37.649865 7 37.812099 7 38 C 7 38.554 7.446 39 8 39 L 10 39 C 10.554 39 11 38.554 11 38 C 11 37.812099 10.933176 37.649865 10.84375 37.5 C 10.669517 37.791991 10.366099 38 10 38 L 8 38 C 7.6339013 38 7.330483 37.791991 7.15625 37.5 z M 13.15625 37.5 C 13.066824 37.649865 13 37.812099 13 38 C 13 38.554 13.446 39 14 39 L 16 39 C 16.554 39 17 38.554 17 38 C 17 37.812099 16.933176 37.649865 16.84375 37.5 C 16.669517 37.791991 16.366099 38 16 38 L 14 38 C 13.633901 38 13.330483 37.791991 13.15625 37.5 z M 19.15625 37.5 C 19.066824 37.649865 19 37.812099 19 38 C 19 38.554 19.446 39 20 39 L 22 39 C 22.554 39 23 38.554 23 38 C 23 37.812099 22.933176 37.649865 22.84375 37.5 C 22.669517 37.791991 22.366099 38 22 38 L 20 38 C 19.633901 38 19.330483 37.791991 19.15625 37.5 z M 25.15625 37.5 C 25.066824 37.649865 25 37.812099 25 38 C 25 38.554 25.446 39 26 39 L 28 39 C 28.554 39 29 38.554 29 38 C 29 37.812099 28.933176 37.649865 28.84375 37.5 C 28.669517 37.791991 28.366099 38 28 38 L 26 38 C 25.633901 38 25.330483 37.791991 25.15625 37.5 z M 35.15625 37.5 C 35.066824 37.649865 35 37.812099 35 38 C 35 38.554 35.446 39 36 39 L 38 39 C 38.554 39 39 38.554 39 38 C 39 37.812099 38.933176 37.649865 38.84375 37.5 C 38.669517 37.791991 38.366099 38 38 38 L 36 38 C 35.633901 38 35.330483 37.791991 35.15625 37.5 z M 47.15625 37.5 C 47.066824 37.649865 47 37.812099 47 38 C 47 38.554 47.446 39 48 39 L 50 39 C 50.554 39 51 38.554 51 38 C 51 37.812099 50.933176 37.649865 50.84375 37.5 C 50.669517 37.791991 50.366099 38 50 38 L 48 38 C 47.633901 38 47.330483 37.791991 47.15625 37.5 z M 7.15625 40.5 C 7.0668244 40.649865 7 40.812099 7 41 C 7 41.554 7.446 42 8 42 L 10 42 C 10.554 42 11 41.554 11 41 C 11 40.812099 10.933176 40.649865 10.84375 40.5 C 10.669517 40.791991 10.366099 41 10 41 L 8 41 C 7.6339013 41 7.330483 40.791991 7.15625 40.5 z M 13.15625 40.5 C 13.066824 40.649865 13 40.812099 13 41 C 13 41.554 13.446 42 14 42 L 16 42 C 16.554 42 17 41.554 17 41 C 17 40.812099 16.933176 40.649865 16.84375 40.5 C 16.669517 40.791991 16.366099 41 16 41 L 14 41 C 13.633901 41 13.330483 40.791991 13.15625 40.5 z M 19.15625 40.5 C 19.066824 40.649865 19 40.812099 19 41 C 19 41.554 19.446 42 20 42 L 22 42 C 22.554 42 23 41.554 23 41 C 23 40.812099 22.933176 40.649865 22.84375 40.5 C 22.669517 40.791991 22.366099 41 22 41 L 20 41 C 19.633901 41 19.330483 40.791991 19.15625 40.5 z M 25.15625 40.5 C 25.066824 40.649865 25 40.812099 25 41 C 25 41.554 25.446 42 26 42 L 28 42 C 28.554 42 29 41.554 29 41 C 29 40.812099 28.933176 40.649865 28.84375 40.5 C 28.669517 40.791991 28.366099 41 28 41 L 26 41 C 25.633901 41 25.330483 40.791991 25.15625 40.5 z M 35.15625 40.5 C 35.066824 40.649865 35 40.812099 35 41 C 35 41.554 35.446 42 36 42 L 38 42 C 38.554 42 39 41.554 39 41 C 39 40.812099 38.933176 40.649865 38.84375 40.5 C 38.669517 40.791991 38.366099 41 38 41 L 36 41 C 35.633901 41 35.330483 40.791991 35.15625 40.5 z M 47.15625 40.5 C 47.066824 40.649865 47 40.812099 47 41 C 47 41.554 47.446 42 48 42 L 50 42 C 50.554 42 51 41.554 51 41 C 51 40.812099 50.933176 40.649865 50.84375 40.5 C 50.669517 40.791991 50.366099 41 50 41 L 48 41 C 47.633901 41 47.330483 40.791991 47.15625 40.5 z M 7.15625 43.5 C 7.0668244 43.649865 7 43.812099 7 44 C 7 44.554 7.446 45 8 45 L 10 45 C 10.554 45 11 44.554 11 44 C 11 43.812099 10.933176 43.649865 10.84375 43.5 C 10.669517 43.791991 10.366099 44 10 44 L 8 44 C 7.6339013 44 7.330483 43.791991 7.15625 43.5 z M 13.15625 43.5 C 13.066824 43.649865 13 43.812099 13 44 C 13 44.554 13.446 45 14 45 L 16 45 C 16.554 45 17 44.554 17 44 C 17 43.812099 16.933176 43.649865 16.84375 43.5 C 16.669517 43.791991 16.366099 44 16 44 L 14 44 C 13.633901 44 13.330483 43.791991 13.15625 43.5 z M 35.15625 43.5 C 35.066824 43.649865 35 43.812099 35 44 C 35 44.554 35.446 45 36 45 L 38 45 C 38.554 45 39 44.554 39 44 C 39 43.812099 38.933176 43.649865 38.84375 43.5 C 38.669517 43.791991 38.366099 44 38 44 L 36 44 C 35.633901 44 35.330483 43.791991 35.15625 43.5 z M 47.15625 43.5 C 47.066824 43.649865 47 43.812099 47 44 C 47 44.554 47.446 45 48 45 L 50 45 C 50.554 45 51 44.554 51 44 C 51 43.812099 50.933176 43.649865 50.84375 43.5 C 50.669517 43.791991 50.366099 44 50 44 L 48 44 C 47.633901 44 47.330483 43.791991 47.15625 43.5 z M 7.15625 46.5 C 7.0668244 46.649865 7 46.812099 7 47 C 7 47.554 7.446 48 8 48 L 10 48 C 10.554 48 11 47.554 11 47 C 11 46.812099 10.933176 46.649865 10.84375 46.5 C 10.669517 46.791991 10.366099 47 10 47 L 8 47 C 7.6339013 47 7.330483 46.791991 7.15625 46.5 z M 13.15625 46.5 C 13.066824 46.649865 13 46.812099 13 47 C 13 47.554 13.446 48 14 48 L 16 48 C 16.554 48 17 47.554 17 47 C 17 46.812099 16.933176 46.649865 16.84375 46.5 C 16.669517 46.791991 16.366099 47 16 47 L 14 47 C 13.633901 47 13.330483 46.791991 13.15625 46.5 z M 35.15625 46.5 C 35.066824 46.649865 35 46.812099 35 47 C 35 47.554 35.446 48 36 48 L 38 48 C 38.554 48 39 47.554 39 47 C 39 46.812099 38.933176 46.649865 38.84375 46.5 C 38.669517 46.791991 38.366099 47 38 47 L 36 47 C 35.633901 47 35.330483 46.791991 35.15625 46.5 z M 47.15625 46.5 C 47.066824 46.649865 47 46.812099 47 47 C 47 47.554 47.446 48 48 48 L 50 48 C 50.554 48 51 47.554 51 47 C 51 46.812099 50.933176 46.649865 50.84375 46.5 C 50.669517 46.791991 50.366099 47 50 47 L 48 47 C 47.633901 47 47.330483 46.791991 47.15625 46.5 z M 7.15625 49.5 C 7.0668244 49.649865 7 49.812099 7 50 C 7 50.554 7.446 51 8 51 L 10 51 C 10.554 51 11 50.554 11 50 C 11 49.812099 10.933176 49.649865 10.84375 49.5 C 10.669517 49.791991 10.366099 50 10 50 L 8 50 C 7.6339013 50 7.330483 49.791991 7.15625 49.5 z M 13.15625 49.5 C 13.066824 49.649865 13 49.812099 13 50 C 13 50.554 13.446 51 14 51 L 16 51 C 16.554 51 17 50.554 17 50 C 17 49.812099 16.933176 49.649865 16.84375 49.5 C 16.669517 49.791991 16.366099 50 16 50 L 14 50 C 13.633901 50 13.330483 49.791991 13.15625 49.5 z M 35.15625 49.5 C 35.066824 49.649865 35 49.812099 35 50 C 35 50.554 35.446 51 36 51 L 38 51 C 38.554 51 39 50.554 39 50 C 39 49.812099 38.933176 49.649865 38.84375 49.5 C 38.669517 49.791991 38.366099 50 38 50 L 36 50 C 35.633901 50 35.330483 49.791991 35.15625 49.5 z M 47.15625 49.5 C 47.066824 49.649865 47 49.812099 47 50 C 47 50.554 47.446 51 48 51 L 50 51 C 50.554 51 51 50.554 51 50 C 51 49.812099 50.933176 49.649865 50.84375 49.5 C 50.669517 49.791991 50.366099 50 50 50 L 48 50 C 47.633901 50 47.330483 49.791991 47.15625 49.5 z M 7.15625 52.5 C 7.0668244 52.649865 7 52.812099 7 53 C 7 53.554 7.446 54 8 54 L 10 54 C 10.554 54 11 53.554 11 53 C 11 52.812099 10.933176 52.649865 10.84375 52.5 C 10.669517 52.791991 10.366099 53 10 53 L 8 53 C 7.6339013 53 7.330483 52.791991 7.15625 52.5 z M 13.15625 52.5 C 13.066824 52.649865 13 52.812099 13 53 C 13 53.554 13.446 54 14 54 L 16 54 C 16.554 54 17 53.554 17 53 C 17 52.812099 16.933176 52.649865 16.84375 52.5 C 16.669517 52.791991 16.366099 53 16 53 L 14 53 C 13.633901 53 13.330483 52.791991 13.15625 52.5 z M 35.15625 52.5 C 35.066824 52.649865 35 52.812099 35 53 C 35 53.554 35.446 54 36 54 L 38 54 C 38.554 54 39 53.554 39 53 C 39 52.812099 38.933176 52.649865 38.84375 52.5 C 38.669517 52.791991 38.366099 53 38 53 L 36 53 C 35.633901 53 35.330483 52.791991 35.15625 52.5 z M 13.15625 55.5 C 13.066824 55.649865 13 55.812099 13 56 C 13 56.554 13.446 57 14 57 L 16 57 C 16.554 57 17 56.554 17 56 C 17 55.812099 16.933176 55.649865 16.84375 55.5 C 16.669517 55.791991 16.366099 56 16 56 L 14 56 C 13.633901 56 13.330483 55.791991 13.15625 55.5 z M 35.15625 55.5 C 35.066824 55.649865 35 55.812099 35 56 C 35 56.554 35.446 57 36 57 L 38 57 C 38.554 57 39 56.554 39 56 C 39 55.812099 38.933176 55.649865 38.84375 55.5 C 38.669517 55.791991 38.366099 56 38 56 L 36 56 C 35.633901 56 35.330483 55.791991 35.15625 55.5 z "
             id="rect25083"
             transform="translate(0,988.36218)" />
        <rect
             style="opacity:0.3;fill:none;stroke:url(#linearGradient20983);stroke-width:1;stroke-linecap:round;stroke-linejoin:round;stroke-miterlimit:4;stroke-opacity:1;stroke-dasharray:none;stroke-dashoffset:0"
             id="rect6741-5-0-2-3"
             y="993.79089"
             x="5.499999"
             ry="2"
             rx="2"
             height="53.142479"
             width="53" />
        <rect
             style="opacity:0.6;color:#000000;fill:none;stroke:#542f57;stroke-width:1;stroke-linecap:round;stroke-linejoin:round;stroke-miterlimit:4;stroke-opacity:1;stroke-dasharray:none;stroke-dashoffset:0;marker:none;visibility:visible;display:inline;overflow:visible;enable-background:accumulate"
             id="rect5505-21-3-8-9-1-1"
             y="4.499999"
             x="-1047.8621"
             ry="3"
             rx="3"
             height="55"
             width="55"
             transform="matrix(0,-1,1,0,0,0)" />
        <path
             style="opacity:0.13999998999999999;fill:url(#linearGradient26143);fill-opacity:1;fill-rule:nonzero;stroke:none"
             d="M 36 8 C 35.446 8 35 8.446 35 9 C 35 9.554 35.446 10 36 10 L 38 10 C 38.554 10 39 9.554 39 9 C 39 8.446 38.554 8 38 8 L 36 8 z M 36 11 C 35.446 11 35 11.446 35 12 C 35 12.554 35.446 13 36 13 L 38 13 C 38.554 13 39 12.554 39 12 C 39 11.446 38.554 11 38 11 L 36 11 z M 36 14 C 35.446 14 35 14.446 35 15 C 35 15.554 35.446 16 36 16 L 38 16 C 38.554 16 39 15.554 39 15 C 39 14.446 38.554 14 38 14 L 36 14 z M 48 14 C 47.446 14 47 14.446 47 15 C 47 15.554 47.446 16 48 16 L 50 16 C 50.554 16 51 15.554 51 15 C 51 14.446 50.554 14 50 14 L 48 14 z M 31 17 C 30.446 17 30 17.446 30 18 C 30 18.554 30.446 19 31 19 L 32 19 C 32.554 19 33 18.554 33 18 C 33 17.446 32.554 17 32 17 L 31 17 z M 36 17 C 35.446 17 35 17.446 35 18 C 35 18.554 35.446 19 36 19 L 38 19 C 38.554 19 39 18.554 39 18 C 39 17.446 38.554 17 38 17 L 36 17 z M 48 17 C 47.446 17 47 17.446 47 18 C 47 18.554 47.446 19 48 19 L 50 19 C 50.554 19 51 18.554 51 18 C 51 17.446 50.554 17 50 17 L 48 17 z M 54 17 C 53.446 17 53 17.446 53 18 C 53 18.554 53.446 19 54 19 L 56 19 C 56.554 19 57 18.554 57 18 C 57 17.446 56.554 17 56 17 L 54 17 z M 20 20 C 19.446 20 19 20.446 19 21 C 19 21.554 19.446 22 20 22 L 22 22 C 22.554 22 23 21.554 23 21 C 23 20.446 22.554 20 22 20 L 20 20 z M 31 20 C 30.446 20 30 20.446 30 21 C 30 21.554 30.446 22 31 22 L 32 22 C 32.554 22 33 21.554 33 21 C 33 20.446 32.554 20 32 20 L 31 20 z M 36 20 C 35.446 20 35 20.446 35 21 C 35 21.554 35.446 22 36 22 L 38 22 C 38.554 22 39 21.554 39 21 C 39 20.446 38.554 20 38 20 L 36 20 z M 48 20 C 47.446 20 47 20.446 47 21 C 47 21.554 47.446 22 48 22 L 50 22 C 50.554 22 51 21.554 51 21 C 51 20.446 50.554 20 50 20 L 48 20 z M 54 20 C 53.446 20 53 20.446 53 21 C 53 21.554 53.446 22 54 22 L 56 22 C 56.554 22 57 21.554 57 21 C 57 20.446 56.554 20 56 20 L 54 20 z M 8 23 C 7.446 23 7 23.446 7 24 C 7 24.554 7.446 25 8 25 L 10 25 C 10.554 25 11 24.554 11 24 C 11 23.446 10.554 23 10 23 L 8 23 z M 20 23 C 19.446 23 19 23.446 19 24 C 19 24.554 19.446 25 20 25 L 22 25 C 22.554 25 23 24.554 23 24 C 23 23.446 22.554 23 22 23 L 20 23 z M 31 23 C 30.446 23 30 23.446 30 24 C 30 24.554 30.446 25 31 25 L 32 25 C 32.554 25 33 24.554 33 24 C 33 23.446 32.554 23 32 23 L 31 23 z M 36 23 C 35.446 23 35 23.446 35 24 C 35 24.554 35.446 25 36 25 L 38 25 C 38.554 25 39 24.554 39 24 C 39 23.446 38.554 23 38 23 L 36 23 z M 48 23 C 47.446 23 47 23.446 47 24 C 47 24.554 47.446 25 48 25 L 50 25 C 50.554 25 51 24.554 51 24 C 51 23.446 50.554 23 50 23 L 48 23 z M 54 23 C 53.446 23 53 23.446 53 24 C 53 24.554 53.446 25 54 25 L 56 25 C 56.554 25 57 24.554 57 24 C 57 23.446 56.554 23 56 23 L 54 23 z M 8 26 C 7.446 26 7 26.446 7 27 C 7 27.554 7.446 28 8 28 L 10 28 C 10.554 28 11 27.554 11 27 C 11 26.446 10.554 26 10 26 L 8 26 z M 20 26 C 19.446 26 19 26.446 19 27 C 19 27.554 19.446 28 20 28 L 22 28 C 22.554 28 23 27.554 23 27 C 23 26.446 22.554 26 22 26 L 20 26 z M 31 26 C 30.446 26 30 26.446 30 27 C 30 27.554 30.446 28 31 28 L 32 28 C 32.554 28 33 27.554 33 27 C 33 26.446 32.554 26 32 26 L 31 26 z M 36 26 C 35.446 26 35 26.446 35 27 C 35 27.554 35.446 28 36 28 L 38 28 C 38.554 28 39 27.554 39 27 C 39 26.446 38.554 26 38 26 L 36 26 z M 42 26 C 41.446 26 41 26.446 41 27 C 41 27.554 41.446 28 42 28 L 44 28 C 44.554 28 45 27.554 45 27 C 45 26.446 44.554 26 44 26 L 42 26 z M 48 26 C 47.446 26 47 26.446 47 27 C 47 27.554 47.446 28 48 28 L 50 28 C 50.554 28 51 27.554 51 27 C 51 26.446 50.554 26 50 26 L 48 26 z M 54 26 C 53.446 26 53 26.446 53 27 C 53 27.554 53.446 28 54 28 L 56 28 C 56.554 28 57 27.554 57 27 C 57 26.446 56.554 26 56 26 L 54 26 z M 8 29 C 7.446 29 7 29.446 7 30 C 7 30.554 7.446 31 8 31 L 10 31 C 10.554 31 11 30.554 11 30 C 11 29.446 10.554 29 10 29 L 8 29 z M 14 29 C 13.446 29 13 29.446 13 30 C 13 30.554 13.446 31 14 31 L 16 31 C 16.554 31 17 30.554 17 30 C 17 29.446 16.554 29 16 29 L 14 29 z M 20 29 C 19.446 29 19 29.446 19 30 C 19 30.554 19.446 31 20 31 L 22 31 C 22.554 31 23 30.554 23 30 C 23 29.446 22.554 29 22 29 L 20 29 z M 26 29 C 25.446 29 25 29.446 25 30 C 25 30.554 25.446 31 26 31 L 28 31 C 28.554 31 29 30.554 29 30 C 29 29.446 28.554 29 28 29 L 26 29 z M 31 29 C 30.446 29 30 29.446 30 30 C 30 30.554 30.446 31 31 31 L 32 31 C 32.554 31 33 30.554 33 30 C 33 29.446 32.554 29 32 29 L 31 29 z M 36 29 C 35.446 29 35 29.446 35 30 C 35 30.554 35.446 31 36 31 L 38 31 C 38.554 31 39 30.554 39 30 C 39 29.446 38.554 29 38 29 L 36 29 z M 42 29 C 41.446 29 41 29.446 41 30 C 41 30.554 41.446 31 42 31 L 44 31 C 44.554 31 45 30.554 45 30 C 45 29.446 44.554 29 44 29 L 42 29 z M 48 29 C 47.446 29 47 29.446 47 30 C 47 30.554 47.446 31 48 31 L 50 31 C 50.554 31 51 30.554 51 30 C 51 29.446 50.554 29 50 29 L 48 29 z M 54 29 C 53.446 29 53 29.446 53 30 C 53 30.554 53.446 31 54 31 L 56 31 C 56.554 31 57 30.554 57 30 C 57 29.446 56.554 29 56 29 L 54 29 z M 8 33 C 7.446 33 7 33.446 7 34 C 7 34.554 7.446 35 8 35 L 10 35 C 10.554 35 11 34.554 11 34 C 11 33.446 10.554 33 10 33 L 8 33 z M 14 33 C 13.446 33 13 33.446 13 34 C 13 34.554 13.446 35 14 35 L 16 35 C 16.554 35 17 34.554 17 34 C 17 33.446 16.554 33 16 33 L 14 33 z M 20 33 C 19.446 33 19 33.446 19 34 C 19 34.554 19.446 35 20 35 L 22 35 C 22.554 35 23 34.554 23 34 C 23 33.446 22.554 33 22 33 L 20 33 z M 26 33 C 25.446 33 25 33.446 25 34 C 25 34.554 25.446 35 26 35 L 28 35 C 28.554 35 29 34.554 29 34 C 29 33.446 28.554 33 28 33 L 26 33 z M 36 33 C 35.446 33 35 33.446 35 34 C 35 34.554 35.446 35 36 35 L 38 35 C 38.554 35 39 34.554 39 34 C 39 33.446 38.554 33 38 33 L 36 33 z M 42 33 C 41.446 33 41 33.446 41 34 C 41 34.554 41.446 35 42 35 L 44 35 C 44.554 35 45 34.554 45 34 C 45 33.446 44.554 33 44 33 L 42 33 z M 48 33 C 47.446 33 47 33.446 47 34 C 47 34.554 47.446 35 48 35 L 50 35 C 50.554 35 51 34.554 51 34 C 51 33.446 50.554 33 50 33 L 48 33 z M 54 33 C 53.446 33 53 33.446 53 34 C 53 34.554 53.446 35 54 35 L 56 35 C 56.554 35 57 34.554 57 34 C 57 33.446 56.554 33 56 33 L 54 33 z M 8 36 C 7.446 36 7 36.446 7 37 C 7 37.554 7.446 38 8 38 L 10 38 C 10.554 38 11 37.554 11 37 C 11 36.446 10.554 36 10 36 L 8 36 z M 14 36 C 13.446 36 13 36.446 13 37 C 13 37.554 13.446 38 14 38 L 16 38 C 16.554 38 17 37.554 17 37 C 17 36.446 16.554 36 16 36 L 14 36 z M 20 36 C 19.446 36 19 36.446 19 37 C 19 37.554 19.446 38 20 38 L 22 38 C 22.554 38 23 37.554 23 37 C 23 36.446 22.554 36 22 36 L 20 36 z M 26 36 C 25.446 36 25 36.446 25 37 C 25 37.554 25.446 38 26 38 L 28 38 C 28.554 38 29 37.554 29 37 C 29 36.446 28.554 36 28 36 L 26 36 z M 36 36 C 35.446 36 35 36.446 35 37 C 35 37.554 35.446 38 36 38 L 38 38 C 38.554 38 39 37.554 39 37 C 39 36.446 38.554 36 38 36 L 36 36 z M 48 36 C 47.446 36 47 36.446 47 37 C 47 37.554 47.446 38 48 38 L 50 38 C 50.554 38 51 37.554 51 37 C 51 36.446 50.554 36 50 36 L 48 36 z M 8 39 C 7.446 39 7 39.446 7 40 C 7 40.554 7.446 41 8 41 L 10 41 C 10.554 41 11 40.554 11 40 C 11 39.446 10.554 39 10 39 L 8 39 z M 14 39 C 13.446 39 13 39.446 13 40 C 13 40.554 13.446 41 14 41 L 16 41 C 16.554 41 17 40.554 17 40 C 17 39.446 16.554 39 16 39 L 14 39 z M 20 39 C 19.446 39 19 39.446 19 40 C 19 40.554 19.446 41 20 41 L 22 41 C 22.554 41 23 40.554 23 40 C 23 39.446 22.554 39 22 39 L 20 39 z M 26 39 C 25.446 39 25 39.446 25 40 C 25 40.554 25.446 41 26 41 L 28 41 C 28.554 41 29 40.554 29 40 C 29 39.446 28.554 39 28 39 L 26 39 z M 36 39 C 35.446 39 35 39.446 35 40 C 35 40.554 35.446 41 36 41 L 38 41 C 38.554 41 39 40.554 39 40 C 39 39.446 38.554 39 38 39 L 36 39 z M 48 39 C 47.446 39 47 39.446 47 40 C 47 40.554 47.446 41 48 41 L 50 41 C 50.554 41 51 40.554 51 40 C 51 39.446 50.554 39 50 39 L 48 39 z M 8 42 C 7.446 42 7 42.446 7 43 C 7 43.554 7.446 44 8 44 L 10 44 C 10.554 44 11 43.554 11 43 C 11 42.446 10.554 42 10 42 L 8 42 z M 14 42 C 13.446 42 13 42.446 13 43 C 13 43.554 13.446 44 14 44 L 16 44 C 16.554 44 17 43.554 17 43 C 17 42.446 16.554 42 16 42 L 14 42 z M 36 42 C 35.446 42 35 42.446 35 43 C 35 43.554 35.446 44 36 44 L 38 44 C 38.554 44 39 43.554 39 43 C 39 42.446 38.554 42 38 42 L 36 42 z M 48 42 C 47.446 42 47 42.446 47 43 C 47 43.554 47.446 44 48 44 L 50 44 C 50.554 44 51 43.554 51 43 C 51 42.446 50.554 42 50 42 L 48 42 z M 8 45 C 7.446 45 7 45.446 7 46 C 7 46.554 7.446 47 8 47 L 10 47 C 10.554 47 11 46.554 11 46 C 11 45.446 10.554 45 10 45 L 8 45 z M 14 45 C 13.446 45 13 45.446 13 46 C 13 46.554 13.446 47 14 47 L 16 47 C 16.554 47 17 46.554 17 46 C 17 45.446 16.554 45 16 45 L 14 45 z M 36 45 C 35.446 45 35 45.446 35 46 C 35 46.554 35.446 47 36 47 L 38 47 C 38.554 47 39 46.554 39 46 C 39 45.446 38.554 45 38 45 L 36 45 z M 48 45 C 47.446 45 47 45.446 47 46 C 47 46.554 47.446 47 48 47 L 50 47 C 50.554 47 51 46.554 51 46 C 51 45.446 50.554 45 50 45 L 48 45 z M 8 48 C 7.446 48 7 48.446 7 49 C 7 49.554 7.446 50 8 50 L 10 50 C 10.554 50 11 49.554 11 49 C 11 48.446 10.554 48 10 48 L 8 48 z M 14 48 C 13.446 48 13 48.446 13 49 C 13 49.554 13.446 50 14 50 L 16 50 C 16.554 50 17 49.554 17 49 C 17 48.446 16.554 48 16 48 L 14 48 z M 36 48 C 35.446 48 35 48.446 35 49 C 35 49.554 35.446 50 36 50 L 38 50 C 38.554 50 39 49.554 39 49 C 39 48.446 38.554 48 38 48 L 36 48 z M 48 48 C 47.446 48 47 48.446 47 49 C 47 49.554 47.446 50 48 50 L 50 50 C 50.554 50 51 49.554 51 49 C 51 48.446 50.554 48 50 48 L 48 48 z M 8 51 C 7.446 51 7 51.446 7 52 C 7 52.554 7.446 53 8 53 L 10 53 C 10.554 53 11 52.554 11 52 C 11 51.446 10.554 51 10 51 L 8 51 z M 14 51 C 13.446 51 13 51.446 13 52 C 13 52.554 13.446 53 14 53 L 16 53 C 16.554 53 17 52.554 17 52 C 17 51.446 16.554 51 16 51 L 14 51 z M 36 51 C 35.446 51 35 51.446 35 52 C 35 52.554 35.446 53 36 53 L 38 53 C 38.554 53 39 52.554 39 52 C 39 51.446 38.554 51 38 51 L 36 51 z M 14 54 C 13.446 54 13 54.446 13 55 C 13 55.554 13.446 56 14 56 L 16 56 C 16.554 56 17 55.554 17 55 C 17 54.446 16.554 54 16 54 L 14 54 z M 36 54 C 35.446 54 35 54.446 35 55 C 35 55.554 35.446 56 36 56 L 38 56 C 38.554 56 39 55.554 39 55 C 39 54.446 38.554 54 38 54 L 36 54 z "
             transform="translate(0,988.36218)"
             id="rect24502" />
        <g
             id="g24285"
             style="opacity:0.75">
            <path
                 transform="matrix(1.6772152,0,0,1.6772152,-28.212028,969.20712)"
                 d="m 51.700002,30.5 c 0,8.726099 -7.073901,15.8 -15.8,15.8 -8.7261,0 -15.800001,-7.073901 -15.800001,-15.8 0,-8.726099 7.073901,-15.8 15.800001,-15.8 8.726099,0 15.8,7.073901 15.8,15.8 z"
                 sodipodi:ry="15.8"
                 sodipodi:rx="15.8"
                 sodipodi:cy="30.5"
                 sodipodi:cx="35.900002"
                 id="path24234"
                 style="opacity:0.03000000000000000;fill:none;stroke:#000000;stroke-width:0.59622638999999999;stroke-miterlimit:4;stroke-opacity:1;stroke-dasharray:none;stroke-linecap:round"
                 sodipodi:type="arc" />
            <path
                 sodipodi:open="true"
                 sodipodi:end="7.5049158"
                 sodipodi:start="1.9198622"
                 transform="matrix(0.98101265,0,0,0.98101265,-3.2183556,990.44124)"
                 d="M 30.496083,45.347143 C 22.296232,42.362642 18.068356,33.295932 21.052858,25.096081 24.03736,16.89623 33.104069,12.668355 41.30392,15.652857 c 8.199851,2.984501 12.427727,12.051211 9.443225,20.251062 -1.59736,4.38871 -5.054515,7.845865 -9.443225,9.443225"
                 sodipodi:ry="15.8"
                 sodipodi:rx="15.8"
                 sodipodi:cy="30.5"
                 sodipodi:cx="35.900002"
                 id="path24148"
                 style="fill:none;stroke:#ffffff;stroke-width:1.01935482000000000;stroke-miterlimit:4;stroke-opacity:1;stroke-dasharray:none;stroke-linecap:round"
                 sodipodi:type="arc" />
            <path
                 sodipodi:type="arc"
                 style="fill:none;stroke:#ffffff;stroke-width:0.67234039000000001;stroke-miterlimit:4;stroke-opacity:1;stroke-dasharray:none"
                 id="path24150"
                 sodipodi:cx="35.900002"
                 sodipodi:cy="30.5"
                 sodipodi:rx="15.8"
                 sodipodi:ry="15.8"
                 d="m 51.700002,30.5 c 0,8.726099 -7.073901,15.8 -15.8,15.8 -8.7261,0 -15.800001,-7.073901 -15.800001,-15.8 0,-8.726099 7.073901,-15.8 15.800001,-15.8 8.726099,0 15.8,7.073901 15.8,15.8 z"
                 transform="matrix(1.4873418,0,0,1.4873418,-21.395573,974.9982)" />
            <path
                 sodipodi:type="arc"
                 style="opacity:0.06000000000000000;fill:none;stroke:#000000;stroke-width:0.61960780999999998;stroke-miterlimit:4;stroke-opacity:1;stroke-dasharray:none;stroke-linecap:round"
                 id="path24232"
                 sodipodi:cx="35.900002"
                 sodipodi:cy="30.5"
                 sodipodi:rx="15.8"
                 sodipodi:ry="15.8"
                 d="m 51.700002,30.5 c 0,8.726099 -7.073901,15.8 -15.8,15.8 -8.7261,0 -15.800001,-7.073901 -15.800001,-15.8 0,-8.726099 7.073901,-15.8 15.800001,-15.8 8.726099,0 15.8,7.073901 15.8,15.8 z"
                 transform="matrix(1.613924,0,0,1.613924,-25.939875,971.1375)" />
            <path
                 transform="matrix(1.5506329,0,0,1.5506329,-23.667723,973.06788)"
                 d="m 51.700002,30.5 c 0,8.726099 -7.073901,15.8 -15.8,15.8 -8.7261,0 -15.800001,-7.073901 -15.800001,-15.8 0,-8.726099 7.073901,-15.8 15.800001,-15.8 8.726099,0 15.8,7.073901 15.8,15.8 z"
                 sodipodi:ry="15.8"
                 sodipodi:rx="15.8"
                 sodipodi:cy="30.5"
                 sodipodi:cx="35.900002"
                 id="path24230"
                 style="fill:none;stroke:#000000;stroke-width:0.64489794000000000;stroke-miterlimit:4;stroke-opacity:1;stroke-dasharray:none;opacity:0.12000000000000000;stroke-linecap:round"
                 sodipodi:type="arc" />
            <path
                 sodipodi:type="arc"
                 style="opacity:0.12000000000000000;fill:none;stroke:#000000;stroke-width:0.70222222999999995;stroke-miterlimit:4;stroke-opacity:1;stroke-dasharray:none;stroke-linecap:round"
                 id="path24236"
                 sodipodi:cx="35.900002"
                 sodipodi:cy="30.5"
                 sodipodi:rx="15.8"
                 sodipodi:ry="15.8"
                 d="m 51.700002,30.5 c 0,8.726099 -7.073901,15.8 -15.8,15.8 -8.7261,0 -15.800001,-7.073901 -15.800001,-15.8 0,-8.726099 7.073901,-15.8 15.800001,-15.8 8.726099,0 15.8,7.073901 15.8,15.8 z"
                 transform="matrix(1.4240506,0,0,1.4240506,-19.123419,976.92864)" />
            <path
                 transform="matrix(1.3607595,0,0,1.3607595,-16.851268,978.85901)"
                 d="m 51.700002,30.5 c 0,8.726099 -7.073901,15.8 -15.8,15.8 -8.7261,0 -15.800001,-7.073901 -15.800001,-15.8 0,-8.726099 7.073901,-15.8 15.800001,-15.8 8.726099,0 15.8,7.073901 15.8,15.8 z"
                 sodipodi:ry="15.8"
                 sodipodi:rx="15.8"
                 sodipodi:cy="30.5"
                 sodipodi:cx="35.900002"
                 id="path24238"
                 style="opacity:0.06000000000000000;fill:none;stroke:#000000;stroke-width:0.73488366999999999;stroke-miterlimit:4;stroke-opacity:1;stroke-dasharray:none;stroke-linecap:round"
                 sodipodi:type="arc" />
            <path
                 sodipodi:open="true"
                 sodipodi:end="7.5049158"
                 sodipodi:start="1.9198622"
                 transform="matrix(1.1708861,0,0,1.1708861,-10.034812,984.65016)"
                 d="M 30.496083,45.347143 C 22.296232,42.362642 18.068356,33.295932 21.052858,25.096081 24.03736,16.89623 33.104069,12.668355 41.30392,15.652857 c 8.199851,2.984501 12.427727,12.051211 9.443225,20.251062 -1.59736,4.38871 -5.054515,7.845865 -9.443225,9.443225"
                 sodipodi:ry="15.8"
                 sodipodi:rx="15.8"
                 sodipodi:cy="30.5"
                 sodipodi:cx="35.900002"
                 id="path24250"
                 style="opacity:0.02999998000000000;fill:none;stroke:#000000;stroke-width:0.85405403000000002;stroke-linecap:round;stroke-miterlimit:4;stroke-opacity:1;stroke-dasharray:none"
                 sodipodi:type="arc" />
            <path
                 sodipodi:open="true"
                 sodipodi:end="7.5049158"
                 sodipodi:start="1.9198622"
                 sodipodi:type="arc"
                 style="opacity:0.06000001000000000;fill:none;stroke:#000000;stroke-width:0.90285711999999996;stroke-linecap:round;stroke-miterlimit:4;stroke-opacity:1;stroke-dasharray:none"
                 id="path24246"
                 sodipodi:cx="35.900002"
                 sodipodi:cy="30.5"
                 sodipodi:rx="15.8"
                 sodipodi:ry="15.8"
                 d="M 30.496083,45.347143 C 22.296232,42.362642 18.068356,33.295932 21.052858,25.096081 24.03736,16.89623 33.104069,12.668355 41.30392,15.652857 c 8.199851,2.984501 12.427727,12.051211 9.443225,20.251062 -1.59736,4.38871 -5.054515,7.845865 -9.443225,9.443225"
                 transform="matrix(1.1075949,0,0,1.1075949,-7.7626598,986.58054)" />
            <path
                 sodipodi:type="arc"
                 style="opacity:0.03000000000000000;fill:none;stroke:#000000;stroke-width:0.77073168999999986;stroke-miterlimit:4;stroke-opacity:1;stroke-dasharray:none;stroke-linecap:round"
                 id="path24240"
                 sodipodi:cx="35.900002"
                 sodipodi:cy="30.5"
                 sodipodi:rx="15.8"
                 sodipodi:ry="15.8"
                 d="m 51.700002,30.5 c 0,8.726099 -7.073901,15.8 -15.8,15.8 -8.7261,0 -15.800001,-7.073901 -15.800001,-15.8 0,-8.726099 7.073901,-15.8 15.800001,-15.8 8.726099,0 15.8,7.073901 15.8,15.8 z"
                 transform="matrix(1.2974683,0,0,1.2974683,-14.579115,980.7894)" />
            <path
                 sodipodi:open="true"
                 sodipodi:end="7.5049158"
                 sodipodi:start="1.9198622"
                 transform="matrix(1.0443038,0,0,1.0443038,-5.4905078,988.51091)"
                 d="M 30.496083,45.347143 C 22.296232,42.362642 18.068356,33.295932 21.052858,25.096081 24.03736,16.89623 33.104069,12.668355 41.30392,15.652857 c 8.199851,2.984501 12.427727,12.051211 9.443225,20.251062 -1.59736,4.38871 -5.054515,7.845865 -9.443225,9.443225"
                 sodipodi:ry="15.8"
                 sodipodi:rx="15.8"
                 sodipodi:cy="30.5"
                 sodipodi:cx="35.900002"
                 id="path24242"
                 style="opacity:0.12000002000000000;fill:none;stroke:#000000;stroke-width:0.95757574000000001;stroke-miterlimit:4;stroke-opacity:1;stroke-dasharray:none;stroke-linecap:round"
                 sodipodi:type="arc" />
            <path
                 sodipodi:open="true"
                 sodipodi:end="7.5049158"
                 sodipodi:start="1.9198622"
                 sodipodi:type="arc"
                 style="opacity:0.12000002000000000;fill:none;stroke:#000000;stroke-width:1.08965516000000000;stroke-miterlimit:4;stroke-opacity:1;stroke-dasharray:none;stroke-linecap:round"
                 id="path24252"
                 sodipodi:cx="35.900002"
                 sodipodi:cy="30.5"
                 sodipodi:rx="15.8"
                 sodipodi:ry="15.8"
                 d="M 30.496083,45.347143 C 22.296232,42.362642 18.068356,33.295932 21.052858,25.096081 24.03736,16.89623 33.104069,12.668355 41.30392,15.652857 c 8.199851,2.984501 12.427727,12.051211 9.443225,20.251062 -1.59736,4.38871 -5.054515,7.845865 -9.443225,9.443225"
                 transform="matrix(0.91772151,0,0,0.91772151,-0.94620359,992.37167)" />
            <path
                 sodipodi:open="true"
                 sodipodi:end="7.5049158"
                 sodipodi:start="1.9198622"
                 transform="matrix(0.85443037,0,0,0.85443037,1.3259484,994.30205)"
                 d="M 30.496083,45.347143 C 22.296232,42.362642 18.068356,33.295932 21.052858,25.096081 24.03736,16.89623 33.104069,12.668355 41.30392,15.652857 c 8.199851,2.984501 12.427727,12.051211 9.443225,20.251062 -1.59736,4.38871 -5.054515,7.845865 -9.443225,9.443225"
                 sodipodi:ry="15.8"
                 sodipodi:rx="15.8"
                 sodipodi:cy="30.5"
                 sodipodi:cx="35.900002"
                 id="path24254"
                 style="opacity:0.06000001000000000;fill:none;stroke:#000000;stroke-width:1.17037034000000010;stroke-miterlimit:4;stroke-opacity:1;stroke-dasharray:none;stroke-linecap:round"
                 sodipodi:type="arc" />
            <path
                 sodipodi:open="true"
                 sodipodi:end="7.5049158"
                 sodipodi:start="1.9198622"
                 sodipodi:type="arc"
                 style="opacity:0.02999998000000000;fill:none;stroke:#000000;stroke-width:1.26399993999999990;stroke-miterlimit:4;stroke-opacity:1;stroke-dasharray:none;stroke-linecap:round"
                 id="path24256"
                 sodipodi:cx="35.900002"
                 sodipodi:cy="30.5"
                 sodipodi:rx="15.8"
                 sodipodi:ry="15.8"
                 d="M 30.496083,45.347143 C 22.296232,42.362642 18.068356,33.295932 21.052858,25.096081 24.03736,16.89623 33.104069,12.668355 41.30392,15.652857 c 8.199851,2.984501 12.427727,12.051211 9.443225,20.251062 -1.59736,4.38871 -5.054515,7.845865 -9.443225,9.443225"
                 transform="matrix(0.79113923,0,0,0.79113923,3.5981004,996.23243)" />
            <path
                 transform="matrix(0,1.4873418,-1.4873418,0,77.363925,966.96655)"
                 d="m 51.700002,30.5 c 0,8.726099 -7.073901,15.8 -15.8,15.8 -8.7261,0 -15.800001,-7.073901 -15.800001,-15.8 0,-8.726099 7.073901,-15.8 15.800001,-15.8 8.726099,0 15.8,7.073901 15.8,15.8 z"
                 sodipodi:ry="15.8"
                 sodipodi:rx="15.8"
                 sodipodi:cy="30.5"
                 sodipodi:cx="35.900002"
                 id="path24492"
                 style="fill:none;stroke:url(#linearGradient24496);stroke-width:0.67234039000000001;stroke-miterlimit:4;stroke-opacity:1;stroke-dasharray:none;opacity:0.25000000000000000"
                 sodipodi:type="arc" />
            <path
                 sodipodi:type="arc"
                 style="opacity:0.25000000000000000;fill:none;stroke:url(#linearGradient24500);stroke-width:1.01935482000000000;stroke-miterlimit:4;stroke-opacity:1;stroke-dasharray:none;stroke-linecap:round"
                 id="path24498"
                 sodipodi:cx="35.900002"
                 sodipodi:cy="30.5"
                 sodipodi:rx="15.8"
                 sodipodi:ry="15.8"
                 d="M 30.496083,45.347143 C 22.296232,42.362642 18.068356,33.295932 21.052858,25.096081 24.03736,16.89623 33.104069,12.668355 41.30392,15.652857 c 8.199851,2.984501 12.427727,12.051211 9.443225,20.251062 -1.59736,4.38871 -5.054515,7.845865 -9.443225,9.443225"
                 transform="matrix(0.98101265,0,0,0.98101265,-3.2183556,990.44129)"
                 sodipodi:start="1.9198622"
                 sodipodi:end="7.5049158"
                 sodipodi:open="true" />
        </g>
        <g
             id="g26159">
            <path
                 id="path24387"
                 transform="translate(0,988.36218)"
                 d="M 32 21 C 28.134007 21 25 24.134 25 28 L 25 32.15625 C 23.275691 32.60095 22 34.1368 22 36 C 22 40.1076 24.458556 43.6485 28 45.1875 L 28 47 C 28 49.2091 29.790861 51 32 51 C 34.209139 51 36 49.2091 36 47 L 36 45.1875 C 39.541444 43.6485 42 40.1076 42 36 C 42 34.1368 40.724309 32.60095 39 32.15625 L 39 28 C 39 24.134 35.865993 21 32 21 z M 32 22 C 35.313708 22 38 24.6863 38 28 L 38 33 C 39.656854 33 41 34.3431 41 36 C 41 39.9185 38.495333 43.23315 35 44.46875 L 35 47 C 35 48.6568 33.656854 50 32 50 C 30.343146 50 29 48.6568 29 47 L 29 44.46875 C 25.504667 43.23315 23 39.9185 23 36 C 23 34.3431 24.343146 33 26 33 L 26 28 C 26 24.6863 28.686292 22 32 22 z M 32 23 C 29.238576 23 27 25.2386 27 28 L 27 34.28125 C 26.705456 34.11055 26.364965 34 26 34 C 24.895431 34 24 34.8954 24 36 C 24 36.1381 24.004608 36.27605 24.03125 36.40625 C 24.211239 39.95185 26.681049 42.8943 30 43.75 L 30 47 C 30 48.1045 30.895431 49 32 49 C 33.104569 49 34 48.1045 34 47 L 34 43.75 C 37.318951 42.8943 39.788761 39.95185 39.96875 36.40625 C 39.9954 36.27605 40 36.1381 40 36 C 40 34.8954 39.104569 34 38 34 C 37.635035 34 37.294544 34.11055 37 34.28125 L 37 28 C 37 25.2386 34.761424 23 32 23 z "
                 style="opacity:0.02999998;fill:#000000;fill-opacity:1;fill-rule:nonzero;stroke:none" />
            <path
                 id="path24330"
                 d="m 32,1010.3622 c -3.313708,0 -6,2.6863 -6,6 l 0,5 c -1.656854,0 -3,1.3431 -3,3 0,3.9185 2.504667,7.2331 6,8.4687 l 0,2.5313 c 0,1.6568 1.343146,3 3,3 1.656854,0 3,-1.3432 3,-3 l 0,-2.5313 c 3.495333,-1.2356 6,-4.5502 6,-8.4687 0,-1.6569 -1.343146,-3 -3,-3 l 0,-5 c 0,-3.3137 -2.686292,-6 -6,-6 z m 0,1 c 2.761424,0 5,2.2386 5,5 l 0,6.2812 c 0.294544,-0.1707 0.635035,-0.2812 1,-0.2812 1.104569,0 2,0.8954 2,2 0,0.1381 -0.0046,0.276 -0.03125,0.4062 -0.179989,3.5456 -2.649799,6.4881 -5.96875,7.3438 l 0,3.25 c 0,1.1045 -0.895431,2 -2,2 -1.104569,0 -2,-0.8955 -2,-2 l 0,-3.25 c -3.318951,-0.8557 -5.788761,-3.7982 -5.96875,-7.3438 C 24.004608,1024.6382 24,1024.5003 24,1024.3622 c 0,-1.1046 0.895431,-2 2,-2 0.364965,0 0.705456,0.1105 1,0.2812 l 0,-6.2812 c 0,-2.7614 2.238576,-5 5,-5 z"
                 style="opacity:0.06000001;fill:#000000;fill-opacity:1;fill-rule:nonzero;stroke:none"
                 inkscape:connector-curvature="0" />
            <path
                 id="path24307"
                 d="m 32,1011.3622 c -2.761424,0 -5,2.2386 -5,5 l 0,6.2812 c -0.294544,-0.1707 -0.635035,-0.2812 -1,-0.2812 -1.104569,0 -2,0.8954 -2,2 0,0.1381 0.0046,0.276 0.03125,0.4062 0.179989,3.5456 2.649799,6.4881 5.96875,7.3438 l 0,3.25 c 0,1.1045 0.895431,2 2,2 1.104569,0 2,-0.8955 2,-2 l 0,-3.25 c 3.318951,-0.8557 5.788761,-3.7982 5.96875,-7.3438 0.02664,-0.1302 0.03125,-0.2681 0.03125,-0.4062 0,-1.1046 -0.895431,-2 -2,-2 -0.364965,0 -0.705456,0.1105 -1,0.2812 l 0,-6.2812 c 0,-2.7614 -2.238576,-5 -5,-5 z"
                 style="opacity:0.12000002;fill:#000000;fill-opacity:1;fill-rule:nonzero;stroke:none"
                 inkscape:connector-curvature="0" />
            <g
                 id="g24378">
                <path
                     style="fill:#ffffff;fill-opacity:1;fill-rule:nonzero;stroke:none"
                     d="m 32,24 c -2.209139,0 -4,1.790861 -4,4 l 2.5,0 c 0.277,0 0.5,0.223 0.5,0.5 0,0.277 -0.223,0.5 -0.5,0.5 l -2.5,0 0,1 2.5,0 c 0.277,0 0.5,0.223 0.5,0.5 0,0.277 -0.223,0.5 -0.5,0.5 l -2.5,0 0,1 2.5,0 c 0.277,0 0.5,0.223 0.5,0.5 0,0.277 -0.223,0.5 -0.5,0.5 l -2.5,0 0,1 2.5,0 c 0.277,0 0.5,0.223 0.5,0.5 0,0.277 -0.223,0.5 -0.5,0.5 l -2.5,0 0,1 c 0,2.209139 1.790861,4 4,4 2.209139,0 4,-1.790861 4,-4 l 0,-1 -2.5,0 C 33.223,35 33,34.777 33,34.5 33,34.223 33.223,34 33.5,34 l 2.5,0 0,-1 -2.5,0 C 33.223,33 33,32.777 33,32.5 33,32.223 33.223,32 33.5,32 l 2.5,0 0,-1 -2.5,0 C 33.223,31 33,30.777 33,30.5 33,30.223 33.223,30 33.5,30 l 2.5,0 0,-1 -2.5,0 C 33.223,29 33,28.777 33,28.5 33,28.223 33.223,28 33.5,28 l 2.5,0 c 0,-2.209139 -1.790861,-4 -4,-4 z"
                     transform="translate(0,988.36218)"
                     id="path24142"
                     inkscape:connector-curvature="0" />
                <path
                     style="fill:#ffffff;fill-opacity:1;fill-rule:nonzero;stroke:none"
                     d="m 26,35 c -0.552285,0 -1,0.447715 -1,1 0,3.524819 2.610031,6.41897 6,6.90625 L 31,47 c 0,0.552285 0.447715,1 1,1 0.552285,0 1,-0.447715 1,-1 l 0,-4.09375 C 36.389969,42.41897 39,39.524819 39,36 c 0,-0.552285 -0.447715,-1 -1,-1 -0.552285,0 -1,0.447715 -1,1 0,2.761424 -2.238576,5 -5,5 -2.761424,0 -5,-2.238576 -5,-5 0,-0.552285 -0.447715,-1 -1,-1 z"
                     transform="translate(0,988.36218)"
                     id="path24200"
                     inkscape:connector-curvature="0" />
            </g>
            <path
                 id="path24419"
                 d="m 32,1012.3622 c -2.209139,0 -4,1.7908 -4,4 l 2.5,0 c 0.277,0 0.5,0.223 0.5,0.5 0,0.277 -0.223,0.5 -0.5,0.5 l -2.5,0 0,1 2.5,0 c 0.277,0 0.5,0.223 0.5,0.5 0,0.277 -0.223,0.5 -0.5,0.5 l -2.5,0 0,1 2.5,0 c 0.277,0 0.5,0.223 0.5,0.5 0,0.277 -0.223,0.5 -0.5,0.5 l -2.5,0 0,1 2.5,0 c 0.277,0 0.5,0.223 0.5,0.5 0,0.277 -0.223,0.5 -0.5,0.5 l -2.5,0 0,1 c 0,2.2091 1.790861,4 4,4 2.209139,0 4,-1.7909 4,-4 l 0,-1 -2.5,0 c -0.277,0 -0.5,-0.223 -0.5,-0.5 0,-0.277 0.223,-0.5 0.5,-0.5 l 2.5,0 0,-1 -2.5,0 c -0.277,0 -0.5,-0.223 -0.5,-0.5 0,-0.277 0.223,-0.5 0.5,-0.5 l 2.5,0 0,-1 -2.5,0 c -0.277,0 -0.5,-0.223 -0.5,-0.5 0,-0.277 0.223,-0.5 0.5,-0.5 l 2.5,0 0,-1 -2.5,0 c -0.277,0 -0.5,-0.223 -0.5,-0.5 0,-0.277 0.223,-0.5 0.5,-0.5 l 2.5,0 c 0,-2.2092 -1.790861,-4 -4,-4 z m -6,11 c -0.552285,0 -1,0.4477 -1,1 0,3.5248 2.610031,6.419 6,6.9062 l 0,4.0938 c 0,0.5523 0.447715,1 1,1 0.552285,0 1,-0.4477 1,-1 l 0,-4.0938 c 3.389969,-0.4872 6,-3.3814 6,-6.9062 0,-0.5523 -0.447715,-1 -1,-1 -0.552285,0 -1,0.4477 -1,1 0,2.7614 -2.238576,5 -5,5 -2.761424,0 -5,-2.2386 -5,-5 0,-0.5523 -0.447715,-1 -1,-1 z"
                 style="opacity:0.25;fill:url(#linearGradient26148);fill-opacity:1;fill-rule:nonzero;stroke:none"
                 inkscape:connector-curvature="0" />
            <path
                 id="path24446"
                 d="m 32,1012.3622 c -2.209139,0 -4,1.7908 -4,4 0,0.054 0.02916,0.1031 0.03125,0.1562 0.309573,-0.09 0.621685,-0.1562 0.96875,-0.1562 0,-1.6569 1.343146,-3 3,-3 1.656854,0 3,1.3431 3,3 l 1,0 c 0,-2.2092 -1.790861,-4 -4,-4 z"
                 style="fill:#ffffff;fill-opacity:1;fill-rule:nonzero;stroke:none"
                 inkscape:connector-curvature="0" />
            <path
                 id="path24470"
                 d="m 26,1023.3622 0,2 c 0.0352,0 0.05949,-0.028 0.09375,-0.031 0.460325,2.8564 2.919995,5.0313 5.90625,5.0313 2.986255,0 5.445925,-2.1749 5.90625,-5.0313 0.03426,0 0.05855,0.031 0.09375,0.031 l 0,-1 0,-1 c -0.552285,0 -1,0.4477 -1,1 0,2.7614 -2.238576,5 -5,5 -2.761424,0 -5,-2.2386 -5,-5 0,-0.5523 -0.447715,-1 -1,-1 z"
                 style="fill:#ffffff;fill-opacity:1;fill-rule:nonzero;stroke:none"
                 inkscape:connector-curvature="0" />
        </g>
        <g
             style="opacity:0.02;fill:#000000;fill-opacity:1"
             id="g25924"
             transform="translate(-57,0)">
            <rect
                 style="fill:#000000;fill-opacity:1;fill-rule:nonzero;stroke:none"
                 id="rect25926"
                 width="4"
                 height="2.0000026"
                 x="7"
                 y="1017.3622"
                 rx="1"
                 ry="1" />
            <rect
                 ry="1"
                 rx="1"
                 y="1014.3622"
                 x="7"
                 height="2.0000026"
                 width="4"
                 id="rect25928"
                 style="fill:#000000;fill-opacity:1;fill-rule:nonzero;stroke:none" />
            <rect
                 style="fill:#000000;fill-opacity:1;fill-rule:nonzero;stroke:none"
                 id="rect25930"
                 width="4"
                 height="2.0000026"
                 x="7"
                 y="1011.3622"
                 rx="1"
                 ry="1" />
            <rect
                 ry="1"
                 rx="1"
                 y="1017.3622"
                 x="13"
                 height="2.0000026"
                 width="4"
                 id="rect25932"
                 style="fill:#000000;fill-opacity:1;fill-rule:nonzero;stroke:none" />
            <rect
                 ry="1"
                 rx="1"
                 y="1017.3622"
                 x="53"
                 height="2.0000026"
                 width="4"
                 id="rect25934"
                 style="fill:#000000;fill-opacity:1;fill-rule:nonzero;stroke:none" />
            <rect
                 style="fill:#000000;fill-opacity:1;fill-rule:nonzero;stroke:none"
                 id="rect25936"
                 width="4"
                 height="2.0000026"
                 x="53"
                 y="1014.3622"
                 rx="1"
                 ry="1" />
            <rect
                 ry="1"
                 rx="1"
                 y="1011.3622"
                 x="53"
                 height="2.0000026"
                 width="4"
                 id="rect25938"
                 style="fill:#000000;fill-opacity:1;fill-rule:nonzero;stroke:none" />
            <rect
                 style="fill:#000000;fill-opacity:1;fill-rule:nonzero;stroke:none"
                 id="rect25940"
                 width="4"
                 height="2.0000026"
                 x="53"
                 y="1008.3622"
                 rx="1"
                 ry="1" />
            <rect
                 ry="1"
                 rx="1"
                 y="1005.3622"
                 x="53"
                 height="2.0000026"
                 width="4"
                 id="rect25942"
                 style="fill:#000000;fill-opacity:1;fill-rule:nonzero;stroke:none" />
            <rect
                 style="fill:#000000;fill-opacity:1;fill-rule:nonzero;stroke:none"
                 id="rect25944"
                 width="4"
                 height="2.0000026"
                 x="47"
                 y="1017.3622"
                 rx="1"
                 ry="1" />
            <rect
                 ry="1"
                 rx="1"
                 y="1014.3622"
                 x="47"
                 height="2.0000026"
                 width="4"
                 id="rect25946"
                 style="fill:#000000;fill-opacity:1;fill-rule:nonzero;stroke:none" />
            <rect
                 style="fill:#000000;fill-opacity:1;fill-rule:nonzero;stroke:none"
                 id="rect25948"
                 width="4"
                 height="2.0000026"
                 x="47"
                 y="1011.3622"
                 rx="1"
                 ry="1" />
            <rect
                 ry="1"
                 rx="1"
                 y="1008.3622"
                 x="47"
                 height="2.0000026"
                 width="4"
                 id="rect25950"
                 style="fill:#000000;fill-opacity:1;fill-rule:nonzero;stroke:none" />
            <rect
                 style="fill:#000000;fill-opacity:1;fill-rule:nonzero;stroke:none"
                 id="rect25952"
                 width="4"
                 height="2.0000026"
                 x="47"
                 y="1005.3622"
                 rx="1"
                 ry="1" />
            <rect
                 ry="1"
                 rx="1"
                 y="1002.3622"
                 x="47"
                 height="2.0000026"
                 width="4"
                 id="rect25954"
                 style="fill:#000000;fill-opacity:1;fill-rule:nonzero;stroke:none" />
            <rect
                 ry="1"
                 rx="1"
                 y="1017.3622"
                 x="41"
                 height="2.0000026"
                 width="4"
                 id="rect25956"
                 style="fill:#000000;fill-opacity:1;fill-rule:nonzero;stroke:none" />
            <rect
                 style="fill:#000000;fill-opacity:1;fill-rule:nonzero;stroke:none"
                 id="rect25958"
                 width="4"
                 height="2.0000026"
                 x="41"
                 y="1014.3622"
                 rx="1"
                 ry="1" />
            <rect
                 style="fill:#000000;fill-opacity:1;fill-rule:nonzero;stroke:none"
                 id="rect25960"
                 width="4"
                 height="2.0000026"
                 x="35"
                 y="1017.3622"
                 rx="1"
                 ry="1" />
            <rect
                 ry="1"
                 rx="1"
                 y="1014.3622"
                 x="35"
                 height="2.0000026"
                 width="4"
                 id="rect25962"
                 style="fill:#000000;fill-opacity:1;fill-rule:nonzero;stroke:none" />
            <rect
                 style="fill:#000000;fill-opacity:1;fill-rule:nonzero;stroke:none"
                 id="rect25964"
                 width="4"
                 height="2.0000026"
                 x="35"
                 y="1011.3622"
                 rx="1"
                 ry="1" />
            <rect
                 ry="1"
                 rx="1"
                 y="1008.3622"
                 x="35"
                 height="2.0000026"
                 width="4"
                 id="rect25966"
                 style="fill:#000000;fill-opacity:1;fill-rule:nonzero;stroke:none" />
            <rect
                 style="fill:#000000;fill-opacity:1;fill-rule:nonzero;stroke:none"
                 id="rect25968"
                 width="4"
                 height="2.0000026"
                 x="35"
                 y="1005.3622"
                 rx="1"
                 ry="1" />
            <rect
                 ry="1"
                 rx="1"
                 y="1017.3622"
                 x="30"
                 height="2.0000026"
                 width="3"
                 id="rect25970"
                 style="fill:#000000;fill-opacity:1;fill-rule:nonzero;stroke:none" />
            <rect
                 style="fill:#000000;fill-opacity:1;fill-rule:nonzero;stroke:none"
                 id="rect25972"
                 width="3"
                 height="2.0000026"
                 x="30"
                 y="1014.3622"
                 rx="1"
                 ry="1" />
            <rect
                 ry="1"
                 rx="1"
                 y="1011.3622"
                 x="30"
                 height="2.0000026"
                 width="3"
                 id="rect25974"
                 style="fill:#000000;fill-opacity:1;fill-rule:nonzero;stroke:none" />
            <rect
                 style="fill:#000000;fill-opacity:1;fill-rule:nonzero;stroke:none"
                 id="rect25976"
                 width="3"
                 height="2.0000026"
                 x="30"
                 y="1008.3622"
                 rx="1"
                 ry="1" />
            <rect
                 style="fill:#000000;fill-opacity:1;fill-rule:nonzero;stroke:none"
                 id="rect25978"
                 width="4"
                 height="2.0000026"
                 x="19"
                 y="1017.3622"
                 rx="1"
                 ry="1" />
            <rect
                 ry="1"
                 rx="1"
                 y="1014.3622"
                 x="19"
                 height="2.0000026"
                 width="4"
                 id="rect25980"
                 style="fill:#000000;fill-opacity:1;fill-rule:nonzero;stroke:none" />
            <rect
                 style="fill:#000000;fill-opacity:1;fill-rule:nonzero;stroke:none"
                 id="rect25982"
                 width="4"
                 height="2.0000026"
                 x="19"
                 y="1011.3622"
                 rx="1"
                 ry="1" />
            <rect
                 ry="1"
                 rx="1"
                 y="1008.3622"
                 x="19"
                 height="2.0000026"
                 width="4"
                 id="rect25984"
                 style="fill:#000000;fill-opacity:1;fill-rule:nonzero;stroke:none" />
            <rect
                 ry="1"
                 rx="1"
                 y="1017.3622"
                 x="25"
                 height="2.0000026"
                 width="4"
                 id="rect25986"
                 style="fill:#000000;fill-opacity:1;fill-rule:nonzero;stroke:none" />
            <rect
                 ry="1"
                 rx="1"
                 y="1005.3622"
                 x="30"
                 height="2.0000026"
                 width="3"
                 id="rect25988"
                 style="fill:#000000;fill-opacity:1;fill-rule:nonzero;stroke:none" />
            <rect
                 ry="1"
                 rx="1"
                 y="1002.3622"
                 x="35"
                 height="2.0000026"
                 width="4"
                 id="rect25990"
                 style="fill:#000000;fill-opacity:1;fill-rule:nonzero;stroke:none" />
            <rect
                 style="fill:#000000;fill-opacity:1;fill-rule:nonzero;stroke:none"
                 id="rect25992"
                 width="4"
                 height="2.0000026"
                 x="35"
                 y="999.36218"
                 rx="1"
                 ry="1" />
            <rect
                 ry="1"
                 rx="1"
                 y="996.36218"
                 x="35"
                 height="2.0000026"
                 width="4"
                 id="rect25994"
                 style="fill:#000000;fill-opacity:1;fill-rule:nonzero;stroke:none" />
            <rect
                 ry="1"
                 rx="1"
                 y="-1023.3622"
                 x="-57"
                 height="2.0000026"
                 width="4"
                 id="rect25996"
                 style="fill:#000000;fill-opacity:1;fill-rule:nonzero;stroke:none"
                 transform="scale(-1,-1)" />
            <rect
                 style="fill:#000000;fill-opacity:1;fill-rule:nonzero;stroke:none"
                 id="rect25998"
                 width="4"
                 height="2.0000026"
                 x="-51"
                 y="-1023.3622"
                 rx="1"
                 ry="1"
                 transform="scale(-1,-1)" />
            <rect
                 ry="1"
                 rx="1"
                 y="-1026.3622"
                 x="-51"
                 height="2.0000026"
                 width="4"
                 id="rect26000"
                 style="fill:#000000;fill-opacity:1;fill-rule:nonzero;stroke:none"
                 transform="scale(-1,-1)" />
            <rect
                 style="fill:#000000;fill-opacity:1;fill-rule:nonzero;stroke:none"
                 id="rect26002"
                 width="4"
                 height="2.0000026"
                 x="-51"
                 y="-1029.3622"
                 rx="1"
                 ry="1"
                 transform="scale(-1,-1)" />
            <rect
                 ry="1"
                 rx="1"
                 y="-1032.3622"
                 x="-51"
                 height="2.0000026"
                 width="4"
                 id="rect26004"
                 style="fill:#000000;fill-opacity:1;fill-rule:nonzero;stroke:none"
                 transform="scale(-1,-1)" />
            <rect
                 style="fill:#000000;fill-opacity:1;fill-rule:nonzero;stroke:none"
                 id="rect26006"
                 width="4"
                 height="2.0000026"
                 x="-51"
                 y="-1035.3622"
                 rx="1"
                 ry="1"
                 transform="scale(-1,-1)" />
            <rect
                 ry="1"
                 rx="1"
                 y="-1038.3622"
                 x="-51"
                 height="2.0000026"
                 width="4"
                 id="rect26008"
                 style="fill:#000000;fill-opacity:1;fill-rule:nonzero;stroke:none"
                 transform="scale(-1,-1)" />
            <rect
                 style="fill:#000000;fill-opacity:1;fill-rule:nonzero;stroke:none"
                 id="rect26010"
                 width="4"
                 height="2.0000026"
                 x="-11"
                 y="-1023.3622"
                 rx="1"
                 ry="1"
                 transform="scale(-1,-1)" />
            <rect
                 ry="1"
                 rx="1"
                 y="-1026.3622"
                 x="-11"
                 height="2.0000026"
                 width="4"
                 id="rect26012"
                 style="fill:#000000;fill-opacity:1;fill-rule:nonzero;stroke:none"
                 transform="scale(-1,-1)" />
            <rect
                 style="fill:#000000;fill-opacity:1;fill-rule:nonzero;stroke:none"
                 id="rect26014"
                 width="4"
                 height="2.0000026"
                 x="-11"
                 y="-1029.3622"
                 rx="1"
                 ry="1"
                 transform="scale(-1,-1)" />
            <rect
                 ry="1"
                 rx="1"
                 y="-1032.3622"
                 x="-11"
                 height="2.0000026"
                 width="4"
                 id="rect26016"
                 style="fill:#000000;fill-opacity:1;fill-rule:nonzero;stroke:none"
                 transform="scale(-1,-1)" />
            <rect
                 style="fill:#000000;fill-opacity:1;fill-rule:nonzero;stroke:none"
                 id="rect26018"
                 width="4"
                 height="2.0000026"
                 x="-11"
                 y="-1035.3622"
                 rx="1"
                 ry="1"
                 transform="scale(-1,-1)" />
            <rect
                 ry="1"
                 rx="1"
                 y="-1038.3622"
                 x="-11"
                 height="2.0000026"
                 width="4"
                 id="rect26020"
                 style="fill:#000000;fill-opacity:1;fill-rule:nonzero;stroke:none"
                 transform="scale(-1,-1)" />
            <rect
                 style="fill:#000000;fill-opacity:1;fill-rule:nonzero;stroke:none"
                 id="rect26022"
                 width="4"
                 height="2.0000026"
                 x="-11"
                 y="-1041.3622"
                 rx="1"
                 ry="1"
                 transform="scale(-1,-1)" />
            <rect
                 ry="1"
                 rx="1"
                 y="-1023.3622"
                 x="-17"
                 height="2.0000026"
                 width="4"
                 id="rect26024"
                 style="fill:#000000;fill-opacity:1;fill-rule:nonzero;stroke:none"
                 transform="scale(-1,-1)" />
            <rect
                 style="fill:#000000;fill-opacity:1;fill-rule:nonzero;stroke:none"
                 id="rect26026"
                 width="4"
                 height="2.0000026"
                 x="-17"
                 y="-1026.3622"
                 rx="1"
                 ry="1"
                 transform="scale(-1,-1)" />
            <rect
                 ry="1"
                 rx="1"
                 y="-1029.3622"
                 x="-17"
                 height="2.0000026"
                 width="4"
                 id="rect26028"
                 style="fill:#000000;fill-opacity:1;fill-rule:nonzero;stroke:none"
                 transform="scale(-1,-1)" />
            <rect
                 style="fill:#000000;fill-opacity:1;fill-rule:nonzero;stroke:none"
                 id="rect26030"
                 width="4"
                 height="2.0000026"
                 x="-17"
                 y="-1032.3622"
                 rx="1"
                 ry="1"
                 transform="scale(-1,-1)" />
            <rect
                 ry="1"
                 rx="1"
                 y="-1035.3622"
                 x="-17"
                 height="2.0000026"
                 width="4"
                 id="rect26032"
                 style="fill:#000000;fill-opacity:1;fill-rule:nonzero;stroke:none"
                 transform="scale(-1,-1)" />
            <rect
                 style="fill:#000000;fill-opacity:1;fill-rule:nonzero;stroke:none"
                 id="rect26034"
                 width="4"
                 height="2.0000026"
                 x="-17"
                 y="-1038.3622"
                 rx="1"
                 ry="1"
                 transform="scale(-1,-1)" />
            <rect
                 ry="1"
                 rx="1"
                 y="-1041.3622"
                 x="-17"
                 height="2.0000026"
                 width="4"
                 id="rect26036"
                 style="fill:#000000;fill-opacity:1;fill-rule:nonzero;stroke:none"
                 transform="scale(-1,-1)" />
            <rect
                 style="fill:#000000;fill-opacity:1;fill-rule:nonzero;stroke:none"
                 id="rect26038"
                 width="4"
                 height="2.0000026"
                 x="-23"
                 y="-1023.3622"
                 rx="1"
                 ry="1"
                 transform="scale(-1,-1)" />
            <rect
                 ry="1"
                 rx="1"
                 y="-1026.3622"
                 x="-23"
                 height="2.0000026"
                 width="4"
                 id="rect26040"
                 style="fill:#000000;fill-opacity:1;fill-rule:nonzero;stroke:none"
                 transform="scale(-1,-1)" />
            <rect
                 style="fill:#000000;fill-opacity:1;fill-rule:nonzero;stroke:none"
                 id="rect26042"
                 width="4"
                 height="2.0000026"
                 x="-23"
                 y="-1029.3622"
                 rx="1"
                 ry="1"
                 transform="scale(-1,-1)" />
            <rect
                 ry="1"
                 rx="1"
                 y="-1023.3622"
                 x="-29"
                 height="2.0000026"
                 width="4"
                 id="rect26044"
                 style="fill:#000000;fill-opacity:1;fill-rule:nonzero;stroke:none"
                 transform="scale(-1,-1)" />
            <rect
                 style="fill:#000000;fill-opacity:1;fill-rule:nonzero;stroke:none"
                 id="rect26046"
                 width="4"
                 height="2.0000026"
                 x="-29"
                 y="-1026.3622"
                 rx="1"
                 ry="1"
                 transform="scale(-1,-1)" />
            <rect
                 ry="1"
                 rx="1"
                 y="-1029.3622"
                 x="-29"
                 height="2.0000026"
                 width="4"
                 id="rect26048"
                 style="fill:#000000;fill-opacity:1;fill-rule:nonzero;stroke:none"
                 transform="scale(-1,-1)" />
            <rect
                 ry="1"
                 rx="1"
                 y="-1023.3622"
                 x="-45"
                 height="2.0000026"
                 width="4"
                 id="rect26050"
                 style="fill:#000000;fill-opacity:1;fill-rule:nonzero;stroke:none"
                 transform="scale(-1,-1)" />
            <rect
                 style="fill:#000000;fill-opacity:1;fill-rule:nonzero;stroke:none"
                 id="rect26052"
                 width="4"
                 height="2.0000026"
                 x="-39"
                 y="-1023.3622"
                 rx="1"
                 ry="1"
                 transform="scale(-1,-1)" />
            <rect
                 ry="1"
                 rx="1"
                 y="-1026.3622"
                 x="-39"
                 height="2.0000026"
                 width="4"
                 id="rect26054"
                 style="fill:#000000;fill-opacity:1;fill-rule:nonzero;stroke:none"
                 transform="scale(-1,-1)" />
            <rect
                 style="fill:#000000;fill-opacity:1;fill-rule:nonzero;stroke:none"
                 id="rect26056"
                 width="4"
                 height="2.0000026"
                 x="-39"
                 y="-1029.3622"
                 rx="1"
                 ry="1"
                 transform="scale(-1,-1)" />
            <rect
                 ry="1"
                 rx="1"
                 y="-1032.3622"
                 x="-39"
                 height="2.0000026"
                 width="4"
                 id="rect26058"
                 style="fill:#000000;fill-opacity:1;fill-rule:nonzero;stroke:none"
                 transform="scale(-1,-1)" />
            <rect
                 style="fill:#000000;fill-opacity:1;fill-rule:nonzero;stroke:none"
                 id="rect26060"
                 width="4"
                 height="2.0000026"
                 x="-39"
                 y="-1035.3622"
                 rx="1"
                 ry="1"
                 transform="scale(-1,-1)" />
            <rect
                 transform="scale(-1,-1)"
                 style="fill:#000000;fill-opacity:1;fill-rule:nonzero;stroke:none"
                 id="rect26062"
                 width="4"
                 height="2.0000026"
                 x="-39"
                 y="-1038.3622"
                 rx="1"
                 ry="1" />
            <rect
                 transform="scale(-1,-1)"
                 ry="1"
                 rx="1"
                 y="-1041.3622"
                 x="-39"
                 height="2.0000026"
                 width="4"
                 id="rect26064"
                 style="fill:#000000;fill-opacity:1;fill-rule:nonzero;stroke:none" />
            <rect
                 transform="scale(-1,-1)"
                 style="fill:#000000;fill-opacity:1;fill-rule:nonzero;stroke:none"
                 id="rect26066"
                 width="4"
                 height="2.0000026"
                 x="-39"
                 y="-1044.3622"
                 rx="1"
                 ry="1" />
            <rect
                 transform="scale(-1,-1)"
                 style="fill:#000000;fill-opacity:1;fill-rule:nonzero;stroke:none"
                 id="rect26068"
                 width="4"
                 height="2.0000026"
                 x="-17"
                 y="-1044.3622"
                 rx="1"
                 ry="1" />
        </g>
    </g>
</svg>
