<?xml version="1.0" encoding="UTF-8"?>
<svg height="128px" viewBox="0 0 128 128" width="128px" xmlns="http://www.w3.org/2000/svg" xmlns:xlink="http://www.w3.org/1999/xlink">
    <linearGradient id="a" gradientUnits="userSpaceOnUse" x1="8" x2="120" y1="103.99999975" y2="103.99999975">
        <stop offset="0" stop-color="#460696"/>
        <stop offset="0.0357143" stop-color="#c7b1ff"/>
        <stop offset="0.0714286" stop-color="#6b15bb"/>
        <stop offset="0.928571" stop-color="#6b15bb"/>
        <stop offset="0.964286" stop-color="#c7b1ff"/>
        <stop offset="1" stop-color="#460696"/>
    </linearGradient>
    <filter id="b" height="100%" width="100%" x="0%" y="0%">
        <feColorMatrix in="SourceGraphic" type="matrix" values="0 0 0 0 1 0 0 0 0 1 0 0 0 0 1 0 0 0 1 0"/>
    </filter>
    <mask id="c">
        <g filter="url(#b)">
            <rect fill-opacity="0.05" height="128" width="128"/>
        </g>
    </mask>
    <radialGradient id="d" cx="63.999996" cy="194.190475" gradientTransform="matrix(-4.136364 -0.00000125 -0.00000027 1.390909 327.227291 -154.634552)" gradientUnits="userSpaceOnUse" r="44">
        <stop offset="0" stop-color="#ffffff"/>
        <stop offset="1" stop-color="#ffffff" stop-opacity="0.094118"/>
    </radialGradient>
    <clipPath id="e">
        <rect height="152" width="192"/>
    </clipPath>
    <linearGradient id="f" gradientUnits="userSpaceOnUse" x1="12" x2="52" y1="109" y2="109">
        <stop offset="0" stop-color="#6f7681"/>
        <stop offset="0.1" stop-color="#cdd0d9"/>
        <stop offset="0.2" stop-color="#a5acb7"/>
        <stop offset="0.8" stop-color="#a5acb7"/>
        <stop offset="0.9" stop-color="#cdd0d9"/>
        <stop offset="1" stop-color="#6f7681"/>
    </linearGradient>
    <mask id="g">
        <g filter="url(#b)">
            <rect fill-opacity="0.3" height="128" width="128"/>
        </g>
    </mask>
    <clipPath id="h">
        <rect height="152" width="192"/>
    </clipPath>
    <mask id="i">
        <g filter="url(#b)">
            <rect fill-opacity="0.7" height="128" width="128"/>
        </g>
    </mask>
    <clipPath id="j">
        <rect height="152" width="192"/>
    </clipPath>
    <linearGradient id="k" gradientUnits="userSpaceOnUse" x1="56" x2="56" y1="96" y2="36">
        <stop offset="0" stop-color="#fdfdff"/>
        <stop offset="1" stop-color="#fdfdff" stop-opacity="0"/>
    </linearGradient>
    <radialGradient id="l" cx="32" cy="277" gradientTransform="matrix(1 0 0 0.35 0 8.050003)" gradientUnits="userSpaceOnUse" r="20">
        <stop offset="0" stop-color="#a5acb7"/>
        <stop offset="1" stop-color="#cdd0d9"/>
    </radialGradient>
    <linearGradient id="m" gradientUnits="userSpaceOnUse" x1="29" x2="35" y1="92" y2="92">
        <stop offset="0" stop-color="#a5acb7"/>
        <stop offset="0.5" stop-color="#f0f2f8"/>
        <stop offset="1" stop-color="#a5acb7"/>
    </linearGradient>
    <radialGradient id="n" cx="39.999996" cy="54" gradientTransform="matrix(0 1.142857 -1 0 86 4.285707)" gradientUnits="userSpaceOnUse" r="28">
        <stop offset="0" stop-color="#cdd0d9"/>
        <stop offset="0.5" stop-color="#fdfdff"/>
        <stop offset="1" stop-color="#cdd0d9"/>
    </radialGradient>
    <radialGradient id="o" cx="32" cy="214" gradientTransform="matrix(1 0 0 1.5 0 -279)" gradientUnits="userSpaceOnUse" r="20">
        <stop offset="0" stop-color="#fdfdff"/>
        <stop offset="1" stop-color="#cdd0d9"/>
    </radialGradient>
    <mask id="p">
        <g filter="url(#b)">
            <rect fill-opacity="0.5" height="128" width="128"/>
        </g>
    </mask>
    <clipPath id="q">
        <rect height="152" width="192"/>
    </clipPath>
    <radialGradient id="r" cx="40" cy="54" gradientTransform="matrix(1 0 0 0.7 -8 0.200001)" gradientUnits="userSpaceOnUse" r="20">
        <stop offset="0" stop-color="#a5acb7"/>
        <stop offset="1" stop-color="#6f7681"/>
    </radialGradient>
    <path d="m 16 28 h 96 c 4.417969 0 8 3.582031 8 8 v 70 c 0 4.417969 -3.582031 8 -8 8 h -96 c -4.417969 0 -8 -3.582031 -8 -8 v -70 c 0 -4.417969 3.582031 -8 8 -8 z m 0 0" fill="#ac7afa"/>
    <path d="m 16 32 h 84 c 2.210938 0 4 1.789062 4 4 v 68 c 0 2.210938 -1.789062 4 -4 4 h -84 c -2.210938 0 -4 -1.789062 -4 -4 v -68 c 0 -2.210938 1.789062 -4 4 -4 z m 0 0" fill="#241f31"/>
    <path d="m 8 104 v 4 c 0 4.433594 3.566406 8 8 8 h 96 c 4.433594 0 8 -3.566406 8 -8 v -4 c 0 4.433594 -3.566406 8 -8 8 h -96 c -4.433594 0 -8 -3.566406 -8 -8 z m 0 0" fill="url(#a)"/>
    <g clip-path="url(#e)" mask="url(#c)" transform="matrix(1 0 0 1 -8 -16)">
        <path d="m 24 120 h 84 v -68 h -84 z m 0 0" fill="url(#d)"/>
    </g>
    <path d="m 52 109 c 0 3.867188 -8.953125 7 -20 7 s -20 -3.132812 -20 -7 c 0 -1.933594 0 -1 0 -4 c 3.621094 -1.265625 14.476562 -3 20 -3 s 18 2 20 3 z m 0 0" fill="url(#f)"/>
    <path d="m 112 32 c 1.105469 0 2 0.894531 2 2 v 72 c 0 1.105469 -0.894531 2 -2 2 s -2 -0.894531 -2 -2 v -72 c 0 -1.105469 0.894531 -2 2 -2 z m 0 0" fill="#460696"/>
    <g clip-path="url(#h)" mask="url(#g)" transform="matrix(1 0 0 1 -8 -16)">
        <path d="m 118 82 h 4 v 7 h -4 z m 0 0"/>
    </g>
    <g clip-path="url(#j)" mask="url(#i)" transform="matrix(1 0 0 1 -8 -16)">
        <path d="m 120 48 c -1.109375 0 -2 0.890625 -2 2 v 2 c 0 -1.109375 0.890625 -2 2 -2 s 2 0.890625 2 2 v -2 c 0 -1.109375 -0.890625 -2 -2 -2 z m 0 0" fill="#1a1b1e"/>
    </g>
    <path d="m 109 67 h 6 c 0.550781 0 1 0.449219 1 1 v 3 c 0 0.550781 -0.449219 1 -1 1 h -6 c -0.550781 0 -1 -0.449219 -1 -1 v -3 c 0 -0.550781 0.449219 -1 1 -1 z m 0 0" fill="#1a1b1e"/>
    <path d="m 109 60 h 6 c 0.550781 0 1 0.449219 1 1 v 9 c 0 0.550781 -0.449219 1 -1 1 h -6 c -0.550781 0 -1 -0.449219 -1 -1 v -9 c 0 -0.550781 0.449219 -1 1 -1 z m 0 0" fill="#2f3033"/>
    <path d="m 110 65 h 4 c 0.550781 0 1 0.449219 1 1 s -0.449219 1 -1 1 h -4 c -0.550781 0 -1 -0.449219 -1 -1 s 0.449219 -1 1 -1 z m 0 0" fill="#898a97"/>
    <path d="m 110 67 h 4 c 0.550781 0 1 0.449219 1 1 s -0.449219 1 -1 1 h -4 c -0.550781 0 -1 -0.449219 -1 -1 s 0.449219 -1 1 -1 z m 0 0" fill="#1a1b1e"/>
    <path d="m 62 44 c -1.109375 0 -2 0.890625 -2 2 s 0.890625 2 2 2 h 4 c 1.109375 0 2 -0.890625 2 -2 s -0.890625 -2 -2 -2 z m -24 8 c -1.109375 0 -2 0.890625 -2 2 s 0.890625 2 2 2 h 4 c 1.109375 0 2 -0.890625 2 -2 s -0.890625 -2 -2 -2 z m 24 0 c -1.109375 0 -2 0.890625 -2 2 s 0.890625 2 2 2 h 4 c 1.109375 0 2 -0.890625 2 -2 s -0.890625 -2 -2 -2 z m -24 8 c -1.109375 0 -2 0.890625 -2 2 s 0.890625 2 2 2 h 4 c 1.109375 0 2 -0.890625 2 -2 s -0.890625 -2 -2 -2 z m 12 0 c -1.109375 0 -2 0.890625 -2 2 s 0.890625 2 2 2 h 4 c 1.109375 0 2 -0.890625 2 -2 s -0.890625 -2 -2 -2 z m 12 0 c -1.109375 0 -2 0.890625 -2 2 s 0.890625 2 2 2 h 4 c 1.109375 0 2 -0.890625 2 -2 s -0.890625 -2 -2 -2 z m -36 8 c -1.109375 0 -2 0.890625 -2 2 s 0.890625 2 2 2 h 4 c 1.109375 0 2 -0.890625 2 -2 s -0.890625 -2 -2 -2 z m 12 0 c -1.109375 0 -2 0.890625 -2 2 s 0.890625 2 2 2 h 4 c 1.109375 0 2 -0.890625 2 -2 s -0.890625 -2 -2 -2 z m 12 0 c -1.109375 0 -2 0.890625 -2 2 s 0.890625 2 2 2 h 4 c 1.109375 0 2 -0.890625 2 -2 s -0.890625 -2 -2 -2 z m 12 0 c -1.109375 0 -2 0.890625 -2 2 s 0.890625 2 2 2 h 4 c 1.109375 0 2 -0.890625 2 -2 s -0.890625 -2 -2 -2 z m 24 0 c -1.109375 0 -2 0.890625 -2 2 s 0.890625 2 2 2 h 4 c 1.109375 0 2 -0.890625 2 -2 s -0.890625 -2 -2 -2 z m -60 8 c -1.109375 0 -2 0.890625 -2 2 s 0.890625 2 2 2 h 4 c 1.109375 0 2 -0.890625 2 -2 s -0.890625 -2 -2 -2 z m 12 0 c -1.109375 0 -2 0.890625 -2 2 s 0.890625 2 2 2 h 4 c 1.109375 0 2 -0.890625 2 -2 s -0.890625 -2 -2 -2 z m 12 0 c -1.109375 0 -2 0.890625 -2 2 s 0.890625 2 2 2 h 4 c 1.109375 0 2 -0.890625 2 -2 s -0.890625 -2 -2 -2 z m 12 0 c -1.109375 0 -2 0.890625 -2 2 s 0.890625 2 2 2 h 4 c 1.109375 0 2 -0.890625 2 -2 s -0.890625 -2 -2 -2 z m 24 0 c -1.109375 0 -2 0.890625 -2 2 s 0.890625 2 2 2 h 4 c 1.109375 0 2 -0.890625 2 -2 s -0.890625 -2 -2 -2 z m -60 8 c -1.109375 0 -2 0.890625 -2 2 s 0.890625 2 2 2 h 4 c 1.109375 0 2 -0.890625 2 -2 s -0.890625 -2 -2 -2 z m 12 0 c -1.109375 0 -2 0.890625 -2 2 s 0.890625 2 2 2 h 4 c 1.109375 0 2 -0.890625 2 -2 s -0.890625 -2 -2 -2 z m 12 0 c -1.109375 0 -2 0.890625 -2 2 s 0.890625 2 2 2 h 4 c 1.109375 0 2 -0.890625 2 -2 s -0.890625 -2 -2 -2 z m 12 0 c -1.109375 0 -2 0.890625 -2 2 s 0.890625 2 2 2 h 4 c 1.109375 0 2 -0.890625 2 -2 s -0.890625 -2 -2 -2 z m 12 0 c -1.109375 0 -2 0.890625 -2 2 s 0.890625 2 2 2 h 4 c 1.109375 0 2 -0.890625 2 -2 s -0.890625 -2 -2 -2 z m 12 0 c -1.109375 0 -2 0.890625 -2 2 s 0.890625 2 2 2 h 4 c 1.109375 0 2 -0.890625 2 -2 s -0.890625 -2 -2 -2 z m -60 8 c -1.109375 0 -2 0.890625 -2 2 s 0.890625 2 2 2 h 4 c 1.109375 0 2 -0.890625 2 -2 s -0.890625 -2 -2 -2 z m 12 0 c -1.109375 0 -2 0.890625 -2 2 s 0.890625 2 2 2 h 4 c 1.109375 0 2 -0.890625 2 -2 s -0.890625 -2 -2 -2 z m 12 0 c -1.109375 0 -2 0.890625 -2 2 s 0.890625 2 2 2 h 4 c 1.109375 0 2 -0.890625 2 -2 s -0.890625 -2 -2 -2 z m 12 0 c -1.109375 0 -2 0.890625 -2 2 s 0.890625 2 2 2 h 4 c 1.109375 0 2 -0.890625 2 -2 s -0.890625 -2 -2 -2 z m 12 0 c -1.109375 0 -2 0.890625 -2 2 s 0.890625 2 2 2 h 4 c 1.109375 0 2 -0.890625 2 -2 s -0.890625 -2 -2 -2 z m 12 0 c -1.109375 0 -2 0.890625 -2 2 s 0.890625 2 2 2 h 4 c 1.109375 0 2 -0.890625 2 -2 s -0.890625 -2 -2 -2 z m 0 0" fill="url(#k)"/>
    <path d="m 6 52 c -1.105469 0 -2 0.894531 -2 2 v 2 c 0 15.511719 12.488281 28 28 28 s 28 -12.488281 28 -28 v -2 c 0 -1.105469 -0.894531 -2 -2 -2 s -2 0.894531 -2 2 v 2 c 0 13.296875 -10.703125 24 -24 24 s -24 -10.703125 -24 -24 v -2 c 0 -1.105469 -0.894531 -2 -2 -2 z m 0 0" fill="#a5acb7"/>
    <path d="m 52 105 c 0 3.867188 -8.953125 7 -20 7 s -20 -3.132812 -20 -7 s 8.953125 -7 20 -7 s 20 3.132812 20 7 z m 0 0" fill="url(#l)"/>
    <path d="m 32 78 c 1.65625 0 3 1.34375 3 3 v 22 c 0 1.65625 -1.34375 3 -3 3 s -3 -1.34375 -3 -3 v -22 c 0 -1.65625 1.34375 -3 3 -3 z m 0 0" fill="url(#m)"/>
    <path d="m 6 50 c -1.105469 0 -2 0.894531 -2 2 v 2 c 0 15.511719 12.488281 28 28 28 s 28 -12.488281 28 -28 v -2 c 0 -1.105469 -0.894531 -2 -2 -2 s -2 0.894531 -2 2 v 2 c 0 13.296875 -10.703125 24 -24 24 s -24 -10.703125 -24 -24 v -2 c 0 -1.105469 -0.894531 -2 -2 -2 z m 0 0" fill="url(#n)"/>
    <g fill="#a5acb7">
        <path d="m 7.5 52 h 5 c 0.828125 0 1.5 0.671875 1.5 1.5 s -0.671875 1.5 -1.5 1.5 h -5 c -0.828125 0 -1.5 -0.671875 -1.5 -1.5 s 0.671875 -1.5 1.5 -1.5 z m 0 0"/>
        <path d="m 51.5 52 h 5 c 0.828125 0 1.5 0.671875 1.5 1.5 s -0.671875 1.5 -1.5 1.5 h -5 c -0.828125 0 -1.5 -0.671875 -1.5 -1.5 s 0.671875 -1.5 1.5 -1.5 z m 0 0"/>
        <path d="m 32 14 c 11.046875 0 20 8.953125 20 20 v 20 c 0 11.046875 -8.953125 20 -20 20 s -20 -8.953125 -20 -20 v -20 c 0 -11.046875 8.953125 -20 20 -20 z m 0 0"/>
    </g>
    <path d="m 32 12 c 11.046875 0 20 8.953125 20 20 v 20 c 0 11.046875 -8.953125 20 -20 20 s -20 -8.953125 -20 -20 v -20 c 0 -11.046875 8.953125 -20 20 -20 z m 0 0" fill="url(#o)"/>
    <g clip-path="url(#q)" mask="url(#p)" transform="matrix(1 0 0 1 -8 -16)">
        <path d="m 20.394531 46 c -0.257812 1.292969 -0.394531 2.628906 -0.394531 4 h 14 c 1.109375 0 2 -0.890625 2 -2 s -0.890625 -2 -2 -2 z m 25.605469 0 c -1.109375 0 -2 0.890625 -2 2 s 0.890625 2 2 2 h 14 c 0 -1.371094 -0.136719 -2.707031 -0.394531 -4 z m -26 8 v 4 h 14 c 1.109375 0 2 -0.890625 2 -2 s -0.890625 -2 -2 -2 z m 26 0 c -1.109375 0 -2 0.890625 -2 2 s 0.890625 2 2 2 h 14 v -4 z m -26 8 v 4 h 14 c 1.109375 0 2 -0.890625 2 -2 s -0.890625 -2 -2 -2 z m 26 0 c -1.109375 0 -2 0.890625 -2 2 s 0.890625 2 2 2 h 14 v -4 z m 0 0" fill="#ffffff"/>
    </g>
    <path d="m 12.394531 28 c -0.257812 1.292969 -0.394531 2.628906 -0.394531 4 h 14 c 1.109375 0 2 -0.890625 2 -2 s -0.890625 -2 -2 -2 z m 25.605469 0 c -1.109375 0 -2 0.890625 -2 2 s 0.890625 2 2 2 h 14 c 0 -1.371094 -0.136719 -2.707031 -0.394531 -4 z m -26 8 v 4 h 14 c 1.109375 0 2 -0.890625 2 -2 s -0.890625 -2 -2 -2 z m 26 0 c -1.109375 0 -2 0.890625 -2 2 s 0.890625 2 2 2 h 14 v -4 z m -26 8 v 4 h 14 c 1.109375 0 2 -0.890625 2 -2 s -0.890625 -2 -2 -2 z m 26 0 c -1.109375 0 -2 0.890625 -2 2 s 0.890625 2 2 2 h 14 v -4 z m 0 0" fill="url(#r)"/>
</svg>
