<?xml version="1.0" encoding="UTF-8" standalone="no"?>
<!-- Created with Inkscape (http://www.inkscape.org/) -->

<svg
     xmlns:dc="http://purl.org/dc/elements/1.1/"
     xmlns:cc="http://creativecommons.org/ns#"
     xmlns:rdf="http://www.w3.org/1999/02/22-rdf-syntax-ns#"
     xmlns:svg="http://www.w3.org/2000/svg"
     xmlns="http://www.w3.org/2000/svg"
     xmlns:xlink="http://www.w3.org/1999/xlink"
     xmlns:sodipodi="http://sodipodi.sourceforge.net/DTD/sodipodi-0.dtd"
     xmlns:inkscape="http://www.inkscape.org/namespaces/inkscape"
     width="48"
     height="48"
     id="svg2"
     version="1.1"
     inkscape:version="0.48.1 "
     sodipodi:docname="vocal.svg">
    <defs
         id="defs4">
        <linearGradient
             id="linearGradient7622">
            <stop
                 style="stop-color:#000000;stop-opacity:1;"
                 offset="0"
                 id="stop7624" />
            <stop
                 id="stop7630"
                 offset="0.5"
                 style="stop-color:#000000;stop-opacity:0.251" />
            <stop
                 style="stop-color:#000000;stop-opacity:1;"
                 offset="1"
                 id="stop7626" />
        </linearGradient>
        <linearGradient
             id="linearGradient7251">
            <stop
                 style="stop-color:#fc93dc;stop-opacity:1;"
                 offset="0"
                 id="stop7253" />
            <stop
                 style="stop-color:#da72d3;stop-opacity:1"
                 offset="1"
                 id="stop7255" />
        </linearGradient>
        <radialGradient
             cx="4.9929786"
             cy="43.5"
             r="2.5"
             fx="4.9929786"
             fy="43.5"
             id="radialGradient3337-2-2"
             xlink:href="#linearGradient3688-166-749-4-0-3-8"
             gradientUnits="userSpaceOnUse"
             gradientTransform="matrix(2.003784,0,0,1.4,27.98813,-17.4)" />
        <linearGradient
             id="linearGradient3688-166-749-4-0-3-8">
            <stop
                 id="stop2883-4-0-1-8"
                 style="stop-color:#181818;stop-opacity:1"
                 offset="0" />
            <stop
                 id="stop2885-9-2-9-6"
                 style="stop-color:#181818;stop-opacity:0"
                 offset="1" />
        </linearGradient>
        <radialGradient
             cx="4.9929786"
             cy="43.5"
             r="2.5"
             fx="4.9929786"
             fy="43.5"
             id="radialGradient3339-1-4"
             xlink:href="#linearGradient3688-464-309-9-2-4-2"
             gradientUnits="userSpaceOnUse"
             gradientTransform="matrix(2.003784,0,0,1.4,-20.01187,-104.4)" />
        <linearGradient
             id="linearGradient3688-464-309-9-2-4-2">
            <stop
                 id="stop2889-7-9-6-9"
                 style="stop-color:#181818;stop-opacity:1"
                 offset="0" />
            <stop
                 id="stop2891-6-6-1-7"
                 style="stop-color:#181818;stop-opacity:0"
                 offset="1" />
        </linearGradient>
        <linearGradient
             y2="39.999443"
             x2="25.058096"
             y1="47.027729"
             x1="25.058096"
             gradientUnits="userSpaceOnUse"
             id="linearGradient21034"
             xlink:href="#linearGradient3702-501-757-8-4-1-1"
             inkscape:collect="always" />
        <linearGradient
             id="linearGradient3702-501-757-8-4-1-1">
            <stop
                 id="stop2895-8-9-9-1"
                 style="stop-color:#181818;stop-opacity:0"
                 offset="0" />
            <stop
                 id="stop2897-7-8-7-7"
                 style="stop-color:#181818;stop-opacity:1"
                 offset="0.5" />
            <stop
                 id="stop2899-4-5-1-5"
                 style="stop-color:#181818;stop-opacity:0"
                 offset="1" />
        </linearGradient>
        <radialGradient
             inkscape:collect="always"
             xlink:href="#linearGradient3671-580-6"
             id="radialGradient20986"
             gradientUnits="userSpaceOnUse"
             gradientTransform="matrix(0,9.1402449,-11.221301,0,136.56277,926.47473)"
             cx="7.1448598"
             cy="10.031169"
             fx="7.1448598"
             fy="10.031169"
             r="12.671875" />
        <linearGradient
             id="linearGradient3671-580-6">
            <stop
                 id="stop4088-6"
                 style="stop-color:#fc93dc;stop-opacity:1"
                 offset="0" />
            <stop
                 id="stop4090-4"
                 style="stop-color:#da72d3;stop-opacity:1"
                 offset="0.26238" />
            <stop
                 id="stop4092-6"
                 style="stop-color:#a33fab;stop-opacity:1"
                 offset="0.704952" />
            <stop
                 id="stop4094-2"
                 style="stop-color:#502b58;stop-opacity:1"
                 offset="1" />
        </linearGradient>
        <linearGradient
             inkscape:collect="always"
             xlink:href="#linearGradient3924-2-2-5-8"
             id="linearGradient20983"
             gradientUnits="userSpaceOnUse"
             gradientTransform="translate(-2.094513e-6,1005.3622)"
             x1="23.99999"
             y1="4.999989"
             x2="23.99999"
             y2="43" />
        <linearGradient
             id="linearGradient3924-2-2-5-8">
            <stop
                 id="stop3926-9-4-9-6"
                 style="stop-color:#ffffff;stop-opacity:1"
                 offset="0" />
            <stop
                 id="stop3928-9-8-6-5"
                 style="stop-color:#ffffff;stop-opacity:0.23529412"
                 offset="0.06316455" />
            <stop
                 id="stop3930-3-5-1-7"
                 style="stop-color:#ffffff;stop-opacity:0.15686275"
                 offset="0.95056331" />
            <stop
                 id="stop3932-8-0-4-8"
                 style="stop-color:#ffffff;stop-opacity:0.39215687"
                 offset="1" />
        </linearGradient>
        <linearGradient
             id="linearGradient3707-662-8">
            <stop
                 id="stop4098-9"
                 style="stop-color:#542f57;stop-opacity:1"
                 offset="0" />
            <stop
                 id="stop4100-6"
                 style="stop-color:#bb5ca4;stop-opacity:1"
                 offset="1" />
        </linearGradient>
        <linearGradient
             gradientTransform="translate(-2e-7,945.36217)"
             inkscape:collect="always"
             xlink:href="#linearGradient25914"
             id="linearGradient26143"
             x1="32"
             y1="56"
             x2="32"
             y2="8"
             gradientUnits="userSpaceOnUse" />
        <linearGradient
             id="linearGradient25914">
            <stop
                 style="stop-color:#000000;stop-opacity:1;"
                 offset="0"
                 id="stop25916" />
            <stop
                 id="stop25922"
                 offset="0.5"
                 style="stop-color:#000000;stop-opacity:0.25098041;" />
            <stop
                 style="stop-color:#000000;stop-opacity:1;"
                 offset="1"
                 id="stop25918" />
        </linearGradient>
        <linearGradient
             inkscape:collect="always"
             xlink:href="#linearGradient3671-580-6"
             id="linearGradient24496"
             x1="19.76383"
             y1="30.5"
             x2="52.036171"
             y2="30.5"
             gradientUnits="userSpaceOnUse" />
        <linearGradient
             id="linearGradient7833">
            <stop
                 id="stop7835"
                 style="stop-color:#fc93dc;stop-opacity:1"
                 offset="0" />
            <stop
                 id="stop7837"
                 style="stop-color:#da72d3;stop-opacity:1"
                 offset="0.26238" />
            <stop
                 id="stop7839"
                 style="stop-color:#a33fab;stop-opacity:1"
                 offset="0.704952" />
            <stop
                 id="stop7841"
                 style="stop-color:#502b58;stop-opacity:1"
                 offset="1" />
        </linearGradient>
        <linearGradient
             inkscape:collect="always"
             xlink:href="#linearGradient3671-580-6"
             id="linearGradient24500"
             gradientUnits="userSpaceOnUse"
             x1="35.900002"
             y1="14.190327"
             x2="35.900002"
             y2="46.809681" />
        <linearGradient
             id="linearGradient7844">
            <stop
                 id="stop7846"
                 style="stop-color:#fc93dc;stop-opacity:1"
                 offset="0" />
            <stop
                 id="stop7848"
                 style="stop-color:#da72d3;stop-opacity:1"
                 offset="0.26238" />
            <stop
                 id="stop7850"
                 style="stop-color:#a33fab;stop-opacity:1"
                 offset="0.704952" />
            <stop
                 id="stop7852"
                 style="stop-color:#502b58;stop-opacity:1"
                 offset="1" />
        </linearGradient>
        <linearGradient
             inkscape:collect="always"
             xlink:href="#linearGradient3671-580-6"
             id="linearGradient26148"
             gradientUnits="userSpaceOnUse"
             x1="32"
             y1="24"
             x2="32"
             y2="48"
             gradientTransform="translate(0,988.36218)" />
        <linearGradient
             id="linearGradient7855">
            <stop
                 id="stop7857"
                 style="stop-color:#fc93dc;stop-opacity:1"
                 offset="0" />
            <stop
                 id="stop7859"
                 style="stop-color:#da72d3;stop-opacity:1"
                 offset="0.26238" />
            <stop
                 id="stop7861"
                 style="stop-color:#a33fab;stop-opacity:1"
                 offset="0.704952" />
            <stop
                 id="stop7863"
                 style="stop-color:#502b58;stop-opacity:1"
                 offset="1" />
        </linearGradient>
        <linearGradient
             inkscape:collect="always"
             xlink:href="#linearGradient3702-501-757-8-4-1-1"
             id="linearGradient6326"
             gradientUnits="userSpaceOnUse"
             x1="25.058096"
             y1="47.027729"
             x2="25.058096"
             y2="39.999443"
             gradientTransform="matrix(1.2857143,0,0,0.57142854,-6.8571431,1023.5052)" />
        <radialGradient
             inkscape:collect="always"
             xlink:href="#linearGradient3688-464-309-9-2-4-2"
             id="radialGradient6329"
             gradientUnits="userSpaceOnUse"
             gradientTransform="matrix(1.6030272,0,0,0.8,-14.009496,-1083.1623)"
             cx="4.9929786"
             cy="43.5"
             fx="4.9929786"
             fy="43.5"
             r="2.5" />
        <radialGradient
             inkscape:collect="always"
             xlink:href="#linearGradient3688-166-749-4-0-3-8"
             id="radialGradient6332"
             gradientUnits="userSpaceOnUse"
             gradientTransform="matrix(1.6030272,0,0,0.8,33.990503,1013.5623)"
             cx="4.9929786"
             cy="43.5"
             fx="4.9929786"
             fy="43.5"
             r="2.5" />
        <linearGradient
             inkscape:collect="always"
             xlink:href="#linearGradient7251"
             id="linearGradient7257"
             x1="11.699999"
             y1="9.2129869"
             x2="11.699999"
             y2="37.386902"
             gradientUnits="userSpaceOnUse" />
        <linearGradient
             inkscape:collect="always"
             xlink:href="#linearGradient7251"
             id="linearGradient7320"
             gradientUnits="userSpaceOnUse"
             x1="24"
             y1="19"
             x2="24"
             y2="37" />
        <linearGradient
             inkscape:collect="always"
             xlink:href="#linearGradient7251"
             id="linearGradient7326"
             x1="11.7"
             y1="9.3644714"
             x2="11.7"
             y2="37.235439"
             gradientUnits="userSpaceOnUse" />
        <linearGradient
             inkscape:collect="always"
             xlink:href="#linearGradient7622"
             id="linearGradient7628"
             x1="24"
             y1="7"
             x2="24"
             y2="43"
             gradientUnits="userSpaceOnUse" />
    </defs>
    <sodipodi:namedview
         id="base"
         pagecolor="#ffffff"
         bordercolor="#666666"
         borderopacity="1.0"
         inkscape:pageopacity="0.0"
         inkscape:pageshadow="2"
         inkscape:zoom="1"
         inkscape:cx="37.35"
         inkscape:cy="29.377956"
         inkscape:document-units="px"
         inkscape:current-layer="layer1"
         showgrid="false"
         inkscape:showpageshadow="false"
         inkscape:window-width="1360"
         inkscape:window-height="706"
         inkscape:window-x="-8"
         inkscape:window-y="-8"
         inkscape:window-maximized="1">
        <inkscape:grid
             type="xygrid"
             id="grid6334"
             empspacing="12"
             visible="true"
             enabled="true"
             snapvisiblegridlinesonly="true" />
    </sodipodi:namedview>
    <metadata
         id="metadata7">
        <rdf:RDF>
            <cc:Work
                 rdf:about="">
                <dc:format>image/svg+xml</dc:format>
                <dc:type
                     rdf:resource="http://purl.org/dc/dcmitype/StillImage" />
            </cc:Work>
        </rdf:RDF>
    </metadata>
    <g
         inkscape:label="Layer 1"
         inkscape:groupmode="layer"
         id="layer1"
         transform="translate(0,-1004.3622)">
        <g
             id="g6336"
             style="opacity:0.6">
            <rect
                 style="opacity:1;fill:url(#radialGradient6332);fill-opacity:1;stroke:none"
                 id="rect2801-5-5-7-9"
                 y="1046.3623"
                 x="42"
                 height="4"
                 width="4" />
            <rect
                 style="opacity:1;fill:url(#radialGradient6329);fill-opacity:1;stroke:none"
                 id="rect3696-3-0-3-7"
                 transform="scale(-1,-1)"
                 y="-1050.3623"
                 x="-6"
                 height="4"
                 width="4" />
            <rect
                 style="opacity:1;fill:url(#linearGradient6326);fill-opacity:1;stroke:none"
                 id="rect3700-5-6-8-4"
                 y="1046.3623"
                 x="6"
                 height="4"
                 width="36" />
        </g>
        <rect
             style="color:#000000;fill:url(#radialGradient20986);fill-opacity:1;fill-rule:nonzero;stroke:none;stroke-width:0.99999994;marker:none;visibility:visible;display:inline;overflow:visible;enable-background:accumulate"
             id="rect5505-21-3-8-5-2"
             y="1009.8622"
             x="4.5"
             ry="2"
             rx="2"
             height="39"
             width="39" />
        <rect
             style="opacity:0.3;fill:none;stroke:url(#linearGradient20983);stroke-width:1;stroke-linecap:round;stroke-linejoin:round;stroke-miterlimit:4;stroke-opacity:1;stroke-dasharray:none;stroke-dashoffset:0"
             id="rect6741-5-0-2-3"
             y="1010.8622"
             x="5.499999"
             ry="1"
             rx="1"
             height="37"
             width="37" />
        <rect
             style="opacity:0.6;color:#000000;fill:none;stroke:#542f57;stroke-width:1;stroke-linecap:round;stroke-linejoin:round;stroke-miterlimit:4;stroke-opacity:1;stroke-dasharray:none;stroke-dashoffset:0;marker:none;visibility:visible;display:inline;overflow:visible;enable-background:accumulate"
             id="rect5505-21-3-8-9-1-1"
             y="4.499999"
             x="-1048.8622"
             ry="2"
             rx="2"
             height="39"
             width="39"
             transform="matrix(0,-1,1,0,0,0)" />
        <path
             style="opacity:0.07;fill:#ffffff;fill-opacity:1;fill-rule:nonzero;stroke:none"
             d="M 18.15625 8.5 C 18.066824 8.6498652 18 8.8120987 18 9 C 18 9.554 18.446 10 19 10 L 20 10 C 20.554 10 21 9.554 21 9 C 21 8.8120987 20.933176 8.6498652 20.84375 8.5 C 20.669517 8.7919909 20.366099 9 20 9 L 19 9 C 18.633901 9 18.330483 8.7919909 18.15625 8.5 z M 18.15625 11.5 C 18.066824 11.649865 18 11.812099 18 12 C 18 12.554 18.446 13 19 13 L 20 13 C 20.554 13 21 12.554 21 12 C 21 11.812099 20.933176 11.649865 20.84375 11.5 C 20.669517 11.791991 20.366099 12 20 12 L 19 12 C 18.633901 12 18.330483 11.791991 18.15625 11.5 z M 22.15625 11.5 C 22.066824 11.649865 22 11.812099 22 12 C 22 12.554 22.446 13 23 13 L 25 13 C 25.554 13 26 12.554 26 12 C 26 11.812099 25.933176 11.649865 25.84375 11.5 C 25.669517 11.791991 25.366099 12 25 12 L 23 12 C 22.633901 12 22.330483 11.791991 22.15625 11.5 z M 27.15625 11.5 C 27.066824 11.649865 27 11.812099 27 12 C 27 12.554 27.446 13 28 13 L 29 13 C 29.554 13 30 12.554 30 12 C 30 11.812099 29.933176 11.649865 29.84375 11.5 C 29.669517 11.791991 29.366099 12 29 12 L 28 12 C 27.633901 12 27.330483 11.791991 27.15625 11.5 z M 35.15625 11.5 C 35.066824 11.649865 35 11.812099 35 12 C 35 12.554 35.446 13 36 13 L 37 13 C 37.554 13 38 12.554 38 12 C 38 11.812099 37.933176 11.649865 37.84375 11.5 C 37.669517 11.791991 37.366099 12 37 12 L 36 12 C 35.633901 12 35.330483 11.791991 35.15625 11.5 z M 10.15625 14.5 C 10.066824 14.649865 10 14.812099 10 15 C 10 15.554 10.446 16 11 16 L 12 16 C 12.554 16 13 15.554 13 15 C 13 14.812099 12.933176 14.649865 12.84375 14.5 C 12.669517 14.791991 12.366099 15 12 15 L 11 15 C 10.633901 15 10.330483 14.791991 10.15625 14.5 z M 18.15625 14.5 C 18.066824 14.649865 18 14.812099 18 15 C 18 15.554 18.446 16 19 16 L 20 16 C 20.554 16 21 15.554 21 15 C 21 14.812099 20.933176 14.649865 20.84375 14.5 C 20.669517 14.791991 20.366099 15 20 15 L 19 15 C 18.633901 15 18.330483 14.791991 18.15625 14.5 z M 22.15625 14.5 C 22.066824 14.649865 22 14.812099 22 15 C 22 15.554 22.446 16 23 16 L 25 16 C 25.554 16 26 15.554 26 15 C 26 14.812099 25.933176 14.649865 25.84375 14.5 C 25.669517 14.791991 25.366099 15 25 15 L 23 15 C 22.633901 15 22.330483 14.791991 22.15625 14.5 z M 27.15625 14.5 C 27.066824 14.649865 27 14.812099 27 15 C 27 15.554 27.446 16 28 16 L 29 16 C 29.554 16 30 15.554 30 15 C 30 14.812099 29.933176 14.649865 29.84375 14.5 C 29.669517 14.791991 29.366099 15 29 15 L 28 15 C 27.633901 15 27.330483 14.791991 27.15625 14.5 z M 35.15625 14.5 C 35.066824 14.649865 35 14.812099 35 15 C 35 15.554 35.446 16 36 16 L 37 16 C 37.554 16 38 15.554 38 15 C 38 14.812099 37.933176 14.649865 37.84375 14.5 C 37.669517 14.791991 37.366099 15 37 15 L 36 15 C 35.633901 15 35.330483 14.791991 35.15625 14.5 z M 10.15625 17.5 C 10.066824 17.649865 10 17.812099 10 18 C 10 18.554 10.446 19 11 19 L 12 19 C 12.554 19 13 18.554 13 18 C 13 17.812099 12.933176 17.649865 12.84375 17.5 C 12.669517 17.791991 12.366099 18 12 18 L 11 18 C 10.633901 18 10.330483 17.791991 10.15625 17.5 z M 14.15625 17.5 C 14.066824 17.649865 14 17.812099 14 18 C 14 18.554 14.446 19 15 19 L 16 19 C 16.554 19 17 18.554 17 18 C 17 17.812099 16.933176 17.649865 16.84375 17.5 C 16.669517 17.791991 16.366099 18 16 18 L 15 18 C 14.633901 18 14.330483 17.791991 14.15625 17.5 z M 18.15625 17.5 C 18.066824 17.649865 18 17.812099 18 18 C 18 18.554 18.446 19 19 19 L 20 19 C 20.554 19 21 18.554 21 18 C 21 17.812099 20.933176 17.649865 20.84375 17.5 C 20.669517 17.791991 20.366099 18 20 18 L 19 18 C 18.633901 18 18.330483 17.791991 18.15625 17.5 z M 22.15625 17.5 C 22.066824 17.649865 22 17.812099 22 18 C 22 18.554 22.446 19 23 19 L 25 19 C 25.554 19 26 18.554 26 18 C 26 17.812099 25.933176 17.649865 25.84375 17.5 C 25.669517 17.791991 25.366099 18 25 18 L 23 18 C 22.633901 18 22.330483 17.791991 22.15625 17.5 z M 27.15625 17.5 C 27.066824 17.649865 27 17.812099 27 18 C 27 18.554 27.446 19 28 19 L 29 19 C 29.554 19 30 18.554 30 18 C 30 17.812099 29.933176 17.649865 29.84375 17.5 C 29.669517 17.791991 29.366099 18 29 18 L 28 18 C 27.633901 18 27.330483 17.791991 27.15625 17.5 z M 35.15625 17.5 C 35.066824 17.649865 35 17.812099 35 18 C 35 18.554 35.446 19 36 19 L 37 19 C 37.554 19 38 18.554 38 18 C 38 17.812099 37.933176 17.649865 37.84375 17.5 C 37.669517 17.791991 37.366099 18 37 18 L 36 18 C 35.633901 18 35.330483 17.791991 35.15625 17.5 z M 6.15625 20.5 C 6.0668244 20.649865 6 20.812099 6 21 C 6 21.554 6.446 22 7 22 L 8 22 C 8.554 22 9 21.554 9 21 C 9 20.812099 8.9331756 20.649865 8.84375 20.5 C 8.669517 20.791991 8.3660987 21 8 21 L 7 21 C 6.6339013 21 6.330483 20.791991 6.15625 20.5 z M 10.15625 20.5 C 10.066824 20.649865 10 20.812099 10 21 C 10 21.554 10.446 22 11 22 L 12 22 C 12.554 22 13 21.554 13 21 C 13 20.812099 12.933176 20.649865 12.84375 20.5 C 12.669517 20.791991 12.366099 21 12 21 L 11 21 C 10.633901 21 10.330483 20.791991 10.15625 20.5 z M 14.15625 20.5 C 14.066824 20.649865 14 20.812099 14 21 C 14 21.554 14.446 22 15 22 L 16 22 C 16.554 22 17 21.554 17 21 C 17 20.812099 16.933176 20.649865 16.84375 20.5 C 16.669517 20.791991 16.366099 21 16 21 L 15 21 C 14.633901 21 14.330483 20.791991 14.15625 20.5 z M 18.15625 20.5 C 18.066824 20.649865 18 20.812099 18 21 C 18 21.554 18.446 22 19 22 L 20 22 C 20.554 22 21 21.554 21 21 C 21 20.812099 20.933176 20.649865 20.84375 20.5 C 20.669517 20.791991 20.366099 21 20 21 L 19 21 C 18.633901 21 18.330483 20.791991 18.15625 20.5 z M 22.15625 20.5 C 22.066824 20.649865 22 20.812099 22 21 C 22 21.554 22.446 22 23 22 L 25 22 C 25.554 22 26 21.554 26 21 C 26 20.812099 25.933176 20.649865 25.84375 20.5 C 25.669517 20.791991 25.366099 21 25 21 L 23 21 C 22.633901 21 22.330483 20.791991 22.15625 20.5 z M 27.15625 20.5 C 27.066824 20.649865 27 20.812099 27 21 C 27 21.554 27.446 22 28 22 L 29 22 C 29.554 22 30 21.554 30 21 C 30 20.812099 29.933176 20.649865 29.84375 20.5 C 29.669517 20.791991 29.366099 21 29 21 L 28 21 C 27.633901 21 27.330483 20.791991 27.15625 20.5 z M 31.15625 20.5 C 31.066824 20.649865 31 20.812099 31 21 C 31 21.554 31.446 22 32 22 L 33 22 C 33.554 22 34 21.554 34 21 C 34 20.812099 33.933176 20.649865 33.84375 20.5 C 33.669517 20.791991 33.366099 21 33 21 L 32 21 C 31.633901 21 31.330483 20.791991 31.15625 20.5 z M 35.15625 20.5 C 35.066824 20.649865 35 20.812099 35 21 C 35 21.554 35.446 22 36 22 L 37 22 C 37.554 22 38 21.554 38 21 C 38 20.812099 37.933176 20.649865 37.84375 20.5 C 37.669517 20.791991 37.366099 21 37 21 L 36 21 C 35.633901 21 35.330483 20.791991 35.15625 20.5 z M 39.15625 20.5 C 39.066824 20.649865 39 20.812099 39 21 C 39 21.554 39.446 22 40 22 L 41 22 C 41.554 22 42 21.554 42 21 C 42 20.812099 41.933176 20.649865 41.84375 20.5 C 41.669517 20.791991 41.366099 21 41 21 L 40 21 C 39.633901 21 39.330483 20.791991 39.15625 20.5 z M 6.15625 23.5 C 6.0668244 23.649865 6 23.812099 6 24 C 6 24.554 6.446 25 7 25 L 8 25 C 8.554 25 9 24.554 9 24 C 9 23.812099 8.9331756 23.649865 8.84375 23.5 C 8.669517 23.791991 8.3660987 24 8 24 L 7 24 C 6.6339013 24 6.330483 23.791991 6.15625 23.5 z M 10.15625 23.5 C 10.066824 23.649865 10 23.812099 10 24 C 10 24.554 10.446 25 11 25 L 12 25 C 12.554 25 13 24.554 13 24 C 13 23.812099 12.933176 23.649865 12.84375 23.5 C 12.669517 23.791991 12.366099 24 12 24 L 11 24 C 10.633901 24 10.330483 23.791991 10.15625 23.5 z M 14.15625 23.5 C 14.066824 23.649865 14 23.812099 14 24 C 14 24.554 14.446 25 15 25 L 16 25 C 16.554 25 17 24.554 17 24 C 17 23.812099 16.933176 23.649865 16.84375 23.5 C 16.669517 23.791991 16.366099 24 16 24 L 15 24 C 14.633901 24 14.330483 23.791991 14.15625 23.5 z M 18.15625 23.5 C 18.066824 23.649865 18 23.812099 18 24 C 18 24.554 18.446 25 19 25 L 20 25 C 20.554 25 21 24.554 21 24 C 21 23.812099 20.933176 23.649865 20.84375 23.5 C 20.669517 23.791991 20.366099 24 20 24 L 19 24 C 18.633901 24 18.330483 23.791991 18.15625 23.5 z M 22.15625 23.5 C 22.066824 23.649865 22 23.812099 22 24 C 22 24.554 22.446 25 23 25 L 25 25 C 25.554 25 26 24.554 26 24 C 26 23.812099 25.933176 23.649865 25.84375 23.5 C 25.669517 23.791991 25.366099 24 25 24 L 23 24 C 22.633901 24 22.330483 23.791991 22.15625 23.5 z M 27.15625 23.5 C 27.066824 23.649865 27 23.812099 27 24 C 27 24.554 27.446 25 28 25 L 29 25 C 29.554 25 30 24.554 30 24 C 30 23.812099 29.933176 23.649865 29.84375 23.5 C 29.669517 23.791991 29.366099 24 29 24 L 28 24 C 27.633901 24 27.330483 23.791991 27.15625 23.5 z M 31.15625 23.5 C 31.066824 23.649865 31 23.812099 31 24 C 31 24.554 31.446 25 32 25 L 33 25 C 33.554 25 34 24.554 34 24 C 34 23.812099 33.933176 23.649865 33.84375 23.5 C 33.669517 23.791991 33.366099 24 33 24 L 32 24 C 31.633901 24 31.330483 23.791991 31.15625 23.5 z M 35.15625 23.5 C 35.066824 23.649865 35 23.812099 35 24 C 35 24.554 35.446 25 36 25 L 37 25 C 37.554 25 38 24.554 38 24 C 38 23.812099 37.933176 23.649865 37.84375 23.5 C 37.669517 23.791991 37.366099 24 37 24 L 36 24 C 35.633901 24 35.330483 23.791991 35.15625 23.5 z M 39.15625 23.5 C 39.066824 23.649865 39 23.812099 39 24 C 39 24.554 39.446 25 40 25 L 41 25 C 41.554 25 42 24.554 42 24 C 42 23.812099 41.933176 23.649865 41.84375 23.5 C 41.669517 23.791991 41.366099 24 41 24 L 40 24 C 39.633901 24 39.330483 23.791991 39.15625 23.5 z M 6.15625 27.5 C 6.0668244 27.649865 6 27.812099 6 28 C 6 28.554 6.446 29 7 29 L 8 29 C 8.554 29 9 28.554 9 28 C 9 27.812099 8.9331756 27.649865 8.84375 27.5 C 8.669517 27.791991 8.3660987 28 8 28 L 7 28 C 6.6339013 28 6.330483 27.791991 6.15625 27.5 z M 10.15625 27.5 C 10.066824 27.649865 10 27.812099 10 28 C 10 28.554 10.446 29 11 29 L 12 29 C 12.554 29 13 28.554 13 28 C 13 27.812099 12.933176 27.649865 12.84375 27.5 C 12.669517 27.791991 12.366099 28 12 28 L 11 28 C 10.633901 28 10.330483 27.791991 10.15625 27.5 z M 14.15625 27.5 C 14.066824 27.649865 14 27.812099 14 28 C 14 28.554 14.446 29 15 29 L 16 29 C 16.554 29 17 28.554 17 28 C 17 27.812099 16.933176 27.649865 16.84375 27.5 C 16.669517 27.791991 16.366099 28 16 28 L 15 28 C 14.633901 28 14.330483 27.791991 14.15625 27.5 z M 18.15625 27.5 C 18.066824 27.649865 18 27.812099 18 28 C 18 28.554 18.446 29 19 29 L 20 29 C 20.554 29 21 28.554 21 28 C 21 27.812099 20.933176 27.649865 20.84375 27.5 C 20.669517 27.791991 20.366099 28 20 28 L 19 28 C 18.633901 28 18.330483 27.791991 18.15625 27.5 z M 22.15625 27.5 C 22.066824 27.649865 22 27.812099 22 28 C 22 28.554 22.446 29 23 29 L 25 29 C 25.554 29 26 28.554 26 28 C 26 27.812099 25.933176 27.649865 25.84375 27.5 C 25.669517 27.791991 25.366099 28 25 28 L 23 28 C 22.633901 28 22.330483 27.791991 22.15625 27.5 z M 27.15625 27.5 C 27.066824 27.649865 27 27.812099 27 28 C 27 28.554 27.446 29 28 29 L 29 29 C 29.554 29 30 28.554 30 28 C 30 27.812099 29.933176 27.649865 29.84375 27.5 C 29.669517 27.791991 29.366099 28 29 28 L 28 28 C 27.633901 28 27.330483 27.791991 27.15625 27.5 z M 31.15625 27.5 C 31.066824 27.649865 31 27.812099 31 28 C 31 28.554 31.446 29 32 29 L 33 29 C 33.554 29 34 28.554 34 28 C 34 27.812099 33.933176 27.649865 33.84375 27.5 C 33.669517 27.791991 33.366099 28 33 28 L 32 28 C 31.633901 28 31.330483 27.791991 31.15625 27.5 z M 35.15625 27.5 C 35.066824 27.649865 35 27.812099 35 28 C 35 28.554 35.446 29 36 29 L 37 29 C 37.554 29 38 28.554 38 28 C 38 27.812099 37.933176 27.649865 37.84375 27.5 C 37.669517 27.791991 37.366099 28 37 28 L 36 28 C 35.633901 28 35.330483 27.791991 35.15625 27.5 z M 39.15625 27.5 C 39.066824 27.649865 39 27.812099 39 28 C 39 28.554 39.446 29 40 29 L 41 29 C 41.554 29 42 28.554 42 28 C 42 27.812099 41.933176 27.649865 41.84375 27.5 C 41.669517 27.791991 41.366099 28 41 28 L 40 28 C 39.633901 28 39.330483 27.791991 39.15625 27.5 z M 6.15625 30.5 C 6.0668244 30.649865 6 30.812099 6 31 C 6 31.554 6.446 32 7 32 L 8 32 C 8.554 32 9 31.554 9 31 C 9 30.812099 8.9331756 30.649865 8.84375 30.5 C 8.669517 30.791991 8.3660987 31 8 31 L 7 31 C 6.6339013 31 6.330483 30.791991 6.15625 30.5 z M 14.15625 30.5 C 14.066824 30.649865 14 30.812099 14 31 C 14 31.554 14.446 32 15 32 L 16 32 C 16.554 32 17 31.554 17 31 C 17 30.812099 16.933176 30.649865 16.84375 30.5 C 16.669517 30.791991 16.366099 31 16 31 L 15 31 C 14.633901 31 14.330483 30.791991 14.15625 30.5 z M 18.15625 30.5 C 18.066824 30.649865 18 30.812099 18 31 C 18 31.554 18.446 32 19 32 L 20 32 C 20.554 32 21 31.554 21 31 C 21 30.812099 20.933176 30.649865 20.84375 30.5 C 20.669517 30.791991 20.366099 31 20 31 L 19 31 C 18.633901 31 18.330483 30.791991 18.15625 30.5 z M 22.15625 30.5 C 22.066824 30.649865 22 30.812099 22 31 C 22 31.554 22.446 32 23 32 L 25 32 C 25.554 32 26 31.554 26 31 C 26 30.812099 25.933176 30.649865 25.84375 30.5 C 25.669517 30.791991 25.366099 31 25 31 L 23 31 C 22.633901 31 22.330483 30.791991 22.15625 30.5 z M 27.15625 30.5 C 27.066824 30.649865 27 30.812099 27 31 C 27 31.554 27.446 32 28 32 L 29 32 C 29.554 32 30 31.554 30 31 C 30 30.812099 29.933176 30.649865 29.84375 30.5 C 29.669517 30.791991 29.366099 31 29 31 L 28 31 C 27.633901 31 27.330483 30.791991 27.15625 30.5 z M 31.15625 30.5 C 31.066824 30.649865 31 30.812099 31 31 C 31 31.554 31.446 32 32 32 L 33 32 C 33.554 32 34 31.554 34 31 C 34 30.812099 33.933176 30.649865 33.84375 30.5 C 33.669517 30.791991 33.366099 31 33 31 L 32 31 C 31.633901 31 31.330483 30.791991 31.15625 30.5 z M 35.15625 30.5 C 35.066824 30.649865 35 30.812099 35 31 C 35 31.554 35.446 32 36 32 L 37 32 C 37.554 32 38 31.554 38 31 C 38 30.812099 37.933176 30.649865 37.84375 30.5 C 37.669517 30.791991 37.366099 31 37 31 L 36 31 C 35.633901 31 35.330483 30.791991 35.15625 30.5 z M 39.15625 30.5 C 39.066824 30.649865 39 30.812099 39 31 C 39 31.554 39.446 32 40 32 L 41 32 C 41.554 32 42 31.554 42 31 C 42 30.812099 41.933176 30.649865 41.84375 30.5 C 41.669517 30.791991 41.366099 31 41 31 L 40 31 C 39.633901 31 39.330483 30.791991 39.15625 30.5 z M 6.15625 33.5 C 6.0668244 33.649865 6 33.812099 6 34 C 6 34.554 6.446 35 7 35 L 8 35 C 8.554 35 9 34.554 9 34 C 9 33.812099 8.9331756 33.649865 8.84375 33.5 C 8.669517 33.791991 8.3660987 34 8 34 L 7 34 C 6.6339013 34 6.330483 33.791991 6.15625 33.5 z M 14.15625 33.5 C 14.066824 33.649865 14 33.812099 14 34 C 14 34.554 14.446 35 15 35 L 16 35 C 16.554 35 17 34.554 17 34 C 17 33.812099 16.933176 33.649865 16.84375 33.5 C 16.669517 33.791991 16.366099 34 16 34 L 15 34 C 14.633901 34 14.330483 33.791991 14.15625 33.5 z M 18.15625 33.5 C 18.066824 33.649865 18 33.812099 18 34 C 18 34.554 18.446 35 19 35 L 20 35 C 20.554 35 21 34.554 21 34 C 21 33.812099 20.933176 33.649865 20.84375 33.5 C 20.669517 33.791991 20.366099 34 20 34 L 19 34 C 18.633901 34 18.330483 33.791991 18.15625 33.5 z M 22.15625 33.5 C 22.066824 33.649865 22 33.812099 22 34 C 22 34.554 22.446 35 23 35 L 25 35 C 25.554 35 26 34.554 26 34 C 26 33.812099 25.933176 33.649865 25.84375 33.5 C 25.669517 33.791991 25.366099 34 25 34 L 23 34 C 22.633901 34 22.330483 33.791991 22.15625 33.5 z M 31.15625 33.5 C 31.066824 33.649865 31 33.812099 31 34 C 31 34.554 31.446 35 32 35 L 33 35 C 33.554 35 34 34.554 34 34 C 34 33.812099 33.933176 33.649865 33.84375 33.5 C 33.669517 33.791991 33.366099 34 33 34 L 32 34 C 31.633901 34 31.330483 33.791991 31.15625 33.5 z M 35.15625 33.5 C 35.066824 33.649865 35 33.812099 35 34 C 35 34.554 35.446 35 36 35 L 37 35 C 37.554 35 38 34.554 38 34 C 38 33.812099 37.933176 33.649865 37.84375 33.5 C 37.669517 33.791991 37.366099 34 37 34 L 36 34 C 35.633901 34 35.330483 33.791991 35.15625 33.5 z M 39.15625 33.5 C 39.066824 33.649865 39 33.812099 39 34 C 39 34.554 39.446 35 40 35 L 41 35 C 41.554 35 42 34.554 42 34 C 42 33.812099 41.933176 33.649865 41.84375 33.5 C 41.669517 33.791991 41.366099 34 41 34 L 40 34 C 39.633901 34 39.330483 33.791991 39.15625 33.5 z M 14.15625 36.5 C 14.066824 36.649865 14 36.812099 14 37 C 14 37.554 14.446 38 15 38 L 16 38 C 16.554 38 17 37.554 17 37 C 17 36.812099 16.933176 36.649865 16.84375 36.5 C 16.669517 36.791991 16.366099 37 16 37 L 15 37 C 14.633901 37 14.330483 36.791991 14.15625 36.5 z M 18.15625 36.5 C 18.066824 36.649865 18 36.812099 18 37 C 18 37.554 18.446 38 19 38 L 20 38 C 20.554 38 21 37.554 21 37 C 21 36.812099 20.933176 36.649865 20.84375 36.5 C 20.669517 36.791991 20.366099 37 20 37 L 19 37 C 18.633901 37 18.330483 36.791991 18.15625 36.5 z M 31.15625 36.5 C 31.066824 36.649865 31 36.812099 31 37 C 31 37.554 31.446 38 32 38 L 33 38 C 33.554 38 34 37.554 34 37 C 34 36.812099 33.933176 36.649865 33.84375 36.5 C 33.669517 36.791991 33.366099 37 33 37 L 32 37 C 31.633901 37 31.330483 36.791991 31.15625 36.5 z M 35.15625 36.5 C 35.066824 36.649865 35 36.812099 35 37 C 35 37.554 35.446 38 36 38 L 37 38 C 37.554 38 38 37.554 38 37 C 38 36.812099 37.933176 36.649865 37.84375 36.5 C 37.669517 36.791991 37.366099 37 37 37 L 36 37 C 35.633901 37 35.330483 36.791991 35.15625 36.5 z M 39.15625 36.5 C 39.066824 36.649865 39 36.812099 39 37 C 39 37.554 39.446 38 40 38 L 41 38 C 41.554 38 42 37.554 42 37 C 42 36.812099 41.933176 36.649865 41.84375 36.5 C 41.669517 36.791991 41.366099 37 41 37 L 40 37 C 39.633901 37 39.330483 36.791991 39.15625 36.5 z M 14.15625 39.5 C 14.066824 39.649865 14 39.812099 14 40 C 14 40.554 14.446 41 15 41 L 16 41 C 16.554 41 17 40.554 17 40 C 17 39.812099 16.933176 39.649865 16.84375 39.5 C 16.669517 39.791991 16.366099 40 16 40 L 15 40 C 14.633901 40 14.330483 39.791991 14.15625 39.5 z M 18.15625 39.5 C 18.066824 39.649865 18 39.812099 18 40 C 18 40.554 18.446 41 19 41 L 20 41 C 20.554 41 21 40.554 21 40 C 21 39.812099 20.933176 39.649865 20.84375 39.5 C 20.669517 39.791991 20.366099 40 20 40 L 19 40 C 18.633901 40 18.330483 39.791991 18.15625 39.5 z M 31.15625 39.5 C 31.066824 39.649865 31 39.812099 31 40 C 31 40.554 31.446 41 32 41 L 33 41 C 33.554 41 34 40.554 34 40 C 34 39.812099 33.933176 39.649865 33.84375 39.5 C 33.669517 39.791991 33.366099 40 33 40 L 32 40 C 31.633901 40 31.330483 39.791991 31.15625 39.5 z M 35.15625 39.5 C 35.066824 39.649865 35 39.812099 35 40 C 35 40.554 35.446 41 36 41 L 37 41 C 37.554 41 38 40.554 38 40 C 38 39.812099 37.933176 39.649865 37.84375 39.5 C 37.669517 39.791991 37.366099 40 37 40 L 36 40 C 35.633901 40 35.330483 39.791991 35.15625 39.5 z M 14.15625 42.5 C 14.066824 42.649865 14 42.812099 14 43 C 14 43.554 14.446 44 15 44 L 16 44 C 16.554 44 17 43.554 17 43 C 17 42.812099 16.933176 42.649865 16.84375 42.5 C 16.669517 42.791991 16.366099 43 16 43 L 15 43 C 14.633901 43 14.330483 42.791991 14.15625 42.5 z "
             transform="translate(0,1004.3622)"
             id="path7632" />
        <path
             style="opacity:0.14;fill:url(#linearGradient7628);fill-opacity:1;fill-rule:nonzero;stroke:none"
             d="M 19 7 C 18.446 7 18 7.446 18 8 C 18 8.554 18.446 9 19 9 L 20 9 C 20.554 9 21 8.554 21 8 C 21 7.446 20.554 7 20 7 L 19 7 z M 19 10 C 18.446 10 18 10.446 18 11 C 18 11.554 18.446 12 19 12 L 20 12 C 20.554 12 21 11.554 21 11 C 21 10.446 20.554 10 20 10 L 19 10 z M 23 10 C 22.446 10 22 10.446 22 11 C 22 11.554 22.446 12 23 12 L 25 12 C 25.554 12 26 11.554 26 11 C 26 10.446 25.554 10 25 10 L 23 10 z M 28 10 C 27.446 10 27 10.446 27 11 C 27 11.554 27.446 12 28 12 L 29 12 C 29.554 12 30 11.554 30 11 C 30 10.446 29.554 10 29 10 L 28 10 z M 36 10 C 35.446 10 35 10.446 35 11 C 35 11.554 35.446 12 36 12 L 37 12 C 37.554 12 38 11.554 38 11 C 38 10.446 37.554 10 37 10 L 36 10 z M 11 13 C 10.446 13 10 13.446 10 14 C 10 14.554 10.446 15 11 15 L 12 15 C 12.554 15 13 14.554 13 14 C 13 13.446 12.554 13 12 13 L 11 13 z M 19 13 C 18.446 13 18 13.446 18 14 C 18 14.554 18.446 15 19 15 L 20 15 C 20.554 15 21 14.554 21 14 C 21 13.446 20.554 13 20 13 L 19 13 z M 23 13 C 22.446 13 22 13.446 22 14 C 22 14.554 22.446 15 23 15 L 25 15 C 25.554 15 26 14.554 26 14 C 26 13.446 25.554 13 25 13 L 23 13 z M 28 13 C 27.446 13 27 13.446 27 14 C 27 14.554 27.446 15 28 15 L 29 15 C 29.554 15 30 14.554 30 14 C 30 13.446 29.554 13 29 13 L 28 13 z M 36 13 C 35.446 13 35 13.446 35 14 C 35 14.554 35.446 15 36 15 L 37 15 C 37.554 15 38 14.554 38 14 C 38 13.446 37.554 13 37 13 L 36 13 z M 11 16 C 10.446 16 10 16.446 10 17 C 10 17.554 10.446 18 11 18 L 12 18 C 12.554 18 13 17.554 13 17 C 13 16.446 12.554 16 12 16 L 11 16 z M 15 16 C 14.446 16 14 16.446 14 17 C 14 17.554 14.446 18 15 18 L 16 18 C 16.554 18 17 17.554 17 17 C 17 16.446 16.554 16 16 16 L 15 16 z M 19 16 C 18.446 16 18 16.446 18 17 C 18 17.554 18.446 18 19 18 L 20 18 C 20.554 18 21 17.554 21 17 C 21 16.446 20.554 16 20 16 L 19 16 z M 23 16 C 22.446 16 22 16.446 22 17 C 22 17.554 22.446 18 23 18 L 25 18 C 25.554 18 26 17.554 26 17 C 26 16.446 25.554 16 25 16 L 23 16 z M 28 16 C 27.446 16 27 16.446 27 17 C 27 17.554 27.446 18 28 18 L 29 18 C 29.554 18 30 17.554 30 17 C 30 16.446 29.554 16 29 16 L 28 16 z M 36 16 C 35.446 16 35 16.446 35 17 C 35 17.554 35.446 18 36 18 L 37 18 C 37.554 18 38 17.554 38 17 C 38 16.446 37.554 16 37 16 L 36 16 z M 7 19 C 6.446 19 6 19.446 6 20 C 6 20.554 6.446 21 7 21 L 8 21 C 8.554 21 9 20.554 9 20 C 9 19.446 8.554 19 8 19 L 7 19 z M 11 19 C 10.446 19 10 19.446 10 20 C 10 20.554 10.446 21 11 21 L 12 21 C 12.554 21 13 20.554 13 20 C 13 19.446 12.554 19 12 19 L 11 19 z M 15 19 C 14.446 19 14 19.446 14 20 C 14 20.554 14.446 21 15 21 L 16 21 C 16.554 21 17 20.554 17 20 C 17 19.446 16.554 19 16 19 L 15 19 z M 19 19 C 18.446 19 18 19.446 18 20 C 18 20.554 18.446 21 19 21 L 20 21 C 20.554 21 21 20.554 21 20 C 21 19.446 20.554 19 20 19 L 19 19 z M 23 19 C 22.446 19 22 19.446 22 20 C 22 20.554 22.446 21 23 21 L 25 21 C 25.554 21 26 20.554 26 20 C 26 19.446 25.554 19 25 19 L 23 19 z M 28 19 C 27.446 19 27 19.446 27 20 C 27 20.554 27.446 21 28 21 L 29 21 C 29.554 21 30 20.554 30 20 C 30 19.446 29.554 19 29 19 L 28 19 z M 32 19 C 31.446 19 31 19.446 31 20 C 31 20.554 31.446 21 32 21 L 33 21 C 33.554 21 34 20.554 34 20 C 34 19.446 33.554 19 33 19 L 32 19 z M 36 19 C 35.446 19 35 19.446 35 20 C 35 20.554 35.446 21 36 21 L 37 21 C 37.554 21 38 20.554 38 20 C 38 19.446 37.554 19 37 19 L 36 19 z M 40 19 C 39.446 19 39 19.446 39 20 C 39 20.554 39.446 21 40 21 L 41 21 C 41.554 21 42 20.554 42 20 C 42 19.446 41.554 19 41 19 L 40 19 z M 7 22 C 6.446 22 6 22.446 6 23 C 6 23.554 6.446 24 7 24 L 8 24 C 8.554 24 9 23.554 9 23 C 9 22.446 8.554 22 8 22 L 7 22 z M 11 22 C 10.446 22 10 22.446 10 23 C 10 23.554 10.446 24 11 24 L 12 24 C 12.554 24 13 23.554 13 23 C 13 22.446 12.554 22 12 22 L 11 22 z M 15 22 C 14.446 22 14 22.446 14 23 C 14 23.554 14.446 24 15 24 L 16 24 C 16.554 24 17 23.554 17 23 C 17 22.446 16.554 22 16 22 L 15 22 z M 19 22 C 18.446 22 18 22.446 18 23 C 18 23.554 18.446 24 19 24 L 20 24 C 20.554 24 21 23.554 21 23 C 21 22.446 20.554 22 20 22 L 19 22 z M 23 22 C 22.446 22 22 22.446 22 23 C 22 23.554 22.446 24 23 24 L 25 24 C 25.554 24 26 23.554 26 23 C 26 22.446 25.554 22 25 22 L 23 22 z M 28 22 C 27.446 22 27 22.446 27 23 C 27 23.554 27.446 24 28 24 L 29 24 C 29.554 24 30 23.554 30 23 C 30 22.446 29.554 22 29 22 L 28 22 z M 32 22 C 31.446 22 31 22.446 31 23 C 31 23.554 31.446 24 32 24 L 33 24 C 33.554 24 34 23.554 34 23 C 34 22.446 33.554 22 33 22 L 32 22 z M 36 22 C 35.446 22 35 22.446 35 23 C 35 23.554 35.446 24 36 24 L 37 24 C 37.554 24 38 23.554 38 23 C 38 22.446 37.554 22 37 22 L 36 22 z M 40 22 C 39.446 22 39 22.446 39 23 C 39 23.554 39.446 24 40 24 L 41 24 C 41.554 24 42 23.554 42 23 C 42 22.446 41.554 22 41 22 L 40 22 z M 7 26 C 6.446 26 6 26.446 6 27 C 6 27.554 6.446 28 7 28 L 8 28 C 8.554 28 9 27.554 9 27 C 9 26.446 8.554 26 8 26 L 7 26 z M 11 26 C 10.446 26 10 26.446 10 27 C 10 27.554 10.446 28 11 28 L 12 28 C 12.554 28 13 27.554 13 27 C 13 26.446 12.554 26 12 26 L 11 26 z M 15 26 C 14.446 26 14 26.446 14 27 C 14 27.554 14.446 28 15 28 L 16 28 C 16.554 28 17 27.554 17 27 C 17 26.446 16.554 26 16 26 L 15 26 z M 19 26 C 18.446 26 18 26.446 18 27 C 18 27.554 18.446 28 19 28 L 20 28 C 20.554 28 21 27.554 21 27 C 21 26.446 20.554 26 20 26 L 19 26 z M 23 26 C 22.446 26 22 26.446 22 27 C 22 27.554 22.446 28 23 28 L 25 28 C 25.554 28 26 27.554 26 27 C 26 26.446 25.554 26 25 26 L 23 26 z M 28 26 C 27.446 26 27 26.446 27 27 C 27 27.554 27.446 28 28 28 L 29 28 C 29.554 28 30 27.554 30 27 C 30 26.446 29.554 26 29 26 L 28 26 z M 32 26 C 31.446 26 31 26.446 31 27 C 31 27.554 31.446 28 32 28 L 33 28 C 33.554 28 34 27.554 34 27 C 34 26.446 33.554 26 33 26 L 32 26 z M 36 26 C 35.446 26 35 26.446 35 27 C 35 27.554 35.446 28 36 28 L 37 28 C 37.554 28 38 27.554 38 27 C 38 26.446 37.554 26 37 26 L 36 26 z M 40 26 C 39.446 26 39 26.446 39 27 C 39 27.554 39.446 28 40 28 L 41 28 C 41.554 28 42 27.554 42 27 C 42 26.446 41.554 26 41 26 L 40 26 z M 7 29 C 6.446 29 6 29.446 6 30 C 6 30.554 6.446 31 7 31 L 8 31 C 8.554 31 9 30.554 9 30 C 9 29.446 8.554 29 8 29 L 7 29 z M 15 29 C 14.446 29 14 29.446 14 30 C 14 30.554 14.446 31 15 31 L 16 31 C 16.554 31 17 30.554 17 30 C 17 29.446 16.554 29 16 29 L 15 29 z M 19 29 C 18.446 29 18 29.446 18 30 C 18 30.554 18.446 31 19 31 L 20 31 C 20.554 31 21 30.554 21 30 C 21 29.446 20.554 29 20 29 L 19 29 z M 23 29 C 22.446 29 22 29.446 22 30 C 22 30.554 22.446 31 23 31 L 25 31 C 25.554 31 26 30.554 26 30 C 26 29.446 25.554 29 25 29 L 23 29 z M 28 29 C 27.446 29 27 29.446 27 30 C 27 30.554 27.446 31 28 31 L 29 31 C 29.554 31 30 30.554 30 30 C 30 29.446 29.554 29 29 29 L 28 29 z M 32 29 C 31.446 29 31 29.446 31 30 C 31 30.554 31.446 31 32 31 L 33 31 C 33.554 31 34 30.554 34 30 C 34 29.446 33.554 29 33 29 L 32 29 z M 36 29 C 35.446 29 35 29.446 35 30 C 35 30.554 35.446 31 36 31 L 37 31 C 37.554 31 38 30.554 38 30 C 38 29.446 37.554 29 37 29 L 36 29 z M 40 29 C 39.446 29 39 29.446 39 30 C 39 30.554 39.446 31 40 31 L 41 31 C 41.554 31 42 30.554 42 30 C 42 29.446 41.554 29 41 29 L 40 29 z M 7 32 C 6.446 32 6 32.446 6 33 C 6 33.554 6.446 34 7 34 L 8 34 C 8.554 34 9 33.554 9 33 C 9 32.446 8.554 32 8 32 L 7 32 z M 15 32 C 14.446 32 14 32.446 14 33 C 14 33.554 14.446 34 15 34 L 16 34 C 16.554 34 17 33.554 17 33 C 17 32.446 16.554 32 16 32 L 15 32 z M 19 32 C 18.446 32 18 32.446 18 33 C 18 33.554 18.446 34 19 34 L 20 34 C 20.554 34 21 33.554 21 33 C 21 32.446 20.554 32 20 32 L 19 32 z M 23 32 C 22.446 32 22 32.446 22 33 C 22 33.554 22.446 34 23 34 L 25 34 C 25.554 34 26 33.554 26 33 C 26 32.446 25.554 32 25 32 L 23 32 z M 32 32 C 31.446 32 31 32.446 31 33 C 31 33.554 31.446 34 32 34 L 33 34 C 33.554 34 34 33.554 34 33 C 34 32.446 33.554 32 33 32 L 32 32 z M 36 32 C 35.446 32 35 32.446 35 33 C 35 33.554 35.446 34 36 34 L 37 34 C 37.554 34 38 33.554 38 33 C 38 32.446 37.554 32 37 32 L 36 32 z M 40 32 C 39.446 32 39 32.446 39 33 C 39 33.554 39.446 34 40 34 L 41 34 C 41.554 34 42 33.554 42 33 C 42 32.446 41.554 32 41 32 L 40 32 z M 15 35 C 14.446 35 14 35.446 14 36 C 14 36.554 14.446 37 15 37 L 16 37 C 16.554 37 17 36.554 17 36 C 17 35.446 16.554 35 16 35 L 15 35 z M 19 35 C 18.446 35 18 35.446 18 36 C 18 36.554 18.446 37 19 37 L 20 37 C 20.554 37 21 36.554 21 36 C 21 35.446 20.554 35 20 35 L 19 35 z M 32 35 C 31.446 35 31 35.446 31 36 C 31 36.554 31.446 37 32 37 L 33 37 C 33.554 37 34 36.554 34 36 C 34 35.446 33.554 35 33 35 L 32 35 z M 36 35 C 35.446 35 35 35.446 35 36 C 35 36.554 35.446 37 36 37 L 37 37 C 37.554 37 38 36.554 38 36 C 38 35.446 37.554 35 37 35 L 36 35 z M 40 35 C 39.446 35 39 35.446 39 36 C 39 36.554 39.446 37 40 37 L 41 37 C 41.554 37 42 36.554 42 36 C 42 35.446 41.554 35 41 35 L 40 35 z M 15 38 C 14.446 38 14 38.446 14 39 C 14 39.554 14.446 40 15 40 L 16 40 C 16.554 40 17 39.554 17 39 C 17 38.446 16.554 38 16 38 L 15 38 z M 19 38 C 18.446 38 18 38.446 18 39 C 18 39.554 18.446 40 19 40 L 20 40 C 20.554 40 21 39.554 21 39 C 21 38.446 20.554 38 20 38 L 19 38 z M 32 38 C 31.446 38 31 38.446 31 39 C 31 39.554 31.446 40 32 40 L 33 40 C 33.554 40 34 39.554 34 39 C 34 38.446 33.554 38 33 38 L 32 38 z M 36 38 C 35.446 38 35 38.446 35 39 C 35 39.554 35.446 40 36 40 L 37 40 C 37.554 40 38 39.554 38 39 C 38 38.446 37.554 38 37 38 L 36 38 z M 15 41 C 14.446 41 14 41.446 14 42 C 14 42.554 14.446 43 15 43 L 16 43 C 16.554 43 17 42.554 17 42 C 17 41.446 16.554 41 16 41 L 15 41 z "
             transform="translate(0,1004.3622)"
             id="rect7328" />
        <g
             id="g7184">
            <path
                 transform="matrix(1.3703704,0,0,1.3703704,7.966667,997.43257)"
                 d="m 25.2,23.299999 c 0,7.455844 -6.044156,13.5 -13.5,13.5 -7.4558443,0 -13.5000002,-6.044156 -13.5000002,-13.5 0,-7.455844 6.0441559,-13.4999998 13.5000002,-13.4999998 7.455844,0 13.5,6.0441558 13.5,13.4999998 z"
                 sodipodi:ry="13.5"
                 sodipodi:rx="13.5"
                 sodipodi:cy="23.299999"
                 sodipodi:cx="11.7"
                 id="path7109"
                 style="opacity:0.03;fill:none;stroke:#000000;stroke-width:0.72972970999999998;stroke-linecap:round;stroke-linejoin:round;stroke-miterlimit:4;stroke-opacity:1;stroke-dasharray:none;stroke-dashoffset:0"
                 sodipodi:type="arc" />
            <path
                 sodipodi:type="arc"
                 style="opacity:0.06;fill:none;stroke:#000000;stroke-width:0.77142858999999997;stroke-linecap:round;stroke-linejoin:round;stroke-miterlimit:4;stroke-opacity:1;stroke-dasharray:none;stroke-dashoffset:0"
                 id="path7111"
                 sodipodi:cx="11.7"
                 sodipodi:cy="23.299999"
                 sodipodi:rx="13.5"
                 sodipodi:ry="13.5"
                 d="m 25.2,23.299999 c 0,7.455844 -6.044156,13.5 -13.5,13.5 -7.4558443,0 -13.5000002,-6.044156 -13.5000002,-13.5 0,-7.455844 6.0441559,-13.4999998 13.5000002,-13.4999998 7.455844,0 13.5,6.0441558 13.5,13.4999998 z"
                 transform="matrix(1.2962963,0,0,1.2962963,8.8333336,999.1585)" />
            <path
                 transform="matrix(1.2222222,0,0,1.2222222,9.7000002,1000.8844)"
                 d="m 25.2,23.299999 c 0,7.455844 -6.044156,13.5 -13.5,13.5 -7.4558443,0 -13.5000002,-6.044156 -13.5000002,-13.5 0,-7.455844 6.0441559,-13.4999998 13.5000002,-13.4999998 7.455844,0 13.5,6.0441558 13.5,13.4999998 z"
                 sodipodi:ry="13.5"
                 sodipodi:rx="13.5"
                 sodipodi:cy="23.299999"
                 sodipodi:cx="11.7"
                 id="path7113"
                 style="opacity:0.12;fill:none;stroke:#000000;stroke-width:0.81818181000000001;stroke-linecap:round;stroke-linejoin:round;stroke-miterlimit:4;stroke-opacity:1;stroke-dasharray:none;stroke-dashoffset:0"
                 sodipodi:type="arc" />
            <path
                 sodipodi:type="arc"
                 style="opacity:1;fill:none;stroke:#ffffff;stroke-width:0.87096775000000004;stroke-linecap:round;stroke-linejoin:round;stroke-miterlimit:4;stroke-opacity:1;stroke-dasharray:none;stroke-dashoffset:0"
                 id="path7115"
                 sodipodi:cx="11.7"
                 sodipodi:cy="23.299999"
                 sodipodi:rx="13.5"
                 sodipodi:ry="13.5"
                 d="m 25.2,23.299999 c 0,7.455844 -6.044156,13.5 -13.5,13.5 -7.4558443,0 -13.5000002,-6.044156 -13.5000002,-13.5 0,-7.455844 6.0441559,-13.4999998 13.5000002,-13.4999998 7.455844,0 13.5,6.0441558 13.5,13.4999998 z"
                 transform="matrix(1.1481481,0,0,1.1481481,10.566667,1002.6104)" />
            <path
                 sodipodi:open="true"
                 sodipodi:end="7.5049158"
                 sodipodi:start="1.9198622"
                 transform="matrix(1.0740741,0,0,1.0740741,11.433334,1004.3363)"
                 d="M 7.0827276,35.98585 C 0.07652594,33.4358 -3.5358995,25.688929 -0.98585047,18.682727 1.5641986,11.676525 9.3110704,8.0640999 16.317272,10.614149 c 7.006202,2.550049 10.618627,10.296921 8.068578,17.303122 -1.364833,3.749847 -4.318731,6.703746 -8.068578,8.068579"
                 sodipodi:ry="13.5"
                 sodipodi:rx="13.5"
                 sodipodi:cy="23.299999"
                 sodipodi:cx="11.7"
                 id="path7117"
                 style="opacity:0.02999998;fill:none;stroke:#000000;stroke-width:0.93103445;stroke-linecap:round;stroke-linejoin:round;stroke-miterlimit:4;stroke-opacity:1;stroke-dasharray:none;stroke-dashoffset:0"
                 sodipodi:type="arc" />
            <path
                 sodipodi:open="true"
                 sodipodi:end="7.5049158"
                 sodipodi:start="1.9198622"
                 sodipodi:type="arc"
                 style="opacity:0.06000001;fill:none;stroke:#000000;stroke-width:1;stroke-linecap:round;stroke-linejoin:round;stroke-miterlimit:4;stroke-opacity:1;stroke-dasharray:none;stroke-dashoffset:0"
                 id="path7119"
                 sodipodi:cx="11.7"
                 sodipodi:cy="23.299999"
                 sodipodi:rx="13.5"
                 sodipodi:ry="13.5"
                 d="M 7.0827276,35.98585 C 0.07652594,33.4358 -3.5358995,25.688929 -0.98585047,18.682727 1.5641986,11.676525 9.3110704,8.0640999 16.317272,10.614149 c 7.006202,2.550049 10.618627,10.296921 8.068578,17.303122 -1.364833,3.749847 -4.318731,6.703746 -8.068578,8.068579"
                 transform="translate(12.300001,1006.0622)" />
            <path
                 sodipodi:open="true"
                 sodipodi:end="7.5049158"
                 sodipodi:start="1.9198622"
                 transform="matrix(0.92592593,0,0,0.92592593,13.166667,1007.7881)"
                 d="M 7.0827276,35.98585 C 0.07652594,33.4358 -3.5358995,25.688929 -0.98585047,18.682727 1.5641986,11.676525 9.3110704,8.0640999 16.317272,10.614149 c 7.006202,2.550049 10.618627,10.296921 8.068578,17.303122 -1.364833,3.749847 -4.318731,6.703746 -8.068578,8.068579"
                 sodipodi:ry="13.5"
                 sodipodi:rx="13.5"
                 sodipodi:cy="23.299999"
                 sodipodi:cx="11.7"
                 id="path7121"
                 style="opacity:0.12000002;fill:none;stroke:#000000;stroke-width:1.08000004;stroke-linecap:round;stroke-linejoin:round;stroke-miterlimit:4;stroke-opacity:1;stroke-dasharray:none;stroke-dashoffset:0"
                 sodipodi:type="arc" />
            <path
                 sodipodi:open="true"
                 sodipodi:end="7.5049158"
                 sodipodi:start="1.9198622"
                 sodipodi:type="arc"
                 style="fill:none;stroke:#ffffff;stroke-width:1.17391312;stroke-linecap:round;stroke-linejoin:round;stroke-miterlimit:4;stroke-opacity:1;stroke-dasharray:none;stroke-dashoffset:0"
                 id="path7123"
                 sodipodi:cx="11.7"
                 sodipodi:cy="23.299999"
                 sodipodi:rx="13.5"
                 sodipodi:ry="13.5"
                 d="M 7.0827276,35.98585 C 0.07652594,33.4358 -3.5358995,25.688929 -0.98585047,18.682727 1.5641986,11.676525 9.3110704,8.0640999 16.317272,10.614149 c 7.006202,2.550049 10.618627,10.296921 8.068578,17.303122 -1.364833,3.749847 -4.318731,6.703746 -8.068578,8.068579"
                 transform="matrix(0.85185185,0,0,0.85185185,14.033334,1009.5141)" />
            <path
                 sodipodi:open="true"
                 sodipodi:end="7.5049158"
                 sodipodi:start="1.9198622"
                 transform="matrix(0.77777778,0,0,0.77777778,14.900001,1011.24)"
                 d="M 7.0827276,35.98585 C 0.07652594,33.4358 -3.5358995,25.688929 -0.98585047,18.682727 1.5641986,11.676525 9.3110704,8.0640999 16.317272,10.614149 c 7.006202,2.550049 10.618627,10.296921 8.068578,17.303122 -1.364833,3.749847 -4.318731,6.703746 -8.068578,8.068579"
                 sodipodi:ry="13.5"
                 sodipodi:rx="13.5"
                 sodipodi:cy="23.299999"
                 sodipodi:cx="11.7"
                 id="path7125"
                 style="opacity:0.12000002;fill:none;stroke:#000000;stroke-width:1.28571439;stroke-linecap:round;stroke-linejoin:round;stroke-miterlimit:4;stroke-opacity:1;stroke-dasharray:none;stroke-dashoffset:0"
                 sodipodi:type="arc" />
            <path
                 sodipodi:open="true"
                 sodipodi:end="7.5049158"
                 sodipodi:start="1.9198622"
                 sodipodi:type="arc"
                 style="opacity:0.06000001;fill:none;stroke:#000000;stroke-width:1.42105281;stroke-linecap:round;stroke-linejoin:round;stroke-miterlimit:4;stroke-opacity:1;stroke-dasharray:none;stroke-dashoffset:0"
                 id="path7127"
                 sodipodi:cx="11.7"
                 sodipodi:cy="23.299999"
                 sodipodi:rx="13.5"
                 sodipodi:ry="13.5"
                 d="M 7.0827276,35.98585 C 0.07652594,33.4358 -3.5358995,25.688929 -0.98585047,18.682727 1.5641986,11.676525 9.3110704,8.0640999 16.317272,10.614149 c 7.006202,2.550049 10.618627,10.296921 8.068578,17.303122 -1.364833,3.749847 -4.318731,6.703746 -8.068578,8.068579"
                 transform="matrix(0.7037037,0,0,0.7037037,15.766667,1012.9659)" />
            <path
                 sodipodi:open="true"
                 sodipodi:end="7.5049158"
                 sodipodi:start="1.9198622"
                 transform="matrix(0.62962963,0,0,0.62962963,16.633334,1014.6918)"
                 d="M 7.0827276,35.98585 C 0.07652594,33.4358 -3.5358995,25.688929 -0.98585047,18.682727 1.5641986,11.676525 9.3110704,8.0640999 16.317272,10.614149 c 7.006202,2.550049 10.618627,10.296921 8.068578,17.303122 -1.364833,3.749847 -4.318731,6.703746 -8.068578,8.068579"
                 sodipodi:ry="13.5"
                 sodipodi:rx="13.5"
                 sodipodi:cy="23.299999"
                 sodipodi:cx="11.7"
                 id="path7129"
                 style="opacity:0.02999998;fill:none;stroke:#000000;stroke-width:1.5882355;stroke-linecap:round;stroke-linejoin:round;stroke-miterlimit:4;stroke-opacity:1;stroke-dasharray:none;stroke-dashoffset:0"
                 sodipodi:type="arc" />
            <path
                 transform="matrix(0.85185185,0,0,0.85185185,14.033334,1009.5141)"
                 d="M 7.0827276,35.98585 C 0.07652594,33.4358 -3.5358995,25.688929 -0.98585047,18.682727 1.5641986,11.676525 9.3110704,8.0640999 16.317272,10.614149 c 7.006202,2.550049 10.618627,10.296921 8.068578,17.303122 -1.364833,3.749847 -4.318731,6.703746 -8.068578,8.068579"
                 sodipodi:ry="13.5"
                 sodipodi:rx="13.5"
                 sodipodi:cy="23.299999"
                 sodipodi:cx="11.7"
                 id="path7249"
                 style="fill:none;stroke:url(#linearGradient7257);stroke-width:1.17391311999999990;stroke-linecap:round;stroke-linejoin:round;stroke-miterlimit:4;stroke-opacity:1;stroke-dasharray:none;stroke-dashoffset:0;opacity:0.25"
                 sodipodi:type="arc"
                 sodipodi:start="1.9198622"
                 sodipodi:end="7.5049158"
                 sodipodi:open="true" />
            <path
                 transform="matrix(1.1481481,0,0,1.1481481,10.566667,1002.6104)"
                 d="m 25.2,23.299999 c 0,7.455844 -6.044156,13.5 -13.5,13.5 -7.4558443,0 -13.5000002,-6.044156 -13.5000002,-13.5 0,-7.455844 6.0441559,-13.4999998 13.5000002,-13.4999998 7.455844,0 13.5,6.0441558 13.5,13.4999998 z"
                 sodipodi:ry="13.5"
                 sodipodi:rx="13.5"
                 sodipodi:cy="23.299999"
                 sodipodi:cx="11.7"
                 id="path7324"
                 style="opacity:0.25;fill:none;stroke:url(#linearGradient7326);stroke-width:0.87096775000000004;stroke-linecap:round;stroke-linejoin:round;stroke-miterlimit:4;stroke-opacity:1;stroke-dasharray:none;stroke-dashoffset:0"
                 sodipodi:type="arc" />
        </g>
        <g
             id="g7346">
            <path
                 inkscape:connector-curvature="0"
                 id="path7294"
                 d="m 24,1020.3622 c -3.313708,0 -6,2.6863 -6,6 l 0,2.1563 c -1.724309,0.4446 -3,1.9805 -3,3.8437 0,3.5275 2.044976,6.5556 5,8.0313 0.01688,2.1946 1.801342,3.9687 4,3.9687 2.198658,0 3.983118,-1.7741 4,-3.9687 2.955024,-1.4757 5,-4.5038 5,-8.0313 0,-1.8632 -1.275691,-3.3991 -3,-3.8437 l 0,-2.1563 c 0,-3.3137 -2.686292,-6 -6,-6 z m 0,1 c 2.761424,0 5,2.2386 5,5 l 0,2 c -2.209139,0 -4,1.7909 -4,4 0,0.5523 -0.447715,1 -1,1 -0.552285,0 -1,-0.4477 -1,-1 0,-2.2091 -1.790861,-4 -4,-4 l 0,-2 c 0,-2.7614 2.238576,-5 5,-5 z m -5,8 c 1.656854,0 3,1.3431 3,3 0,1.1046 0.895431,2 2,2 1.104569,0 2,-0.8954 2,-2 0,-1.6569 1.343146,-3 3,-3 l 0,3 c 0,2.7614 -2.238576,5 -5,5 -2.761424,0 -5,-2.2386 -5,-5 l 0,-3 z m -1,0.1875 0,2.8125 c 0,3.3137 2.686292,6 6,6 3.313708,0 6,-2.6863 6,-6 l 0,-2.8125 c 1.158348,0.4155 2,1.5112 2,2.8125 0,3.3586 -2.066499,6.2203 -5,7.4063 l 0,0.5937 c 0,1.6569 -1.343146,3 -3,3 -1.656854,0 -3,-1.3431 -3,-3 l 0,-0.5937 c -2.933501,-1.186 -5,-4.0477 -5,-7.4063 0,-1.3013 0.841652,-2.397 2,-2.8125 z"
                 style="opacity:0.02999998;fill:#000000;fill-opacity:1;fill-rule:nonzero;stroke:none" />
            <path
                 inkscape:connector-curvature="0"
                 id="path7263"
                 d="m 24,1021.3622 c -2.761424,0 -5,2.2386 -5,5 l 0,3 c -1.656854,0 -3,1.3431 -3,3 0,3.3586 2.066499,6.2203 5,7.4063 l 0,0.5937 c 0,1.6569 1.343146,3 3,3 1.656854,0 3,-1.3431 3,-3 l 0,-0.5937 c 2.933501,-1.186 5,-4.0477 5,-7.4063 0,-1.6569 -1.343146,-3 -3,-3 l 0,-3 c 0,-2.7614 -2.238576,-5 -5,-5 z m 0,1 c 2.209139,0 4,1.7909 4,4 l 0,3.1875 c -1.158348,0.4155 -2,1.5112 -2,2.8125 0,1.1046 -0.895431,2 -2,2 -1.104569,0 -2,-0.8954 -2,-2 0,-1.3013 -0.841652,-2.397 -2,-2.8125 l 0,-3.1875 c 0,-2.2091 1.790861,-4 4,-4 z m -5,8 0,2 c 0,2.7614 2.238576,5 5,5 2.761424,0 5,-2.2386 5,-5 l 0,-2 c 1.10457,0 2,0.8954 2,2 0,0.1381 -0.0046,0.2761 -0.03125,0.4063 -0.171894,2.9949 -2.196708,5.4922 -4.96875,6.3125 l 0,1.2812 c 0,1.1046 -0.89543,2 -2,2 -1.10457,0 -2,-0.8954 -2,-2 l 0,-1.2812 c -2.772042,-0.8203 -4.796856,-3.3176 -4.96875,-6.3125 C 17.0046,1032.6383 17,1032.5003 17,1032.3622 c 0,-1.1046 0.89543,-2 2,-2 z m 1,0.2813 c 0.596896,0.346 1,0.9791 1,1.7187 0,1.6569 1.343146,3 3,3 1.656854,0 3,-1.3431 3,-3 0,-0.7396 0.403104,-1.3727 1,-1.7187 l 0,1.7187 c 0,2.2091 -1.790861,4 -4,4 -2.209139,0 -4,-1.7909 -4,-4 l 0,-1.7187 z"
                 style="opacity:0.06000001;fill:#000000;fill-opacity:1;fill-rule:nonzero;stroke:none" />
            <path
                 inkscape:connector-curvature="0"
                 id="path7231"
                 d="m 24,1022.3622 c -2.209139,0 -4,1.7909 -4,4 l 0,4.2813 c -0.294544,-0.1708 -0.635035,-0.2813 -1,-0.2813 -1.10457,0 -2,0.8954 -2,2 0,0.1381 0.0046,0.2761 0.03125,0.4063 0.171894,2.9949 2.196708,5.4922 4.96875,6.3125 l 0,1.2812 c 0,1.1046 0.89543,2 2,2 1.10457,0 2,-0.8954 2,-2 l 0,-1.2812 c 2.772042,-0.8203 4.796856,-3.3176 4.96875,-6.3125 0.02664,-0.1302 0.03125,-0.2682 0.03125,-0.4063 0,-1.1046 -0.89543,-2 -2,-2 -0.364965,0 -0.705456,0.1105 -1,0.2813 l 0,-4.2813 c 0,-2.2091 -1.790861,-4 -4,-4 z"
                 style="opacity:0.12000002;fill:#000000;fill-opacity:1;fill-rule:nonzero;stroke:none" />
            <path
                 id="path7139"
                 transform="translate(0,1004.3622)"
                 d="M 24 19 C 22.343146 19 21 20.3431 21 22 L 22.5 22 C 22.776142 22 23 22.2239 23 22.5 C 23 22.7761 22.776142 23 22.5 23 L 21 23 L 21 24 L 22.5 24 C 22.776142 24 23 24.2239 23 24.5 C 23 24.7761 22.776142 25 22.5 25 L 21 25 L 21 26 L 22.5 26 C 22.776142 26 23 26.2239 23 26.5 C 23 26.7761 22.776142 27 22.5 27 L 21 27 L 21 28 C 21 29.6569 22.343146 31 24 31 C 25.656854 31 27 29.6569 27 28 L 27 27 L 25.5 27 C 25.223858 27 25 26.7761 25 26.5 C 25 26.2239 25.223858 26 25.5 26 L 27 26 L 27 25 L 25.5 25 C 25.223858 25 25 24.7761 25 24.5 C 25 24.2239 25.223858 24 25.5 24 L 27 24 L 27 23 L 25.5 23 C 25.223858 23 25 22.7761 25 22.5 C 25 22.2239 25.223858 22 25.5 22 L 27 22 C 27 20.3431 25.656854 19 24 19 z M 19 27 C 18.447715 27 18 27.4477 18 28 C 18 30.9756 20.15859 33.43325 23 33.90625 L 23 36 C 23 36.5523 23.447715 37 24 37 C 24.552285 37 25 36.5523 25 36 L 25 33.90625 C 27.84141 33.43325 30 30.9756 30 28 C 30 27.4477 29.552285 27 29 27 C 28.447715 27 28 27.4477 28 28 C 28 30.2091 26.209139 32 24 32 C 21.790861 32 20 30.2091 20 28 C 20 27.4477 19.552285 27 19 27 z "
                 style="fill:#ffffff;fill-opacity:1;fill-rule:nonzero;stroke:none" />
            <path
                 id="path7261"
                 transform="translate(0,1004.3622)"
                 d="M 24 19 C 22.343146 19 21 20.3431 21 22 L 22.5 22 C 22.776142 22 23 22.2239 23 22.5 C 23 22.7761 22.776142 23 22.5 23 L 21 23 L 21 24 L 22.5 24 C 22.776142 24 23 24.2239 23 24.5 C 23 24.7761 22.776142 25 22.5 25 L 21 25 L 21 26 L 22.5 26 C 22.776142 26 23 26.2239 23 26.5 C 23 26.7761 22.776142 27 22.5 27 L 21 27 L 21 28 C 21 29.6569 22.343146 31 24 31 C 25.656854 31 27 29.6569 27 28 L 27 27 L 25.5 27 C 25.223858 27 25 26.7761 25 26.5 C 25 26.2239 25.223858 26 25.5 26 L 27 26 L 27 25 L 25.5 25 C 25.223858 25 25 24.7761 25 24.5 C 25 24.2239 25.223858 24 25.5 24 L 27 24 L 27 23 L 25.5 23 C 25.223858 23 25 22.7761 25 22.5 C 25 22.2239 25.223858 22 25.5 22 L 27 22 C 27 20.3431 25.656854 19 24 19 z M 19 27 C 18.447715 27 18 27.4477 18 28 C 18 30.9756 20.15859 33.43325 23 33.90625 L 23 36 C 23 36.5523 23.447715 37 24 37 C 24.552285 37 25 36.5523 25 36 L 25 33.90625 C 27.84141 33.43325 30 30.9756 30 28 C 30 27.4477 29.552285 27 29 27 C 28.447715 27 28 27.4477 28 28 C 28 30.2091 26.209139 32 24 32 C 21.790861 32 20 30.2091 20 28 C 20 27.4477 19.552285 27 19 27 z "
                 style="opacity:0.25000000000000000;fill:url(#linearGradient7320);fill-opacity:1;fill-rule:nonzero;stroke:none" />
        </g>
    </g>
</svg>
